<?xml version="1.0" encoding="UTF-8"?>
<svg id="_Слой_1" data-name="Слой 1" xmlns="http://www.w3.org/2000/svg" viewBox="0 0 1505.8252 1333.10742">
  <defs>
    <style>
      .cls-1 {
        opacity: .85;
      }
    </style>
  </defs>
  <g class="cls-1">
    <path d="M18.41895,1292.88086v-75.37012h16.62793v75.37012H18.41895Zm8.05957-59.46875v-15.90137H61.25928v15.90137H26.47852Z"/>
    <path d="M94.00732,1293.96973c-9.05273,0-16.0835-2.5166-21.09375-7.55078-5.00977-5.03418-7.51514-12.17383-7.51514-21.4209v-18.37012c0-9.63281,2.40771-17.08789,7.2251-22.36426,4.81592-5.27637,11.62891-7.91504,20.43994-7.91504,8.47021,0,15.0542,2.83203,19.75,8.49512,4.69482,5.66406,7.04346,13.67676,7.04346,24.03516v12.7793h-42.40479v-12.56152h26.64795l.07275-4.64746c.04785-4.11426-.96875-7.33398-3.0498-9.65723-2.08154-2.32324-4.76855-3.48535-8.05957-3.48535-3.82471,0-6.78906,1.25977-8.89502,3.77539-2.10547,2.51758-3.15869,6.09961-3.15869,10.74707v19.60449c0,4.26074,1.11328,7.56445,3.34033,9.91211,2.22607,2.34766,5.34814,3.52148,9.3667,3.52148,2.75928,0,5.07031-.67773,6.93457-2.0332,1.86279-1.35449,3.15869-3.26758,3.88477-5.73633l14.44922,5.15527c-1.45215,5.80859-4.29639,10.21387-8.53174,13.21484-4.23633,3.00195-9.71826,4.50195-16.44629,4.50195Z"/>
    <path d="M136.19434,1323.52246v-106.01172h16.62793v106.01172h-16.62793Zm32.60254-29.55273c-4.01855,0-7.50391-1.125-10.45605-3.37598-2.95312-2.25098-5.13184-5.43359-6.53516-9.54883l1.0166-13.7959c0,2.46875,.39941,4.56348,1.19824,6.28125,.79834,1.71875,1.96045,3.02539,3.48535,3.9209,1.52441,.89648,3.37598,1.34277,5.55469,1.34277,3.29102,0,5.84521-1.125,7.66016-3.37598,1.81543-2.25098,2.72314-5.38477,2.72314-9.40332v-21.7832c0-4.06641-.90771-7.21289-2.72314-9.43945-1.81494-2.22559-4.36914-3.33984-7.66016-3.33984-2.17871,0-4.03027,.43555-5.55469,1.30664-1.5249,.87109-2.68701,2.1543-3.48535,3.84863-.79883,1.69434-1.19824,3.77539-1.19824,6.24414l-1.5249-12.7793c1.93555-4.4043,4.46582-7.80566,7.58789-10.20215,3.12207-2.39551,6.59521-3.59375,10.41992-3.59375,6.58252,0,11.66504,2.35938,15.24805,7.0791,3.58203,4.71973,5.37354,11.38867,5.37354,20.00488v23.52539c0,8.61719-1.82812,15.28516-5.48242,20.00488-3.65527,4.71973-8.87109,7.0791-15.64746,7.0791Z"/>
    <path d="M231.67822,1293.96973c-8.52051,0-15.13965-2.34668-19.85938-7.04297-4.71973-4.69434-7.07959-11.32715-7.07959-19.89551v-24.10645c0-8.51953,2.35986-15.09082,7.07959-19.71484,4.71973-4.62207,11.33887-6.93359,19.85938-6.93359,8.56787,0,15.19922,2.31152,19.89551,6.93359,4.69482,4.62402,7.04297,11.19531,7.04297,19.71484v24.32422c0,8.52051-2.34814,15.10352-7.04297,19.75-4.69629,4.64746-11.32764,6.9707-19.89551,6.9707Zm.07227-15.68359c3.2915,0,5.83301-1.02832,7.62451-3.08594,1.79004-2.05664,2.68652-4.90137,2.68652-8.53223v-23.23535c0-3.63086-.89648-6.4375-2.68652-8.42285-1.7915-1.98438-4.33301-2.97754-7.62451-2.97754-3.29248,0-5.85742,.99316-7.69678,2.97754-1.83984,1.98535-2.75879,4.79199-2.75879,8.42285v23.23535c0,3.63086,.91895,6.47559,2.75879,8.53223,1.83936,2.05762,4.4043,3.08594,7.69678,3.08594Z"/>
    <path d="M329.12207,1292.80859h-15.46631v-51.19141l1.74268,1.8877-26.50293,49.30371h-13.65088v-75.29785h15.46631v51.84375l-1.74268-1.8877,26.64795-49.95605h13.50586v75.29785Z"/>
    <path d="M382.854,1292.88086v-105.57617h16.62793v105.57617h-16.62793Zm8.42334,0v-15.90137h25.99463c3.58154,0,6.40088-1.14941,8.45898-3.44922,2.05713-2.29883,3.08594-5.50586,3.08594-9.62109v-5.80859c0-4.21191-1.02881-7.50293-3.08594-9.87598-2.05811-2.37109-4.87744-3.55762-8.45898-3.55762h-25.99463v-15.90137h26.35742c5.90576,0,10.92822,1.125,15.06689,3.37598,4.13916,2.25098,7.34521,5.4707,9.62109,9.65723,2.2749,4.1875,3.4126,9.23438,3.4126,15.13965v8.05957c0,5.80859-1.1377,10.80762-3.4126,14.99414-2.27588,4.1875-5.49463,7.38281-9.65723,9.58496-4.16406,2.20312-9.17383,3.30371-15.03076,3.30371h-26.35742Zm.21777-89.6748v-15.90137h47.63281v15.90137h-47.63281Z"/>
    <path d="M488.43115,1293.96973c-9.05273,0-16.0835-2.5166-21.09375-7.55078-5.00977-5.03418-7.51514-12.17383-7.51514-21.4209v-18.37012c0-9.63281,2.40771-17.08789,7.2251-22.36426,4.81592-5.27637,11.62891-7.91504,20.43994-7.91504,8.47021,0,15.0542,2.83203,19.75,8.49512,4.69482,5.66406,7.04346,13.67676,7.04346,24.03516v12.7793h-42.40479v-12.56152h26.64795l.07275-4.64746c.04785-4.11426-.96875-7.33398-3.0498-9.65723-2.08154-2.32324-4.76855-3.48535-8.05957-3.48535-3.82471,0-6.78906,1.25977-8.89502,3.77539-2.10547,2.51758-3.15869,6.09961-3.15869,10.74707v19.60449c0,4.26074,1.11328,7.56445,3.34033,9.91211,2.22607,2.34766,5.34814,3.52148,9.3667,3.52148,2.75928,0,5.07031-.67773,6.93457-2.0332,1.86279-1.35449,3.15869-3.26758,3.88477-5.73633l14.44922,5.15527c-1.45215,5.80859-4.29639,10.21387-8.53174,13.21484-4.23633,3.00195-9.71826,4.50195-16.44629,4.50195Z"/>
    <path d="M521.9043,1293.53418v-15.68359c2.85596,0,5.04688-1.02832,6.57129-3.08594,1.5249-2.05762,2.2876-4.99805,2.2876-8.82227v-48.43164h15.75635v50.10156c0,8.375-1.94922,14.78906-5.84521,19.24219-3.89697,4.4541-9.59717,6.67969-17.09961,6.67969h-1.67041Zm18.66113-60.12207v-15.90137h31.58594v15.90137h-31.58594Zm22.50977,59.46875v-75.37012h16.62793v75.37012h-16.62793Z"/>
    <path d="M617.67871,1293.96973c-7.21338,0-12.67041-1.85156-16.37354-5.55469s-5.55469-9.30566-5.55469-16.80957c0-7.8418,2.1167-13.74707,6.35303-17.7168,4.23535-3.96875,10.5166-5.9541,18.84277-5.9541h13.86865l1.0166,13.36035h-14.59473c-3.34033,0-5.83398,.86035-7.479,2.57812-1.646,1.71875-2.46875,4.2959-2.46875,7.73242,0,2.85742,.85889,4.99902,2.57764,6.42676,1.71777,1.42773,4.29541,2.1416,7.73291,2.1416,4.21191,0,7.38184-.72559,9.51221-2.17871,2.12939-1.45215,3.19482-3.60547,3.19482-6.46191l1.45215,8.64062c-.43555,3.09863-1.47705,5.66406-3.12207,7.69727-1.646,2.03223-3.72803,3.55762-6.24463,4.57422-2.51758,1.0166-5.42188,1.52441-8.71338,1.52441Zm16.62793-1.08887v-51.19043c0-3.34082-.95605-5.94238-2.86816-7.80566-1.9126-1.86328-4.63574-2.7959-8.16846-2.7959-2.51758,0-4.76855,.56934-6.75293,1.70605-1.98535,1.1377-3.55811,2.74805-4.71973,4.8291l-13.43311-4.79297c1.54883-5.22754,4.48926-9.29395,8.82227-12.19824,4.33154-2.9043,9.71729-4.35645,16.15576-4.35645,8.4707,0,15.01807,2.19043,19.6416,6.57129,4.62207,4.38184,6.93408,10.56445,6.93408,18.55176v51.48145h-15.61133Z"/>
    <path d="M667.99854,1323.52246v-106.01172h16.62793v106.01172h-16.62793Zm32.60254-29.55273c-4.01855,0-7.50391-1.125-10.45605-3.37598-2.95312-2.25098-5.13184-5.43359-6.53516-9.54883l1.0166-13.7959c0,2.46875,.39941,4.56348,1.19824,6.28125,.79834,1.71875,1.96045,3.02539,3.48535,3.9209,1.52441,.89648,3.37598,1.34277,5.55469,1.34277,3.29102,0,5.84521-1.125,7.66016-3.37598,1.81543-2.25098,2.72314-5.38477,2.72314-9.40332v-21.7832c0-4.06641-.90771-7.21289-2.72314-9.43945-1.81494-2.22559-4.36914-3.33984-7.66016-3.33984-2.17871,0-4.03027,.43555-5.55469,1.30664-1.5249,.87109-2.68701,2.1543-3.48535,3.84863-.79883,1.69434-1.19824,3.77539-1.19824,6.24414l-1.5249-12.7793c1.93555-4.4043,4.46582-7.80566,7.58789-10.20215,3.12207-2.39551,6.59521-3.59375,10.41992-3.59375,6.58252,0,11.66504,2.35938,15.24805,7.0791,3.58203,4.71973,5.37305,11.38867,5.37305,20.00488v23.52539c0,8.61719-1.82812,15.28516-5.48193,20.00488-3.65527,4.71973-8.87109,7.0791-15.64746,7.0791Z"/>
    <path d="M755.71289,1299.56152l-26.79395-82.05078h16.19238l19.75,65.34961-9.14844,16.70117Zm17.28125-82.05078h16.19238l-27.15723,93.01465c-1.45215,4.88867-3.90918,8.41016-7.36914,10.56445-3.46191,2.1543-8.21777,3.23145-14.26855,3.23145h-3.70312v-16.11914h3.84863c2.61328,0,4.69434-.54492,6.24414-1.63379,1.54883-1.08984,2.73438-2.94141,3.55762-5.55469l22.65527-83.50293Z"/>
    <path d="M824.33008,1293.96973c-9.05273,0-16.03516-2.40723-20.94824-7.22461-4.91406-4.81641-7.37012-11.62891-7.37012-20.44043v-21.92773c0-8.90625,2.44434-15.80469,7.33398-20.69434,4.88867-4.88867,11.88281-7.33398,20.98438-7.33398,7.4541,0,13.33594,1.66992,17.64453,5.00977,4.30762,3.34082,6.99414,8.42383,8.05957,15.24902l-15.24805,5.08301c-.67871-3.34082-1.90039-5.80957-3.66699-7.40723-1.76758-1.59668-4.0293-2.39551-6.78906-2.39551-3.67969,0-6.54785,1.1377-8.60449,3.41211-2.05762,2.27637-3.08594,5.42285-3.08594,9.43945v21.20312c0,3.96973,1.02832,7.04297,3.08594,9.22168,2.05664,2.17773,4.9248,3.26758,8.60449,3.26758,2.75977,0,5.02148-.78711,6.78906-2.36035,1.7666-1.57227,2.96484-3.93262,3.59473-7.0791l15.24805,5.22754c-1.0166,6.68066-3.67969,11.64258-7.9873,14.88574-4.30859,3.24316-10.19043,4.86426-17.64453,4.86426Z"/>
    <path d="M916.76367,1292.80859h-15.46582v-51.19141l1.74316,1.8877-26.50391,49.30371h-13.65039v-75.29785h15.46582v51.84375l-1.74219-1.8877,26.64844-49.95605h13.50488v75.29785Z"/>
  </g>
  <g>
    <path d="M99.58105,418.05908l38.2002-128.88721h43.15625v211.99316h-34.2627v-156.29736l1.89551,9.33105-35.72168,116.34814h-26.53516l-35.7207-113.43213,2.18652-12.24707v156.29736H18.22461v-211.99316H61.67383l37.90723,128.88721Z"/>
    <path d="M253.40039,503.35205c-13.70508,0-24.05664-3.76562-31.05469-11.29932-6.99902-7.53174-10.49805-18.7832-10.49805-33.75293,0-15.64844,4.39648-27.45801,13.19531-35.4292,8.7959-7.96875,21.74609-11.95557,38.85547-11.95557h24.49414l2.04102,29.59717h-25.51465c-6.02832,0-10.54785,1.48291-13.55957,4.44678-3.01367,2.96631-4.51953,7.41309-4.51953,13.34082,0,4.66553,1.45801,8.16504,4.37402,10.49756,2.91602,2.33301,7.09375,3.49951,12.53809,3.49951,7.87402,0,13.80176-1.3125,17.78809-3.93701,3.98438-2.62402,5.97754-6.56104,5.97754-11.80957l2.77051,17.3501c-.38965,6.51318-2.31055,11.95557-5.75879,16.32959-3.45215,4.37402-7.87402,7.65479-13.26855,9.8418-5.39453,2.18652-11.34961,3.28027-17.86035,3.28027Zm34.11719-2.18701v-102.35156c0-5.44238-1.70117-9.64551-5.10254-12.61182-3.40332-2.96387-8.21484-4.44678-14.43457-4.44678-4.56934,0-8.7002,.99805-12.39258,2.98877-3.69531,1.99365-6.65918,4.83643-8.89453,8.5293l-29.59668-12.10107c3.01172-10.69141,8.98926-19.00195,17.93359-24.93213,8.94141-5.92725,20.07031-8.89355,33.3877-8.89355,17.2041,0,30.54492,4.44678,40.02246,13.34082,9.47656,8.89355,14.21484,21.40967,14.21484,37.54346v102.93457h-35.1377Z"/>
    <path d="M356.91797,562.69238v-212.86768h37.9082v212.86768h-37.9082Zm69.25488-59.34033c-7.87305,0-14.70312-2.28271-20.48535-6.85254-5.78418-4.56787-10.08496-10.93506-12.90332-19.09961l2.04199-27.84814c0,4.08252,.65527,7.53369,1.96777,10.35205,1.3125,2.82031,3.28027,4.95703,5.90527,6.41504,2.62402,1.45801,5.7334,2.18701,9.33105,2.18701,5.54004,0,9.81641-1.89551,12.83008-5.68604,3.01172-3.79102,4.52051-9.13525,4.52051-16.03809v-42.86523c0-6.80225-1.50879-12.12402-4.52051-15.96484-3.01367-3.83887-7.29004-5.75928-12.83008-5.75928-3.59766,0-6.70703,.729-9.33105,2.18701-2.625,1.45801-4.59277,3.59717-5.90527,6.41504-1.3125,2.82031-1.96777,6.26953-1.96777,10.35205l-3.0625-26.09814c3.79102-8.74805,8.69824-15.55078,14.72656-20.41211,6.02539-4.85938,12.68457-7.29004,19.97461-7.29004,12.92578,0,22.91309,4.69043,29.96191,14.06982,7.0459,9.38135,10.57031,22.67188,10.57031,39.87598v48.11426c0,17.1084-3.5498,30.37646-10.64355,39.80322-7.09668,9.4292-17.15625,14.14258-30.18066,14.14258Z"/>
    <path d="M533.04395,501.16504c-12.34473,0-21.86914-4.13037-28.57617-12.39307-6.70703-8.26025-10.06055-19.82861-10.06055-34.7002v-57.44531c0-14.87158,3.42676-26.38965,10.2793-34.55469,6.85254-8.16455,16.54785-12.24707,29.08691-12.24707,10.59277,0,18.7832,4.32617,24.56738,12.97607,5.78125,8.65234,8.6748,20.8999,8.6748,36.7417v54.0918c0,15.06738-2.96582,26.75439-8.89355,35.06494-5.92969,8.31055-14.28906,12.46582-25.07812,12.46582Zm11.08105-32.51318c4.37402,0,7.77539-1.72461,10.20605-5.17627,2.42871-3.44873,3.64551-8.33301,3.64551-14.65283v-46.94727c0-6.21924-1.2168-11.03076-3.64551-14.43457-2.43066-3.40088-5.83203-5.10254-10.20605-5.10254-3.98633,0-7.07129,1.70166-9.25781,5.10254-2.1875,3.40381-3.28125,8.21533-3.28125,14.43457v46.94727c0,6.31982,1.09375,11.2041,3.28125,14.65283,2.18652,3.45166,5.27148,5.17627,9.25781,5.17627Zm13.85156,76.39893v-239.11182h38.63672v239.11182h-38.63672Zm63.42285-43.88574c-10.69434,0-19.00488-4.15527-24.93262-12.46582-5.92969-8.31055-8.89355-19.99756-8.89355-35.06494v-54.0918c0-15.8418,2.96387-28.08936,8.89355-36.7417,5.92773-8.6499,14.23828-12.97607,24.93262-12.97607,12.34277,0,21.89258,4.08252,28.64941,12.24707,6.75488,8.16504,10.13281,19.68311,10.13281,34.55469v57.44531c0,14.87158-3.37793,26.43994-10.13281,34.7002-6.75684,8.2627-16.30664,12.39307-28.64941,12.39307Zm-11.08105-32.51318c3.98438,0,7.09375-1.72461,9.33105-5.17627,2.23438-3.44873,3.35352-8.33301,3.35352-14.65283v-46.94727c0-6.21924-1.11914-11.03076-3.35352-14.43457-2.2373-3.40088-5.34668-5.10254-9.33105-5.10254-4.27832,0-7.63184,1.70166-10.06055,5.10254-2.43066,3.40381-3.64453,8.21533-3.64453,14.43457v46.94727c0,6.31982,1.21387,11.2041,3.64453,14.65283,2.42871,3.45166,5.78223,5.17627,10.06055,5.17627Z"/>
    <path d="M801.60742,501.16504h-34.55469v-100.89355l3.49902,3.79102-48.25977,97.10254h-30.90918v-151.34033h34.55469v101.91406l-3.49902-3.79053,48.55078-98.12354h30.61816v151.34033Z"/>
    <path d="M835.1416,501.16504v-151.34033h37.9082v151.34033h-37.9082Zm19.68262,0v-36.5957h65.31836v36.5957h-65.31836Zm50.44727,0v-151.34033h38.05371v151.34033h-38.05371Zm24.34863,37.9082v-74.50391h38.05371v74.50391h-38.05371Z"/>
    <path d="M992.45996,501.16504v-151.34033h37.9082v151.34033h-37.9082Zm17.49609-57.15332v-36.4502h71.15039v36.4502h-71.15039Zm60.79785,57.15332l-23.47363-63.13135,33.53418-17.7876,31.34668,80.91895h-41.40723Zm6.41602-63.13135l-29.74316-23.61963,18.66211-64.58936h39.07422l-27.99316,88.20898Z"/>
    <path d="M1236.96582,501.16504h-34.55469v-100.89355l3.49902,3.79102-48.25977,97.10254h-30.90918v-151.34033h34.55469v101.91406l-3.49902-3.79053,48.55078-98.12354h30.61816v151.34033Z"/>
    <path d="M1382.18262,501.16504h-34.55469v-100.89355l3.49902,3.79102-48.25977,97.10254h-30.90918v-151.34033h34.55469v101.91406l-3.49902-3.79053,48.55078-98.12354h30.61816v151.34033Zm-56.57031-175.39746c-13.99707,0-24.61719-4.00928-31.85742-12.02832-7.24219-8.01904-10.8623-19.75586-10.8623-35.21045v-7.29004h30.32715v5.54004c0,14.28857,4.12988,21.43262,12.39258,21.43262h2.62402c8.26074,0,12.39355-7.14404,12.39355-21.43262v-5.54004h30.32617v7.29004c0,15.45459-3.62207,27.19141-10.8623,35.21045-7.24219,8.01904-17.86035,12.02832-31.85742,12.02832h-2.62402Z"/>
  </g>
  <g>
    <path d="M16.1875,1005.26953l57.00781-108.62109,34.55469,15.01758-47.53125,93.60352H16.1875Zm62.98535-90.39648l-54.09131-121.59668h41.55225l40.9707,96.08203-28.43164,25.51465Zm2.1875,3.35352v-36.44922h114.74414v36.44922H81.36035Zm38.63672,87.04297v-211.99316h38.05371v211.99316h-38.05371Zm97.97754,0l-48.25977-93.60352,34.55469-15.01758,57.73633,108.62109h-44.03125Zm-19.8291-90.39648l-28.28516-25.51465,41.69922-96.08203h41.55273l-54.9668,121.59668Z"/>
    <path d="M308.80762,1019.84961l-54.0918-165.92041h35.86719l39.65723,131.36572-21.43262,34.55469Zm33.09668-165.92041h35.86621l-53.94531,186.77002c-2.91602,9.91406-7.85059,17.00781-14.79883,21.28711-6.9502,4.27539-16.40234,6.41406-28.3584,6.41406h-10.20605v-37.32422h10.49805c4.46973,0,8.06641-.875,10.78906-2.625,2.71973-1.74902,4.71289-5.15234,5.97754-10.20508l44.17773-164.31689Z"/>
    <path d="M395.99609,1066.79688v-212.86768h37.9082v212.86768h-37.9082Zm69.25488-59.33984c-7.87305,0-14.70312-2.2832-20.48535-6.85352-5.78418-4.56738-10.08496-10.93457-12.90332-19.09961l2.04199-27.84766c0,4.08203,.65527,7.5332,1.96777,10.35156,1.3125,2.82031,3.28027,4.95703,5.90527,6.41602,2.62402,1.45703,5.7334,2.18652,9.33105,2.18652,5.54004,0,9.81641-1.89551,12.83008-5.68652,3.01172-3.79102,4.52051-9.13477,4.52051-16.03711v-42.86523c0-6.80273-1.50879-12.125-4.52051-15.96484-3.01367-3.83984-7.29004-5.75977-12.83008-5.75977-3.59766,0-6.70703,.72852-9.33105,2.1875-2.625,1.45703-4.59277,3.59668-5.90527,6.41406-1.3125,2.82031-1.96777,6.26953-1.96777,10.35254l-3.0625-26.09863c3.79102-8.74805,8.69824-15.55078,14.72656-20.41162,6.02539-4.85938,12.68457-7.29004,19.97461-7.29004,12.92578,0,22.91309,4.69043,29.96191,14.06982,7.0459,9.38184,10.57031,22.67188,10.57031,39.87598v48.11426c0,17.1084-3.5498,30.37598-10.64355,39.80371-7.09668,9.42871-17.15625,14.14258-30.18066,14.14258Z"/>
    <path d="M574.01758,1007.45703c-13.70508,0-24.05664-3.76562-31.05469-11.2998-6.99902-7.53223-10.49805-18.7832-10.49805-33.75293,0-15.64844,4.39648-27.45801,13.19531-35.42969,8.7959-7.96875,21.74609-11.95508,38.85547-11.95508h24.49414l2.04102,29.59766h-25.51465c-6.02832,0-10.54785,1.48242-13.55957,4.44629-3.01367,2.96582-4.51953,7.41309-4.51953,13.34082,0,4.66602,1.45801,8.16504,4.37402,10.49805,2.91602,2.33203,7.09375,3.49902,12.53809,3.49902,7.87402,0,13.80176-1.3125,17.78809-3.93652,3.98438-2.625,5.97754-6.56152,5.97754-11.81055l2.77051,17.35059c-.38965,6.5127-2.31055,11.95605-5.75879,16.3291-3.45215,4.375-7.87402,7.65527-13.26855,9.8418-5.39453,2.1875-11.34961,3.28125-17.86035,3.28125Zm34.11719-2.1875v-102.35156c0-5.44238-1.70117-9.64551-5.10254-12.61133-3.40332-2.96484-8.21484-4.44727-14.43457-4.44727-4.56934,0-8.7002,.99805-12.39258,2.98828-3.69531,1.99414-6.65918,4.83691-8.89453,8.5293l-29.59668-12.10059c3.01172-10.69141,8.98926-19.00195,17.93359-24.93213,8.94141-5.92725,20.07031-8.89355,33.3877-8.89355,17.2041,0,30.54492,4.44678,40.02246,13.34033,9.47656,8.89453,14.21484,21.41016,14.21484,37.54395v102.93457h-35.1377Z"/>
    <path d="M677.53613,1005.26953v-151.34033h36.30371v151.34033h-36.30371Zm19.68262,0v-31.34766h38.7832c4.66504,0,8.2373-1.26172,10.71582-3.79004,2.47852-2.52637,3.71777-6.07324,3.71777-10.64355v-4.22852c0-4.46875-1.33691-7.94531-4.00879-10.42383-2.6748-2.47852-6.39258-3.71875-11.1543-3.71875h-38.05371v-30.47168h38.05371c8.26074,0,12.39355-3.88672,12.39355-11.66406v-2.62402c0-7.38672-4.27832-11.08105-12.83105-11.08105h-37.61621v-31.34717h45.34375c13.21777,0,23.47363,3.03906,30.76367,9.11279,7.29004,6.0752,10.93555,14.55762,10.93555,25.44238v6.12305c0,8.36133-2.28516,15.28613-6.85254,20.77637-4.57031,5.49316-10.93555,8.9668-19.09961,10.4248,9.13477,1.75,16.20605,5.68555,21.21387,11.80957,5.00488,6.12402,7.50781,13.94922,7.50781,23.47363v7.43555c0,11.56836-3.86328,20.58398-11.59082,27.04688-7.72754,6.46484-18.58887,9.69531-32.58594,9.69531h-45.63574Z"/>
    <path d="M805.11035,1006.58203v-36.0127c5.34473,0,9.45215-1.67676,12.32031-5.03027,2.86523-3.35352,4.30078-8.23828,4.30078-14.65234v-96.95752h34.55469v100.31104c0,17.00977-4.05957,29.98633-12.1748,38.92773-8.11621,8.94336-19.90137,13.41406-35.35645,13.41406h-3.64453Zm37.4707-116.05664v-36.59619h64.29785v36.59619h-64.29785Zm42.71875,114.74414v-151.34033h37.9082v151.34033h-37.9082Z"/>
    <path d="M1012.875,1007.45703c-18.56641,0-32.95117-5.00586-43.15625-15.01758-10.20605-10.00977-15.30957-24.10547-15.30957-42.28223v-38.6377c0-19.04883,4.95703-33.7998,14.87207-44.25,9.91406-10.44727,23.8125-15.67285,41.69824-15.67285,17.39844,0,30.93262,5.75879,40.60547,17.27637,9.6709,11.51953,14.50684,27.77539,14.50684,48.77148v26.38867h-84.12598v-26.68164h48.40527v-10.78906c.19336-6.41406-1.60352-11.49219-5.39453-15.23535-3.79102-3.74121-8.45605-5.61328-13.99707-5.61328-6.5127,0-11.64062,2.11426-15.38184,6.34277-3.74316,4.22754-5.61328,10.13281-5.61328,17.71387v41.26074c0,7.38867,1.91797,13.0498,5.75879,16.98633,3.83887,3.93652,9.25879,5.9043,16.25684,5.9043,5.05273,0,9.35449-1.31152,12.90332-3.93555,3.54688-2.625,6.05078-6.46289,7.50879-11.51855l31.93066,12.24707c-2.91602,12.15234-8.74805,21.3125-17.49609,27.4834-8.74805,6.17383-20.07324,9.25879-33.97168,9.25879Z"/>
    <path d="M1096.71094,1005.26953v-151.34033h36.30371v151.34033h-36.30371Zm19.68262,0v-31.34766h38.7832c4.66504,0,8.2373-1.26172,10.71582-3.79004,2.47852-2.52637,3.71777-6.07324,3.71777-10.64355v-4.22852c0-4.46875-1.33691-7.94531-4.00879-10.42383-2.6748-2.47852-6.39258-3.71875-11.1543-3.71875h-38.05371v-30.47168h38.05371c8.26074,0,12.39355-3.88672,12.39355-11.66406v-2.62402c0-7.38672-4.27832-11.08105-12.83105-11.08105h-37.61621v-31.34717h45.34375c13.21777,0,23.47363,3.03906,30.76367,9.11279,7.29004,6.0752,10.93555,14.55762,10.93555,25.44238v6.12305c0,8.36133-2.28516,15.28613-6.85254,20.77637-4.57031,5.49316-10.93555,8.9668-19.09961,10.4248,9.13477,1.75,16.20605,5.68555,21.21387,11.80957,5.00488,6.12402,7.50781,13.94922,7.50781,23.47363v7.43555c0,11.56836-3.86328,20.58398-11.59082,27.04688-7.72754,6.46484-18.58887,9.69531-32.58594,9.69531h-45.63574Z"/>
    <path d="M1344.71582,1005.26953h-34.55469v-100.89355l3.49902,3.79102-48.25977,97.10254h-30.90918v-151.34033h34.55469v101.91455l-3.49902-3.79102,48.55078-98.12354h30.61816v151.34033Z"/>
    <path d="M1421.99023,959.19727c-13.70508,0-24.30078-4.34961-31.78516-13.0498-7.48535-8.69824-11.22656-21.01758-11.22656-36.95996v-55.2583h37.9082v53.5083c0,5.54102,1.45801,9.8418,4.37402,12.9043,2.91602,3.06055,6.99805,4.5918,12.24707,4.5918,5.34473,0,9.5-1.79688,12.46582-5.39453,2.96387-3.59473,4.44727-8.60156,4.44727-15.01758v-18.66211h12.83008v19.09961c0,17.20508-3.33008,30.54492-9.9873,40.02246-6.65918,9.47754-17.08301,14.21582-31.27344,14.21582Zm28.43066,46.07227v-151.34033h37.9082v151.34033h-37.9082Z"/>
  </g>
  <g>
    <path d="M21.30859,248.84375L85.40234,42.20801h24.72754l64.09473,206.63574h-38.37109L97.7666,110.70752,59.67969,248.84375H21.30859Zm35.6709-32.54443v-35.24463h82.42676v35.24463H56.97949Z"/>
    <path d="M187.29883,248.84375v-37.09229h37.0918v37.09229h-37.0918Z"/>
    <path d="M299.28613,250.97559c-12.88574,0-23.7334-2.53369-32.54492-7.60352-8.81055-5.06689-15.65625-12.83691-20.53516-23.30664-4.88086-10.46777-7.84082-23.61328-8.88184-39.43701h38.08691c.85254,11.18066,3.26855,19.46973,7.24707,24.87012,3.97949,5.40039,9.52246,8.10059,16.62793,8.10059,7.5791,0,13.47656-2.3916,17.69336-7.17676,4.21484-4.7832,6.32422-11.53369,6.32422-20.25146V105.02295c0-8.71533-2.10938-15.49023-6.32422-20.32227-4.2168-4.83203-10.11426-7.24805-17.69336-7.24805-4.73828,0-8.78906,1.18604-12.15137,3.55273-3.36328,2.36963-6.01758,5.99365-7.95801,10.87207-1.94336,4.88086-3.19727,11.06299-3.76562,18.5459h-38.08691c1.04102-15.82129,3.97852-28.9668,8.81055-39.43701,4.83203-10.46777,11.67578-18.2373,20.53613-23.30664,8.85742-5.06738,19.72949-7.60352,32.61523-7.60352,13.07422,0,24.25293,2.55811,33.53906,7.67432,9.28418,5.11621,16.36523,12.48389,21.24609,22.09912,4.87891,9.61719,7.31934,21.3418,7.31934,35.17334v81.14795c0,13.73877-2.44043,25.43848-7.31934,35.10254-4.88086,9.66357-11.96191,17.03174-21.24609,22.09863-9.28613,5.06982-20.46484,7.60352-33.53906,7.60352Zm-27.85449-87.25879v-34.96045h71.4834v34.96045h-71.4834Z"/>
    <path d="M378.58594,248.84375v-37.09229h37.0918v37.09229h-37.0918Z"/>
  </g>
  <g>
    <path d="M21.18506,752.77441l64.09424-206.63574h24.72754l64.09473,206.63574h-38.37109l-38.08691-138.13623-38.08691,138.13623H21.18506Zm35.67139-32.54443v-35.24463h82.42676v35.24463H56.85645Z"/>
    <path d="M187.17578,752.77441v-37.09229h37.0918v37.09229h-37.0918Z"/>
    <path d="M237.34277,752.77441l64.09375-206.63574h24.72754l64.09473,206.63574h-38.37109l-38.08691-138.13623-38.08691,138.13623h-38.37109Zm35.6709-32.54443v-35.24463h82.42676v35.24463h-82.42676Z"/>
    <path d="M403.33301,752.77441v-37.09229h37.0918v37.09229h-37.0918Z"/>
  </g>
</svg>