<?xml version="1.0" standalone="no"?>
<!DOCTYPE svg PUBLIC "-//W3C//DTD SVG 20010904//EN"
 "http://www.w3.org/TR/2001/REC-SVG-20010904/DTD/svg10.dtd">
<svg version="1.0" xmlns="http://www.w3.org/2000/svg"
 width="700.000000pt" height="700.000000pt" viewBox="0 0 700.000000 700.000000"
 preserveAspectRatio="xMidYMid meet">
<metadata>
Created by potrace 1.14, written by Peter Selinger 2001-2017
</metadata>
<g transform="translate(0.000000,700.000000) scale(0.100000,-0.100000)"
fill="#000000" stroke="none">
<path d="M3340 6108 c-145 -27 -259 -50 -287 -59 -17 -6 -43 -12 -57 -15 -14
-2 -62 -17 -108 -33 -46 -16 -99 -32 -119 -35 -50 -8 -90 -24 -114 -46 -11
-10 -40 -24 -65 -30 -57 -15 -97 -36 -124 -64 -11 -12 -43 -30 -70 -40 -27
-11 -67 -37 -90 -60 -23 -23 -58 -51 -79 -61 -22 -11 -52 -36 -68 -55 -43 -52
-54 -63 -92 -90 -20 -14 -46 -43 -58 -65 -13 -22 -46 -62 -75 -90 -30 -30 -54
-63 -58 -82 -4 -17 -18 -41 -32 -54 -31 -28 -69 -93 -78 -130 -3 -15 -22 -50
-41 -79 -33 -49 -39 -66 -38 -115 1 -37 3 -44 19 -59 14 -15 14 -19 -5 -50
-12 -19 -27 -51 -34 -71 l-13 -37 -13 43 -14 44 -28 -60 c-19 -41 -28 -76 -29
-111 0 -28 -7 -68 -16 -89 -14 -34 -26 -174 -25 -280 2 -136 9 -234 19 -260 6
-16 13 -68 16 -115 3 -71 11 -104 49 -201 25 -63 50 -134 56 -157 11 -41 14
-60 26 -211 3 -41 12 -92 19 -113 l14 -38 -82 5 c-44 3 -106 8 -136 10 -118 9
-221 15 -375 20 -88 4 -202 8 -253 10 l-92 3 57 -45 c138 -107 301 -198 503
-279 113 -46 181 -87 500 -307 58 -40 159 -108 225 -151 127 -82 155 -106 274
-231 45 -47 72 -69 68 -56 -3 11 -1 19 4 15 5 -3 9 -12 9 -20 0 -21 48 -66 62
-58 6 4 8 3 5 -3 -3 -5 18 -31 47 -59 73 -69 96 -86 96 -72 0 6 3 8 7 5 3 -4
-1 -15 -10 -25 -10 -10 -14 -22 -10 -25 3 -4 1 -7 -5 -7 -7 0 -12 7 -12 15 0
8 -4 15 -9 15 -7 0 -8 -45 -2 -105 1 -5 12 -11 26 -11 21 -2 24 1 14 12 -6 8
-15 12 -19 9 -5 -3 -12 0 -16 6 -4 8 -3 9 4 5 15 -9 15 -1 1 26 -7 12 -7 18
-1 14 14 -9 43 4 36 16 -3 5 1 17 10 27 10 11 14 26 10 37 -3 12 -3 14 3 7 12
-17 45 -20 51 -4 3 9 0 11 -7 7 -13 -9 -41 11 -41 28 0 6 5 3 11 -7 5 -9 15
-17 21 -17 7 0 6 5 -2 15 -7 9 -8 15 -2 15 5 0 13 -8 17 -17 6 -16 8 -16 25 4
l18 22 26 -24 c15 -14 24 -30 20 -37 -4 -6 -3 -8 4 -4 5 3 12 3 15 -1 2 -5 2
-1 -1 7 -2 8 -5 21 -5 28 0 6 -3 12 -6 12 -3 0 -14 7 -24 15 -14 10 -16 18 -9
31 6 11 11 13 16 5 4 -6 2 -11 -4 -11 -6 0 -9 -4 -6 -9 4 -5 14 -8 24 -6 9 2
19 4 22 4 3 1 -2 6 -10 12 -13 9 -13 10 0 6 8 -2 14 -10 13 -16 -2 -6 2 -11 7
-11 6 0 10 6 10 13 0 20 -21 36 -38 29 -21 -8 20 33 48 48 11 6 18 15 15 20
-3 6 -1 18 5 27 9 15 11 15 7 2 -3 -9 1 -26 9 -38 9 -12 11 -21 5 -21 -6 0
-11 5 -11 11 0 6 -14 1 -30 -11 -25 -18 -28 -25 -19 -36 6 -8 16 -14 21 -14 6
0 6 6 -1 14 -9 10 -8 15 4 20 8 3 22 3 30 0 9 -4 19 3 26 20 7 14 16 26 21 26
5 0 2 -10 -6 -22 -18 -25 -6 -48 25 -48 31 0 33 31 2 37 -15 3 -17 -13 -3 -20
6 -3 5 -4 -2 -3 -7 2 -13 9 -13 17 0 8 6 13 13 12 17 -4 15 12 -4 31 -11 12
-13 20 -5 33 6 11 11 13 12 6 5 -41 20 -74 31 -67 6 4 6 10 -1 17 -6 6 -11 18
-10 27 0 9 4 5 10 -9 8 -19 12 -21 24 -11 10 9 15 9 15 1 0 -6 6 -10 13 -8 6
1 11 -4 10 -10 -2 -7 2 -13 7 -13 6 0 10 5 10 11 0 6 5 7 13 2 6 -4 21 -7 32
-5 l20 2 -20 -9 c-11 -4 -27 -6 -35 -3 -13 5 -13 3 -1 -12 10 -12 17 -14 25
-6 14 14 26 13 26 -4 0 -18 27 -29 36 -14 4 6 3 8 -4 4 -6 -3 -14 -1 -18 5 -4
8 -3 9 5 5 6 -4 13 -1 16 6 6 15 125 20 125 5 0 -4 5 -5 10 -2 6 4 7 11 4 17
-4 7 -2 8 4 4 7 -4 18 -4 25 1 12 7 18 9 53 16 8 2 20 10 25 18 5 8 9 10 9 6
0 -5 7 -1 16 7 8 9 19 14 24 11 9 -6 -1 121 -10 133 -2 1 -4 7 -5 12 -1 6 -3
11 -5 13 -9 11 -6 44 6 61 20 30 17 45 -5 19 -10 -12 -21 -20 -24 -17 -3 3 5
15 17 27 21 22 21 22 39 2 17 -18 18 -18 13 -2 -4 11 -2 16 5 12 5 -4 7 -16 3
-28 -6 -19 -5 -20 9 -8 12 9 14 18 7 30 -6 13 -5 18 5 18 7 0 11 -7 8 -16 -3
-11 0 -10 11 3 12 15 16 16 16 5 0 -12 2 -12 11 1 8 12 9 11 5 -6 -5 -17 -2
-20 24 -20 26 0 29 3 24 20 -4 17 -3 18 5 6 6 -8 11 -10 11 -4 0 6 7 11 15 11
8 0 11 -5 8 -10 -4 -6 0 -8 10 -4 8 3 21 -1 27 -9 7 -8 17 -14 22 -14 6 0 5 7
-2 15 -7 9 -10 18 -6 22 3 3 6 1 6 -6 0 -7 4 -10 9 -7 8 5 8 -15 1 -34 -1 -3
-2 -9 -1 -15 1 -5 -6 -1 -14 9 -11 15 -15 16 -15 5 0 -8 5 -20 11 -26 8 -8 7
-17 -2 -34 -7 -13 -12 -29 -11 -36 1 -6 -2 -14 -7 -18 -6 -3 -8 -12 -4 -20 3
-8 0 -15 -6 -15 -7 0 -8 -8 -1 -25 5 -14 7 -25 3 -25 -3 0 2 -9 12 -20 10 -11
20 -18 24 -16 3 2 20 -7 36 -20 25 -20 28 -26 15 -34 -19 -12 -33 -13 -26 -1
9 14 -5 42 -16 35 -6 -4 -5 -10 3 -15 7 -4 10 -11 6 -16 -5 -4 -12 -1 -17 7
-5 8 -12 11 -17 7 -4 -5 -1 -12 7 -17 24 -16 1 -11 -36 6 -39 18 -43 29 -14
31 11 1 18 -2 15 -7 -10 -16 10 -18 30 -3 16 12 16 14 3 10 -11 -4 -21 0 -27
11 -6 9 -11 13 -11 7 0 -5 -17 8 -37 30 -20 22 -30 31 -22 20 13 -18 12 -19
-3 -7 -11 9 -18 10 -23 2 -3 -6 -11 -8 -16 -5 -5 4 -9 1 -9 -6 0 -7 -3 -9 -6
-6 -4 3 -15 2 -25 -3 -12 -7 -20 -7 -24 0 -3 5 -11 10 -18 10 -6 0 -2 -7 9
-16 10 -8 12 -12 4 -8 -13 7 -13 5 -2 -8 15 -18 6 -27 -22 -22 -14 2 -16 0 -7
-9 16 -16 13 -30 -5 -23 -9 4 -24 1 -32 -6 -13 -11 -14 -11 -7 2 7 12 6 13 -7
3 -8 -7 -18 -10 -22 -6 -3 4 -16 7 -27 8 -21 2 -21 1 2 -16 18 -14 21 -20 11
-31 -9 -11 -9 -18 1 -28 10 -12 9 -12 -6 -1 -13 11 -15 17 -6 28 18 21 2 29
-19 10 -10 -10 -23 -17 -28 -17 -5 0 -2 5 6 10 11 7 4 8 -23 6 -34 -4 -36 -2
-25 13 9 11 6 10 -9 -3 -13 -10 -20 -23 -17 -27 3 -5 0 -9 -5 -9 -6 0 -10 -6
-8 -12 1 -7 -4 -12 -11 -10 -8 1 -11 -2 -6 -9 5 -8 3 -9 -6 -4 -8 5 -18 1 -27
-10 -7 -11 -13 -14 -13 -9 0 6 6 16 13 24 10 12 9 12 -4 2 -9 -6 -19 -9 -23
-5 -4 4 -4 0 -1 -8 3 -9 -2 -22 -12 -30 -16 -13 -17 -12 -4 4 20 25 6 33 -25
12 -15 -9 -23 -12 -20 -6 5 7 1 8 -9 4 -13 -5 -14 -7 -3 -14 10 -7 10 -9 -2
-9 -13 0 -13 -1 0 -10 13 -9 13 -10 0 -10 -13 0 -13 -1 0 -10 11 -7 11 -10 2
-10 -7 0 -10 -5 -7 -11 5 -6 12 -4 22 8 8 10 11 11 7 3 -6 -12 -5 -13 7 -5 8
6 5 1 -7 -10 -17 -15 -20 -24 -13 -37 8 -14 7 -16 -5 -12 -9 3 -14 11 -13 17
1 8 -12 12 -35 11 -21 0 -34 4 -31 10 3 5 1 6 -6 2 -8 -5 -9 -12 -2 -19 6 -8
1 -18 -17 -32 -27 -19 -27 -19 -13 0 14 19 14 19 -4 3 -22 -20 -13 -37 10 -18
12 10 15 10 15 -2 0 -16 -37 -22 -46 -7 -3 5 -1 16 5 23 8 9 7 13 -4 13 -8 0
-11 -5 -8 -10 3 -6 1 -7 -6 -3 -6 4 -8 12 -5 18 4 6 2 8 -4 4 -5 -3 -12 -2
-14 3 -1 5 -12 3 -23 -6 -20 -15 -20 -15 3 -8 12 3 22 2 22 -3 0 -16 -28 -34
-41 -26 -8 5 -10 3 -4 -7 7 -12 5 -12 -6 -1 -12 11 -12 14 1 22 8 5 13 10 10
11 -3 0 -15 2 -28 5 -22 4 -22 4 -5 -23 12 -19 14 -24 4 -19 -10 7 -12 5 -6
-4 5 -7 4 -11 -1 -7 -5 3 -18 -1 -29 -9 -13 -10 -15 -14 -4 -14 12 0 12 -2 -1
-10 -10 -6 -11 -10 -2 -10 6 0 12 -4 12 -8 0 -5 -7 -9 -15 -9 -8 0 -11 5 -8
11 4 6 -1 5 -10 -3 -14 -11 -20 -11 -34 0 -15 12 -16 12 -10 -3 10 -29 -10
-30 -31 -2 -17 25 -19 25 -17 6 1 -12 10 -32 21 -44 l19 -23 -22 19 c-21 18
-28 15 -24 -8 1 -5 -6 -3 -16 5 -15 11 -15 9 2 -11 l20 -25 -22 19 c-13 10
-20 23 -17 28 3 5 -2 8 -11 6 -11 -2 -19 4 -21 16 -2 14 0 16 9 7 6 -6 15 -11
20 -11 12 0 -1 18 -22 29 -15 9 -17 4 -16 -37 1 -26 4 -53 9 -60 4 -7 2 -12
-6 -12 -8 0 -9 -3 -3 -8 6 -4 10 -14 10 -22 0 -8 7 -21 17 -28 10 -7 18 -18
18 -24 0 -6 -6 -6 -15 2 -18 15 -31 7 -19 -12 13 -20 13 -38 2 -38 -7 0 -7 -4
-1 -12 6 -7 9 -25 8 -40 -2 -23 0 -25 17 -15 10 7 18 16 18 20 0 5 7 1 16 -7
19 -20 28 -20 44 -1 7 8 18 15 24 15 6 0 -2 -12 -17 -25 -23 -21 -32 -23 -49
-14 -27 15 -43 -2 -44 -47 0 -18 2 -31 5 -28 3 3 6 20 6 37 0 17 6 32 12 34 8
3 10 -6 8 -27 l-4 -31 30 31 c28 28 57 42 45 21 -8 -12 20 -22 39 -15 20 8 19
17 -6 32 -16 11 -18 16 -9 28 7 8 17 14 22 14 6 0 6 -6 -1 -14 -9 -10 -8 -15
3 -19 11 -4 13 -1 9 11 -3 9 -2 14 2 9 5 -4 17 0 27 10 17 15 19 15 36 0 10
-10 22 -17 27 -17 4 0 -2 9 -15 20 -12 11 -22 31 -22 45 0 14 -6 25 -12 25 -6
0 -4 5 4 10 16 10 36 -13 25 -30 -3 -6 1 -20 9 -32 9 -12 16 -17 16 -11 0 7
-4 15 -10 18 -16 10 -12 22 10 28 11 3 30 -3 45 -15 27 -21 34 -18 11 5 -19
18 -24 49 -10 54 7 2 11 -4 10 -14 0 -10 6 -18 14 -18 8 0 14 8 14 18 -1 10 3
16 10 14 6 -2 10 -12 8 -23 -1 -10 7 -25 18 -32 11 -7 20 -8 20 -3 0 5 -7 11
-15 15 -8 3 -15 10 -15 16 0 6 5 8 10 5 6 -3 10 -2 10 2 0 16 -55 41 -83 38
-18 -2 -27 1 -24 8 4 13 52 14 80 2 12 -5 17 -3 17 9 0 13 7 15 28 11 22 -4
23 -4 7 4 -11 5 -38 7 -59 6 -38 -3 -38 -3 -18 15 11 10 22 25 25 32 2 7 8 10
12 6 4 -4 2 -14 -5 -23 -8 -10 -9 -15 -1 -15 6 0 11 6 11 13 0 9 2 9 9 -1 4
-7 21 -14 36 -16 17 -2 32 -11 36 -22 6 -14 8 -15 8 -4 1 9 -4 21 -11 28 -9 9
-9 12 0 12 6 0 15 -8 21 -17 5 -10 11 -16 13 -13 2 3 12 18 22 33 26 43 32 24
6 -20 -12 -21 -19 -35 -15 -31 5 4 14 0 21 -10 9 -12 16 -14 24 -6 8 8 7 14
-5 24 -8 7 -15 17 -15 23 0 6 10 1 23 -11 15 -14 27 -18 36 -12 8 4 19 7 25 6
6 -2 8 -1 3 1 -4 3 -4 9 -1 15 4 5 -4 3 -18 -6 -22 -15 -25 -14 -42 5 -9 12
-14 24 -11 27 4 4 13 -1 20 -12 13 -18 14 -18 12 2 0 11 -4 19 -8 16 -4 -2
-12 3 -19 11 -7 8 -16 12 -21 9 -5 -3 -9 0 -9 5 0 14 27 14 36 0 3 -6 15 -8
26 -6 14 4 25 -3 40 -29 24 -42 34 -45 13 -5 -17 34 -32 46 -59 46 -11 0 -21
5 -23 10 -6 18 43 11 64 -7 21 -19 53 -24 53 -8 0 5 -7 7 -15 4 -14 -6 -65 36
-65 53 0 5 9 9 20 9 13 0 18 -6 17 -20 -3 -26 29 -33 53 -11 15 14 21 14 40 3
18 -11 23 -11 34 4 7 10 16 15 19 11 4 -3 7 -1 7 5 0 18 -18 14 -29 -5 -8 -15
-12 -16 -35 -3 -14 7 -26 20 -26 29 0 9 3 12 8 6 4 -5 16 -17 27 -25 11 -8 17
-11 13 -6 -11 13 48 57 66 50 9 -3 16 -1 16 6 0 6 -4 9 -9 6 -5 -3 -12 1 -15
10 -9 24 -8 26 13 15 14 -8 20 -7 25 4 3 8 11 12 19 9 8 -3 19 2 26 10 11 13
15 13 30 -2 10 -9 15 -21 12 -27 -2 -5 4 -3 15 5 10 8 21 16 23 17 3 2 -5 10
-17 19 -12 8 -20 20 -17 25 4 5 13 3 21 -6 9 -8 20 -15 27 -15 6 0 2 6 -9 14
-13 10 -19 27 -20 58 -2 65 -3 70 -14 63 -17 -11 -11 7 8 21 22 17 38 18 23 0
-8 -10 -4 -20 19 -45 17 -17 28 -36 25 -41 -9 -15 -25 -12 -19 3 3 8 -2 20
-11 27 -10 8 -15 9 -15 1 0 -6 5 -11 10 -11 6 0 10 -5 10 -11 0 -5 -4 -7 -10
-4 -5 3 -10 3 -10 -2 0 -4 14 -16 31 -25 17 -10 28 -22 24 -28 -4 -6 -15 -2
-27 10 -30 28 -34 17 -5 -12 23 -23 25 -23 35 -7 9 14 8 21 -3 33 -9 8 -11 17
-6 21 5 3 16 -4 24 -15 7 -11 17 -17 22 -12 4 4 5 -1 2 -10 -3 -9 0 -21 6 -27
16 -12 50 -8 55 7 2 7 8 10 13 7 5 -4 6 2 2 11 -4 12 -3 15 5 10 8 -4 16 3 22
18 5 14 15 26 21 26 8 0 7 -6 -2 -17 -12 -15 -12 -16 1 -8 23 14 43 15 60 2
13 -11 13 -10 1 6 -8 10 -20 16 -26 13 -7 -2 -17 0 -23 6 -13 13 -42 -7 -42
-29 0 -8 -5 -11 -10 -8 -6 3 -13 -1 -16 -9 -3 -9 -10 -13 -15 -10 -5 3 -6 -1
-4 -8 4 -9 -2 -14 -15 -15 -11 -1 -18 2 -15 7 3 5 -11 25 -31 45 -20 20 -33
39 -30 42 3 4 13 -2 21 -13 8 -10 15 -16 15 -12 0 5 8 0 18 -10 11 -9 17 -21
14 -25 -2 -5 5 -4 17 3 25 13 23 34 -3 36 -12 2 -13 1 -1 -3 8 -2 15 -9 15
-14 0 -15 -19 -10 -37 10 -9 11 -20 18 -25 15 -4 -3 -8 -1 -8 5 0 15 18 23 25
11 3 -5 11 -10 18 -10 6 0 2 7 -9 15 -19 15 -19 15 0 30 16 12 22 12 28 2 13
-20 9 -30 -7 -17 -18 15 -20 5 -3 -14 10 -10 15 -9 28 7 15 18 16 18 30 1 13
-16 13 -17 -2 -11 -23 8 -32 -8 -18 -30 9 -15 10 -14 4 6 -4 15 -2 21 4 17 6
-3 17 -3 26 0 14 6 14 9 -5 25 -12 10 -28 15 -37 12 -14 -6 -15 -4 -4 9 13 16
3 17 -56 4 -15 -3 -22 -1 -20 6 5 13 29 19 76 20 29 0 32 3 26 22 -6 18 -5 19
9 7 9 -7 14 -18 10 -24 -3 -5 -1 -7 5 -3 5 3 12 0 15 -6 2 -7 7 -10 11 -7 4 4
-5 17 -19 30 -25 25 -34 46 -13 33 7 -4 24 -9 38 -11 46 -6 59 -9 66 -16 10
-10 26 -9 20 2 -3 4 16 8 42 9 26 0 59 5 73 10 15 6 30 8 33 5 3 -4 6 -2 6 4
0 14 38 24 46 12 3 -5 10 -7 15 -4 5 4 9 -3 9 -14 0 -12 -6 -20 -12 -18 -7 1
-14 -9 -15 -23 -2 -24 -2 -24 5 -2 4 13 12 23 17 23 6 -1 10 9 10 22 0 12 -5
21 -12 20 -32 -7 -8 15 40 37 28 13 65 30 80 37 15 7 25 8 22 3 -3 -6 -2 -10
3 -10 6 0 13 7 16 16 4 9 9 14 13 11 3 -4 12 -2 19 4 8 6 21 9 29 5 8 -3 15
-1 15 5 0 6 4 8 10 4 5 -3 7 -13 4 -23 -5 -14 -4 -14 4 -2 6 8 8 18 6 22 -3 4
0 8 5 8 6 0 11 -10 12 -22 l0 -23 10 23 c5 14 16 22 26 20 10 -2 28 7 42 20
13 12 26 20 29 17 3 -3 10 5 16 16 6 12 15 20 20 18 5 -2 13 6 17 19 5 13 13
20 19 17 5 -3 10 -1 10 5 0 6 4 9 9 5 6 -3 15 4 21 15 6 11 15 18 19 15 5 -3
11 2 15 10 3 8 14 15 25 15 11 0 21 4 23 8 2 5 29 22 60 39 42 23 60 28 69 19
9 -8 10 -7 6 6 -5 13 0 19 18 24 25 6 35 24 14 24 -5 0 -7 4 -4 10 4 6 15 4
29 -5 19 -13 23 -13 23 -1 0 9 -7 12 -16 9 -11 -4 -13 -3 -6 4 6 6 25 14 44
18 26 5 32 4 26 -5 -5 -9 -4 -11 4 -6 6 4 9 11 6 16 -3 5 1 15 8 22 8 8 21 27
30 43 13 26 16 27 22 13 4 -10 11 -18 17 -18 5 0 3 9 -6 21 -18 27 -4 75 26
85 12 3 16 9 10 13 -7 4 2 26 23 60 43 68 67 94 131 141 44 34 50 42 46 68 -3
25 3 34 40 63 59 46 61 49 81 91 18 38 22 65 33 203 8 104 25 172 81 314 38
98 46 129 49 201 2 47 10 102 18 124 8 23 12 63 9 100 -2 34 0 81 5 104 6 26
6 59 0 89 -6 26 -9 78 -9 115 1 43 -4 80 -15 105 -9 21 -16 61 -15 88 1 38 -6
66 -30 115 -30 61 -32 63 -40 40 -7 -21 -8 -19 -4 9 5 31 4 33 -21 27 -19 -5
-30 -1 -44 16 -18 23 -18 23 2 45 37 40 23 121 -34 194 -15 20 -28 43 -28 50
-1 25 -37 93 -65 123 -15 16 -36 49 -46 73 -10 24 -41 65 -69 91 -27 25 -50
52 -50 59 0 18 -56 79 -95 103 -18 11 -43 36 -54 55 -11 20 -42 47 -73 64 -29
17 -70 48 -91 70 -21 22 -60 48 -85 57 -26 10 -64 32 -84 50 -22 20 -61 40
-95 50 -32 9 -65 22 -73 29 -28 24 -80 46 -118 49 -20 3 -61 14 -90 25 -53 21
-291 86 -354 96 -18 3 -58 10 -88 15 -113 20 -152 22 -148 8 3 -7 20 -14 39
-16 84 -6 296 -45 419 -77 112 -29 140 -40 167 -67 32 -31 47 -62 18 -38 -8 6
-49 14 -92 17 -43 3 -125 18 -183 34 -85 24 -312 69 -346 69 -4 0 -3 -5 2 -10
6 -6 57 -17 113 -26 57 -8 145 -26 197 -39 82 -21 102 -30 147 -70 29 -25 67
-51 85 -57 17 -7 32 -16 32 -20 0 -13 -9 -10 -116 31 -111 43 -223 75 -232 67
-8 -9 -7 -9 143 -58 77 -25 166 -62 198 -81 32 -20 77 -39 99 -42 23 -4 59
-20 80 -36 22 -15 56 -33 76 -40 20 -7 62 -32 93 -55 30 -24 61 -44 68 -44 7
0 36 -23 63 -50 28 -28 63 -57 78 -65 15 -8 44 -37 64 -65 20 -28 47 -55 60
-61 13 -6 34 -31 46 -55 13 -24 38 -58 56 -77 18 -18 42 -54 54 -81 11 -27 33
-64 49 -81 16 -18 31 -49 35 -70 4 -20 16 -52 27 -71 29 -52 23 -63 -9 -18
-16 22 -32 56 -36 76 -4 23 -23 55 -51 86 -24 26 -47 61 -51 77 -4 15 -31 53
-61 84 -29 31 -62 71 -73 88 -10 17 -43 50 -72 73 -29 23 -59 53 -66 66 -12
23 -92 84 -111 84 -5 0 -28 20 -51 44 -24 25 -61 51 -88 61 -26 10 -64 33 -84
50 -21 17 -57 38 -80 45 -24 7 -115 36 -203 66 -161 53 -278 84 -318 84 -42 0
-1 -18 93 -40 90 -22 237 -65 307 -90 17 -6 43 -26 57 -44 l25 -33 -37 18
c-20 10 -66 21 -102 25 -36 3 -101 16 -145 29 -158 46 -285 72 -285 58 0 -5
33 -15 73 -22 39 -7 116 -26 170 -41 87 -24 103 -32 151 -78 30 -28 66 -54 82
-58 26 -7 27 -8 7 -15 -15 -6 -50 4 -118 31 -85 35 -234 85 -282 95 -10 2 -30
6 -45 10 -17 4 -28 3 -28 -3 0 -5 35 -18 77 -27 164 -37 320 -96 395 -151 26
-20 65 -40 85 -46 21 -5 52 -23 68 -38 17 -16 50 -38 75 -51 25 -13 71 -46
102 -75 32 -29 66 -55 77 -59 11 -3 22 -14 26 -24 6 -19 84 -101 96 -101 4 0
21 -24 37 -54 17 -29 42 -63 57 -74 14 -11 32 -37 41 -57 l15 -37 -33 23 c-40
28 -168 155 -168 167 0 14 -53 68 -87 89 -18 11 -46 37 -61 59 -16 21 -52 52
-82 68 -29 16 -70 46 -90 66 -21 21 -55 43 -75 50 -21 7 -81 33 -134 58 -164
76 -428 157 -408 125 4 -6 25 -13 46 -17 63 -10 196 -54 314 -103 85 -36 111
-51 122 -74 21 -39 20 -39 -21 -18 -20 10 -62 23 -93 29 -31 6 -90 24 -132 40
-105 40 -221 72 -217 58 2 -6 33 -18 68 -28 141 -36 203 -67 252 -124 26 -29
62 -60 80 -69 l33 -17 -30 3 c-16 1 -69 21 -117 45 -101 49 -236 102 -258 102
-23 -1 4 -14 80 -41 100 -34 239 -105 283 -145 22 -20 58 -45 81 -55 22 -10
60 -38 84 -63 24 -24 56 -49 71 -56 16 -6 34 -23 42 -37 7 -14 36 -45 63 -69
27 -25 62 -66 79 -92 16 -26 38 -53 48 -60 11 -7 28 -31 39 -52 l19 -38 -22 5
c-33 9 -56 32 -77 81 -11 24 -41 65 -67 91 -27 25 -55 60 -64 78 -21 39 -204
175 -324 241 -105 58 -135 69 -135 50 0 -7 38 -30 85 -52 109 -50 234 -133
246 -163 16 -41 10 -48 -18 -21 -23 21 -290 158 -308 158 -3 0 -5 -7 -5 -15 0
-8 16 -19 38 -25 74 -20 115 -52 147 -114 17 -32 44 -69 60 -82 56 -44 -14
-16 -75 31 -55 42 -141 95 -153 95 -23 0 4 -23 78 -69 60 -37 97 -67 126 -106
22 -29 56 -66 75 -80 19 -14 43 -43 53 -63 11 -20 34 -50 51 -67 27 -25 43
-53 89 -150 2 -5 -7 4 -21 20 -15 17 -29 27 -32 24 -15 -15 -44 -159 -41 -206
2 -28 18 -107 35 -175 29 -109 33 -140 35 -273 1 -82 -1 -163 -3 -179 l-5 -29
-19 24 c-17 22 -19 22 -17 4 2 -11 0 -33 -4 -50 -4 -16 -8 -41 -11 -55 -23
-137 -81 -325 -123 -397 -13 -23 -22 -47 -18 -53 8 -13 -24 -52 -36 -44 -5 3
-9 0 -9 -5 0 -23 -16 -8 -34 32 -34 77 -109 168 -189 231 -25 20 -50 57 -77
111 -112 233 -383 328 -612 216 -108 -53 -202 -162 -238 -273 -6 -21 -15 -38
-19 -38 -12 0 -125 -110 -155 -151 -14 -19 -38 -61 -54 -92 l-29 -57 -27 29
c-15 16 -28 35 -29 43 -2 7 -12 30 -23 49 -30 51 -60 133 -88 246 -25 97 -31
125 -45 214 -4 25 -17 56 -28 68 -19 21 -21 33 -19 174 2 137 5 163 34 270 42
151 42 236 2 342 l-11 28 -31 -29 c-18 -16 -26 -21 -19 -11 8 10 25 41 38 69
13 27 34 59 47 69 14 11 38 43 55 72 16 28 41 59 54 67 14 8 44 39 67 69 28
35 73 73 131 110 49 31 89 59 89 64 1 19 -36 1 -126 -63 -101 -72 -150 -93
-99 -43 15 16 38 49 51 76 26 51 60 77 137 105 26 9 47 22 47 29 0 7 -3 13 -6
13 -20 0 -297 -144 -319 -166 l-26 -26 7 29 c4 15 12 34 17 42 20 25 121 87
222 137 55 27 102 50 104 52 3 1 0 7 -6 13 -30 30 -411 -220 -454 -296 -12
-22 -43 -59 -69 -82 -27 -24 -55 -61 -65 -85 -23 -58 -36 -73 -47 -56 -6 10
-12 9 -23 -6 -8 -11 -15 -14 -15 -7 0 20 21 55 42 70 11 7 35 37 54 66 18 29
48 63 65 75 17 13 44 40 60 62 15 22 48 52 71 68 24 15 56 42 73 59 16 18 49
41 72 51 23 10 61 36 85 58 55 50 213 125 357 168 8 3 11 7 8 10 -12 12 -199
-59 -292 -110 -26 -15 -64 -29 -84 -31 l-36 -4 37 19 c21 11 52 40 70 65 26
35 48 51 106 75 41 17 105 39 143 49 69 18 97 31 65 31 -30 0 -127 -28 -196
-56 -36 -15 -96 -33 -135 -41 -38 -8 -86 -24 -108 -34 l-38 -20 16 32 c13 23
35 39 93 66 42 19 86 38 97 43 37 17 169 58 228 71 32 7 60 16 63 21 21 34
-262 -55 -408 -128 -26 -13 -73 -34 -105 -46 -31 -11 -77 -40 -102 -62 -26
-23 -63 -51 -84 -61 -22 -11 -52 -36 -68 -55 -16 -19 -33 -39 -37 -43 -4 -5
-29 -25 -56 -45 -27 -20 -56 -51 -65 -68 -9 -17 -42 -56 -74 -86 -31 -31 -57
-65 -57 -75 0 -11 -13 -32 -29 -47 l-29 -28 -4 23 c-6 38 12 81 48 116 18 18
42 49 53 70 10 21 38 53 60 71 23 19 53 51 68 73 14 21 32 39 40 39 7 0 38 24
68 53 31 30 72 61 92 71 20 9 54 32 77 51 23 18 54 37 69 40 16 4 62 29 103
56 41 27 77 49 80 49 4 0 47 15 98 34 50 19 135 44 189 56 53 12 97 26 97 31
0 5 -15 6 -32 2 -44 -8 -198 -51 -223 -62 -108 -48 -207 -80 -226 -72 -22 7
-21 8 7 14 16 3 52 27 79 53 55 52 80 64 175 89 69 18 74 19 160 35 49 9 92
30 62 30 -22 0 -196 -40 -277 -64 -44 -13 -108 -27 -142 -30 -34 -3 -78 -12
-97 -20 -35 -14 -36 -14 -26 4 15 29 48 49 120 71 95 31 113 36 245 68 79 19
114 31 102 36 -23 10 -130 -17 -307 -75 -80 -26 -172 -56 -204 -66 -33 -10
-74 -30 -91 -45 -17 -15 -55 -39 -85 -52 -30 -14 -77 -46 -103 -71 -27 -25
-54 -46 -61 -46 -18 0 -94 -67 -101 -90 -3 -10 -14 -22 -23 -25 -26 -8 -85
-65 -109 -105 -12 -19 -41 -53 -64 -75 -23 -22 -51 -59 -61 -82 -10 -23 -24
-48 -31 -56 -51 -55 -61 -72 -76 -116 -9 -27 -20 -49 -26 -48 -5 1 -8 7 -6 12
2 6 8 28 14 50 5 22 20 51 33 65 12 14 34 48 47 77 13 29 40 70 60 92 20 22
45 58 57 81 11 22 24 40 29 40 13 0 67 55 87 89 10 16 30 35 46 42 15 6 47 32
71 58 24 25 62 55 84 65 23 10 56 33 74 52 18 19 39 34 47 34 20 0 81 30 117
56 17 13 50 26 73 30 23 4 67 21 97 39 59 36 150 72 265 106 80 23 86 26 78
34 -9 9 -136 -26 -213 -57 -119 -50 -125 -52 -138 -39 -8 8 -6 11 9 11 21 0
86 42 134 87 14 13 41 28 60 33 82 22 209 49 265 56 33 4 63 9 68 10 4 1 14 2
22 3 8 0 15 6 15 11 0 10 -14 9 -90 -5 -14 -2 -43 -7 -65 -10 -22 -3 -100 -21
-173 -40 -72 -19 -156 -35 -185 -35 -28 -1 -69 -7 -90 -15 l-38 -13 18 21 c37
43 50 54 69 59 95 27 219 58 264 67 89 18 97 20 183 32 45 6 91 12 102 14 11
2 23 4 28 4 4 1 7 6 7 11 0 12 -40 11 -110 -2z m2017 -1390 c-3 -7 -5 -2 -5
12 0 14 2 19 5 13 2 -7 2 -19 0 -25z m-3156 -2331 c-10 -9 -11 -8 -5 6 3 10 9
15 12 12 3 -3 0 -11 -7 -18z m1224 5 c-3 -3 -11 0 -18 7 -9 10 -8 11 6 5 10
-3 15 -9 12 -12z m170 8 c3 -5 1 -10 -4 -10 -6 0 -11 5 -11 10 0 6 2 10 4 10
3 0 8 -4 11 -10z m-1205 -56 c0 -8 -19 -13 -24 -6 -3 5 1 9 9 9 8 0 15 -2 15
-3z m80 2 c0 -3 -4 -8 -10 -11 -5 -3 -10 -1 -10 4 0 6 5 11 10 11 6 0 10 -2
10 -4z m35 -6 c3 -5 1 -10 -4 -10 -6 0 -11 5 -11 10 0 6 2 10 4 10 3 0 8 -4
11 -10z m-99 -66 c1 -9 0 -13 -4 -10 -3 4 -7 14 -8 22 -1 9 0 13 4 10 3 -4 7
-14 8 -22z m178 0 c3 -8 2 -12 -4 -9 -6 3 -10 10 -10 16 0 14 7 11 14 -7z
m-129 -14 c3 -6 -1 -7 -9 -4 -18 7 -21 14 -7 14 6 0 13 -4 16 -10z m-40 -19
c-9 -8 -36 -10 -30 -2 2 4 11 8 20 8 8 0 13 -3 10 -6z m92 -8 c0 -9 -4 -10
-14 -2 -7 6 -13 12 -13 14 0 1 6 2 13 2 8 0 14 -6 14 -14z m114 -6 c-10 -9
-11 -8 -5 6 3 10 9 15 12 12 3 -3 0 -11 -7 -18z m-271 -7 c0 -5 -5 -10 -11
-10 -5 0 -7 5 -4 10 3 6 8 10 11 10 2 0 4 -4 4 -10z m214 -29 c-2 -3 -12 3
-22 13 -16 17 -16 18 5 5 12 -7 20 -15 17 -18z m-63 -4 c-10 -9 -11 -8 -5 6 3
10 9 15 12 12 3 -3 0 -11 -7 -18z m189 9 c-7 -7 -13 -7 -20 0 -6 6 -3 10 10
10 13 0 16 -4 10 -10z m39 -3 c-6 -7 -17 -13 -23 -12 -7 0 -6 2 2 6 6 2 10 8
8 12 -3 4 1 8 9 8 11 0 12 -4 4 -14z m46 7 c-3 -5 -16 -15 -28 -21 -19 -9 -19
-8 3 10 28 23 34 26 25 11z m22 -15 c-9 -7 -13 -16 -9 -20 4 -5 1 -5 -7 0 -12
7 -11 10 2 20 9 7 13 16 9 20 -4 5 -1 5 7 0 12 -7 11 -10 -2 -20z m-144 -12
c-3 -7 -9 -13 -15 -13 -5 0 -7 4 -4 9 4 5 0 11 -6 14 -7 3 -3 4 8 4 14 -1 20
-6 17 -14z m204 2 c4 -4 3 -5 -3 -2 -7 4 -11 -3 -11 -18 0 -20 2 -23 13 -14
10 8 14 8 14 0 0 -6 -5 -11 -11 -11 -5 0 -8 -4 -5 -9 9 -14 -41 -6 -60 10 -15
12 -16 11 -10 -8 4 -12 2 -24 -3 -27 -8 -5 -9 33 -2 52 0 2 11 -4 23 -12 30
-21 35 -20 32 7 -1 12 -3 26 -3 30 -1 5 -6 5 -13 1 -6 -4 -8 -3 -5 4 8 12 32
10 44 -3z m-330 -9 c0 -15 -21 -16 -34 -1 -4 4 -3 5 4 1 6 -3 14 -2 18 4 8 14
12 13 12 -4z m385 0 c10 5 10 4 2 -5 -12 -13 -44 -5 -44 11 0 6 6 5 15 -2 8
-6 20 -8 27 -4z m-477 -7 c3 -3 -6 -5 -19 -5 -14 1 -28 4 -31 7 -3 3 6 5 19 5
14 -1 28 -4 31 -7z m253 -9 c-7 -10 -14 -17 -17 -15 -4 4 18 35 25 35 2 0 -1
-9 -8 -20z m78 8 c4 -7 4 -10 -1 -6 -4 4 -13 0 -20 -9 -9 -13 -14 -13 -20 -3
-5 8 -4 11 2 7 6 -4 13 0 17 8 7 18 13 19 22 3z m880 -40 c4 -6 3 -8 -2 -5 -6
3 -16 2 -23 -3 -10 -6 -7 -12 13 -25 15 -10 25 -24 22 -31 -7 -17 10 -28 20
-13 5 8 3 9 -6 4 -8 -5 -11 -4 -7 2 4 6 27 9 51 9 51 -2 71 -12 28 -14 -36 -1
-60 -6 -68 -15 -14 -13 -24 -7 -40 26 -9 17 -26 40 -38 50 -16 13 -17 16 -3
11 18 -7 22 3 8 24 -6 11 -10 10 -15 -3 -5 -14 -9 -15 -21 -5 -13 11 -14 10
-8 -6 6 -17 5 -17 -10 -5 -9 7 -18 11 -18 7 -2 -10 -6 -25 -9 -33 -1 -5 -2
-12 -1 -17 1 -5 -5 -4 -13 4 -9 7 -16 9 -16 5 0 -4 7 -13 16 -19 14 -11 14
-13 -2 -27 -16 -12 -17 -12 -11 3 3 10 2 20 -4 23 -5 4 -8 1 -7 -7 2 -7 -3
-12 -10 -10 -8 1 -11 -2 -8 -7 3 -4 -7 -7 -23 -6 -36 3 -60 -9 -37 -18 9 -4
16 -12 16 -18 0 -8 -6 -7 -17 2 -16 13 -17 12 -4 -3 11 -15 11 -18 0 -19 -10
0 -11 -2 -1 -6 6 -2 12 -9 12 -15 0 -7 -5 -6 -14 2 -8 6 -13 17 -10 25 3 7 0
16 -6 20 -8 5 -8 11 1 21 9 11 8 18 -2 31 -12 15 -12 16 1 8 21 -13 39 -15 46
-4 3 5 11 9 17 9 7 0 6 -4 -3 -10 -13 -8 -13 -10 1 -10 22 0 43 26 33 41 -4 7
-3 9 3 6 10 -6 38 18 38 32 0 3 3 5 8 4 4 -2 7 2 7 8 0 5 4 8 9 5 4 -3 17 1
27 8 16 12 22 11 46 -5 15 -11 30 -25 34 -31z m-1159 25 c-4 -3 0 -15 10 -25
20 -22 11 -24 -11 -2 -19 18 -21 34 -4 34 6 0 8 -3 5 -7z m79 -10 c-2 -9 -8
-19 -14 -21 -7 -2 -9 -9 -5 -15 3 -7 2 -8 -2 -4 -15 13 -14 36 1 30 8 -3 14
-2 13 3 -2 13 0 24 5 24 2 0 3 -8 2 -17z m140 8 c-3 -5 1 -11 9 -15 8 -3 15
-11 14 -18 0 -10 -2 -10 -6 0 -6 16 -24 16 -20 0 4 -20 -43 -17 -54 3 -6 13
-6 19 1 19 5 0 10 -6 10 -13 0 -7 9 -13 19 -14 13 -1 18 4 16 15 -2 18 2 32
11 32 3 0 3 -4 0 -9z m215 -11 c-8 -4 -11 -15 -8 -25 4 -9 3 -14 -3 -10 -6 3
-10 12 -10 19 0 15 22 38 29 30 3 -3 -1 -9 -8 -14z m-321 -25 c0 -5 -5 -3 -10
5 -5 8 -10 20 -10 25 0 6 5 3 10 -5 5 -8 10 -19 10 -25z m157 3 c-3 -8 -6 -5
-6 6 -1 11 2 17 5 13 3 -3 4 -12 1 -19z m808 -3 c29 -1 48 -24 49 -63 2 -45 7
-54 36 -59 17 -2 16 0 -6 22 -13 13 -24 29 -24 35 0 6 12 -2 26 -19 14 -17 30
-28 36 -25 6 4 6 -1 0 -13 -6 -11 -19 -19 -29 -18 -27 2 -64 37 -53 50 5 6 6
16 2 22 -5 7 -17 3 -37 -13 -26 -22 -28 -26 -15 -37 16 -12 20 -72 7 -94 -4
-7 -15 -9 -25 -6 -9 4 -4 -5 12 -20 16 -15 27 -30 24 -33 -3 -2 -19 9 -36 26
-31 30 -54 42 -32 15 14 -17 4 -39 -16 -31 -7 3 -16 1 -19 -4 -8 -13 -35 -13
-35 0 0 6 7 10 16 10 11 0 14 6 9 23 -6 21 -6 21 14 -3 11 -14 21 -20 21 -13
0 20 -30 43 -48 36 -15 -6 -15 -5 -3 10 7 9 10 17 6 17 -4 0 -2 7 5 15 7 8 17
15 22 15 6 0 5 -7 -2 -15 -17 -20 -9 -27 37 -30 50 -3 58 3 36 28 -17 19 -17
20 0 14 16 -6 16 -4 2 23 -14 27 -21 32 -41 29 -4 0 -10 5 -14 11 -6 9 -13 9
-30 0 -18 -10 -25 -9 -36 2 -12 12 -8 14 28 13 49 -1 78 18 73 46 -2 10 1 21
6 24 5 4 6 11 3 17 -5 7 -2 8 7 2 8 -5 19 -9 24 -9z m-919 -31 c3 -16 2 -26
-1 -23 -3 4 -8 19 -11 35 -3 16 -2 26 1 23 3 -4 8 -19 11 -35z m158 14 c-7
-23 -6 -23 14 -4 12 10 27 16 34 13 9 -4 7 -6 -4 -6 -9 -1 -23 -10 -31 -21
-12 -18 -15 -18 -20 -5 -4 8 -4 22 -1 30 9 24 16 17 8 -7z m-266 -6 c8 -6 2
-9 -18 -9 -20 0 -26 3 -18 9 7 4 15 8 18 8 3 0 11 -4 18 -8z m82 3 c0 -7 -30
-13 -34 -7 -3 4 4 9 15 9 10 1 19 0 19 -2z m130 -5 c0 -5 -4 -10 -10 -10 -5 0
-10 5 -10 10 0 6 5 10 10 10 6 0 10 -4 10 -10z m-63 -6 c-3 -3 -12 -4 -19 -1
-8 3 -5 6 6 6 11 1 17 -2 13 -5z m-101 -32 c4 -24 -11 -38 -22 -21 -4 7 -3 9
4 5 7 -4 10 1 9 14 -1 15 -6 19 -22 14 -16 -4 -17 -3 -5 5 21 15 33 9 36 -17z
m44 3 c5 -14 14 -25 20 -25 6 0 9 4 5 9 -3 5 -1 13 5 16 12 7 36 -10 50 -35 7
-12 3 -16 -16 -18 -13 -1 -24 3 -24 8 0 5 7 7 16 3 14 -5 15 -3 5 15 -7 12
-16 22 -22 22 -6 0 -8 -4 -4 -9 6 -11 -33 -36 -43 -27 -3 3 0 6 8 6 8 0 9 4 3
13 -12 15 -24 47 -17 47 2 0 9 -11 14 -25z m104 2 c7 -11 7 -20 0 -27 -8 -8
-10 -4 -10 11 1 12 -6 24 -14 27 -13 5 -13 3 0 -14 14 -18 14 -18 -2 -5 -10 7
-15 17 -12 23 8 12 25 6 38 -15z m-190 -16 c-2 -3 -12 3 -22 13 -16 17 -16 18
5 5 12 -7 20 -15 17 -18z m223 9 c1 -11 -2 -20 -5 -20 -4 0 -8 9 -9 20 -1 11
2 20 5 20 4 0 8 -9 9 -20z m585 -12 c-8 -8 -4 -20 19 -50 29 -36 57 -43 45
-12 -6 15 31 36 47 27 4 -2 7 1 7 8 0 25 21 -7 25 -38 4 -32 -8 -62 -19 -45
-3 6 -2 14 4 17 8 5 7 11 -1 21 -10 12 -13 12 -24 -3 -15 -21 -56 -27 -67 -11
-4 7 -8 9 -8 3 0 -5 -11 -11 -24 -11 -15 -1 -23 3 -22 12 3 18 16 31 16 15 0
-7 5 -9 11 -5 8 5 6 10 -5 16 -9 5 -13 15 -10 21 5 8 3 8 -7 0 -15 -15 -33
-17 -24 -4 3 5 0 13 -6 17 -7 4 -9 3 -6 -2 3 -6 -3 -11 -15 -11 -15 -2 -18 2
-13 15 5 14 4 15 -7 4 -11 -11 -10 -16 6 -28 17 -12 14 -16 -10 -13 -4 0 -10
-5 -15 -13 -5 -7 -13 -14 -19 -14 -21 -3 -22 -4 -11 -18 9 -10 8 -15 -3 -19
-10 -4 -13 -1 -9 9 3 7 0 14 -6 14 -6 0 -10 -6 -8 -12 1 -7 -4 -12 -10 -10 -7
1 -13 -3 -13 -9 0 -5 -4 -8 -9 -4 -5 3 -13 0 -17 -6 -4 -7 -3 -9 3 -6 5 3 10
0 10 -8 0 -8 -8 -12 -20 -9 -19 3 -19 3 -1 -18 19 -20 19 -21 -6 -14 -14 3
-19 3 -12 0 10 -5 10 -9 0 -22 -8 -10 -9 -13 -1 -9 6 4 14 3 18 -3 7 -11 -50
-8 -62 3 -3 4 -12 -1 -20 -11 -12 -16 -14 -16 -29 3 -14 19 -15 18 -9 -13 4
-26 3 -32 -7 -26 -19 12 -39 14 -33 3 4 -5 -2 -6 -12 -3 -14 4 -15 3 -4 -4 8
-6 9 -12 3 -16 -10 -6 -27 21 -23 37 1 5 -3 6 -9 2 -6 -3 -8 -11 -5 -16 4 -5
2 -9 -3 -9 -13 0 -23 27 -16 45 8 20 17 19 32 -5 8 -13 20 -18 35 -16 12 3 26
5 30 5 4 1 3 11 -4 22 -8 15 -8 19 0 15 9 -6 15 4 13 25 -1 3 12 5 28 5 16 0
29 -2 28 -5 -2 -19 4 -27 22 -28 23 -2 24 1 10 27 -9 16 -8 18 6 13 11 -4 15
-2 11 4 -4 6 0 16 8 23 19 15 11 30 -14 25 -27 -5 -20 25 10 43 19 11 20 11 8
0 -13 -10 -14 -16 -4 -24 9 -9 15 -7 24 8 6 10 16 16 21 13 5 -3 13 3 19 12 5
10 13 14 17 10 5 -5 2 -12 -6 -17 -8 -6 -10 -10 -4 -10 12 0 57 59 57 75 0 13
35 14 55 1 9 -5 20 -2 30 8 9 9 18 16 21 16 3 0 0 -5 -7 -12z m-751 -29 c-5
-13 -10 -19 -10 -12 -1 15 10 45 15 40 3 -2 0 -15 -5 -28z m142 -9 c-10 -11
-19 -20 -21 -20 -1 0 2 9 8 20 6 11 15 20 20 20 6 0 2 -9 -7 -20z m-169 -6 c5
-14 4 -15 -9 -4 -17 14 -19 20 -6 20 5 0 12 -7 15 -16z m960 -9 c3 -8 1 -17
-5 -21 -6 -4 -4 -13 7 -25 17 -19 17 -19 -4 -16 -24 4 -42 17 -23 17 7 0 9 5
4 13 -13 19 -10 55 3 50 7 -2 15 -11 18 -18z m-896 -6 c18 -29 9 -34 -25 -14
-26 15 -26 15 -3 9 22 -6 23 -5 11 10 -7 9 -9 16 -5 16 5 0 15 -9 22 -21z m22
11 c0 -5 -2 -10 -4 -10 -3 0 -8 5 -11 10 -3 6 -1 10 4 10 6 0 11 -4 11 -10z
m672 -5 c7 4 4 -1 -6 -9 -11 -9 -14 -16 -8 -16 7 0 11 -5 10 -12 -2 -7 10 -12
32 -13 19 0 41 -4 48 -8 7 -5 12 -3 12 3 0 6 5 8 10 5 18 -11 -1 -26 -23 -20
-12 4 -17 3 -12 -2 14 -11 18 -43 5 -43 -9 0 -14 16 -13 46 0 11 -21 12 -57 3
-8 -2 -15 2 -16 9 -1 6 -2 16 -3 20 0 4 -11 8 -23 9 -23 2 -23 2 -3 -10 23
-13 27 -38 8 -44 -8 -3 -11 3 -8 16 2 12 0 21 -6 21 -5 0 -9 -5 -9 -11 0 -5
-5 -7 -10 -4 -6 4 -7 11 -4 17 5 7 2 8 -5 4 -9 -6 -8 -13 4 -26 16 -18 16 -19
-4 -17 -12 1 -19 7 -17 13 2 6 -1 17 -7 23 -7 7 -7 11 -2 10 19 -6 76 31 68
44 -4 8 -1 7 10 -1 9 -8 22 -11 29 -7z m42 -82 c11 -27 -13 -42 -30 -19 -8 11
-14 15 -14 10 0 -6 6 -16 13 -23 10 -11 9 -13 -6 -8 -11 4 -16 3 -12 -3 3 -6
4 -10 1 -10 -2 0 -12 -3 -22 -7 -13 -5 -15 -3 -8 8 5 8 9 23 9 33 0 11 8 20
18 22 11 1 21 5 25 8 10 10 20 6 26 -11z m-146 -13 c4 -10 6 -9 13 1 7 12 9
12 9 0 0 -10 3 -11 14 -2 12 10 17 8 25 -8 8 -14 8 -22 0 -27 -7 -4 -7 -10 -1
-16 6 -6 24 -2 51 12 23 11 46 18 50 15 5 -3 16 -2 25 1 13 5 14 9 5 20 -13
16 2 19 18 3 8 -8 4 -18 -13 -37 -16 -17 -21 -28 -13 -32 7 -5 -2 -17 -22 -33
-25 -20 -37 -23 -47 -15 -7 6 -11 17 -8 23 2 7 0 18 -5 26 -6 11 -11 11 -21 1
-16 -16 -29 -16 -25 1 1 6 -5 11 -14 9 -9 -1 -16 5 -16 13 0 9 6 14 14 11 9
-4 11 -1 7 6 -5 7 -3 8 6 3 8 -5 11 -4 7 1 -3 6 -24 10 -46 9 -22 -1 -38 2
-35 6 2 4 -1 11 -8 15 -7 4 -10 3 -5 -1 4 -5 0 -19 -8 -32 -9 -13 -11 -23 -6
-23 17 0 5 -33 -15 -41 -10 -4 -14 -8 -7 -8 7 -1 10 -8 7 -16 -3 -8 -11 -13
-17 -12 -7 1 -13 -5 -13 -13 -1 -8 -2 -21 -3 -28 0 -7 -5 -11 -10 -8 -5 4 -8
14 -7 24 2 9 -2 20 -7 24 -17 10 -18 40 -1 34 8 -3 20 -9 28 -12 15 -6 16 12
2 34 -7 12 -4 12 15 1 22 -11 23 -11 10 4 -7 10 -10 17 -6 17 4 0 2 7 -5 16
-11 12 -11 15 0 12 8 -2 14 3 15 10 1 28 54 39 63 12z m19 -37 c0 -8 -9 -11
-23 -9 -17 3 -21 1 -17 -10 3 -8 1 -14 -4 -14 -12 0 -13 33 -2 40 16 11 46 6
46 -7z m25 -27 c6 4 8 3 4 -4 -9 -15 12 -26 28 -13 18 15 27 2 15 -21 -6 -11
-8 -25 -6 -33 3 -7 0 -18 -6 -24 -14 -14 -47 -15 -47 -1 0 6 9 10 20 10 11 0
20 4 20 10 0 5 -6 7 -14 4 -8 -3 -17 -1 -20 5 -4 6 -13 8 -21 4 -9 -3 -15 1
-15 11 0 9 5 16 11 16 5 0 8 -4 5 -8 -6 -11 51 -8 62 3 4 4 -4 4 -17 0 -15 -5
-21 -4 -17 3 3 6 1 14 -5 18 -8 4 -9 3 -5 -4 11 -18 -10 -14 -30 6 -17 16 -18
16 -11 -1 6 -15 3 -17 -16 -12 -14 4 -18 3 -9 -3 11 -7 11 -11 0 -19 -28 -22
-38 -24 -32 -9 3 9 10 16 15 16 5 0 8 3 7 8 -2 4 6 16 17 28 15 15 25 18 38
12 9 -5 23 -6 29 -2z m-186 -44 c1 -7 3 -15 4 -19 1 -5 2 -11 1 -15 0 -5 4 -8
10 -8 8 0 8 -5 -1 -15 -19 -23 -27 -18 -25 15 1 17 -2 27 -8 23 -7 -4 -8 1 -3
13 7 18 6 18 -12 -1 -17 -17 -17 -23 -6 -40 18 -25 18 -32 0 -32 -8 0 -15 7
-15 16 0 9 -2 28 -4 43 -3 18 0 25 8 21 7 -2 16 1 20 7 8 13 30 8 31 -8z
m-185 -13 c6 -12 17 -18 25 -15 9 3 12 1 9 -4 -3 -6 -2 -10 4 -10 13 0 7 -33
-7 -38 -7 -2 -9 5 -7 17 2 12 -1 21 -7 21 -5 0 -8 -7 -5 -14 4 -10 1 -13 -7
-10 -8 3 -17 0 -21 -6 -6 -9 -9 -9 -15 0 -5 9 -9 9 -14 1 -4 -6 -2 -11 4 -11
6 0 8 -5 4 -11 -4 -8 -9 -7 -15 2 -7 12 -9 11 -9 0 0 -11 -4 -9 -15 5 -14 18
-15 18 -9 0 6 -16 4 -17 -13 -8 -11 6 -24 8 -28 4 -5 -4 -5 -1 0 7 5 10 4 12
-4 7 -6 -4 -9 -11 -6 -16 3 -4 -2 -10 -10 -14 -8 -3 -12 -12 -9 -21 3 -8 10
-13 14 -10 5 3 11 1 15 -5 4 -6 11 -8 16 -5 11 7 11 3 3 -19 -6 -16 -25 -23
-23 -8 6 34 -44 39 -68 6 -7 -10 -13 -13 -13 -8 0 6 3 14 8 20 4 5 -2 0 -12
-11 -13 -13 -17 -15 -14 -4 4 11 -1 15 -16 15 -13 0 -23 -6 -23 -13 0 -9 4
-10 14 -2 16 14 17 -3 1 -19 -9 -9 -7 -11 10 -7 12 2 25 -1 28 -7 4 -6 3 -8
-4 -4 -11 7 -11 -19 1 -30 13 -13 7 -23 -12 -19 -15 3 -18 -2 -15 -30 1 -19
-3 -39 -10 -44 -9 -8 -12 -1 -11 32 1 23 -3 48 -9 56 -9 12 -8 13 4 6 18 -12
40 -15 40 -7 0 3 -10 16 -22 29 -11 12 -22 35 -24 50 -1 16 -3 28 -4 28 -1 0
-3 10 -4 22 -2 18 1 20 14 13 9 -5 22 -16 29 -24 17 -20 31 -12 26 15 -4 21
-4 21 15 4 30 -27 37 -9 9 22 -15 18 -17 22 -4 11 16 -13 24 -14 40 -6 10 6
31 12 45 13 21 1 25 6 25 31 0 16 5 29 12 29 6 0 14 2 17 5 13 14 47 7 57 -11z
m280 -38 c-24 -22 -40 -45 -36 -50 3 -6 1 -11 -4 -11 -6 0 -11 -7 -11 -15 0
-18 -12 -19 -28 -3 -9 9 -15 9 -24 0 -17 -17 -26 -15 -54 15 l-25 27 -28 -35
c-25 -29 -31 -32 -43 -20 -11 12 -10 13 5 8 12 -5 16 -3 11 5 -5 7 -3 8 6 3 8
-5 11 -4 6 3 -4 6 -14 8 -23 5 -14 -5 -13 -1 5 24 12 17 19 32 17 35 -3 2 6
15 19 27 l24 23 13 -24 c7 -12 13 -30 14 -38 0 -8 6 -14 13 -12 14 2 16 -9 4
-23 -4 -6 -5 -9 -3 -8 2 2 11 -3 20 -10 14 -10 14 -10 3 5 -12 15 -9 16 28 13
33 -3 39 -1 30 10 -8 10 -6 15 9 20 15 4 18 12 15 33 -3 20 -2 23 5 12 9 -13
14 -12 38 7 44 33 40 17 -6 -26z m-111 -6 c0 -5 -5 -3 -10 5 -5 8 -10 20 -10
25 0 6 5 3 10 -5 5 -8 10 -19 10 -25z m145 5 c-3 -5 -10 -10 -16 -10 -5 0 -9
5 -9 10 0 6 7 10 16 10 8 0 12 -4 9 -10z m-108 -30 c-1 -14 -7 -18 -22 -15
-11 2 -22 4 -25 4 -4 1 18 15 47 30 1 1 1 -8 0 -19z m-184 -24 c-14 -22 -11
-36 10 -52 l22 -16 -21 6 c-15 5 -24 1 -28 -10 -8 -20 2 -37 16 -28 7 4 8 2 4
-4 -5 -9 -13 -9 -27 -2 -10 6 -19 8 -19 5 0 -3 -1 -8 -2 -12 -2 -5 6 -8 16 -8
11 0 21 -5 23 -11 6 -17 -38 -9 -49 9 -8 16 -12 16 -39 2 -21 -11 -34 -13 -47
-6 -19 12 -18 12 23 15 30 2 32 6 20 37 -4 10 0 16 10 16 9 0 14 -6 11 -13 -7
-20 11 -27 34 -14 21 11 22 37 1 33 -6 -2 -11 2 -11 8 0 6 8 9 18 7 12 -3 19
0 19 9 0 9 -7 11 -21 7 -12 -3 -16 -2 -11 3 6 4 11 15 13 23 1 8 -6 4 -17 -9
-10 -14 -17 -30 -15 -36 3 -7 -2 -12 -11 -12 -18 0 -18 2 -5 28 6 10 8 19 6
19 -7 0 -37 -57 -35 -67 3 -19 -2 -33 -12 -33 -5 0 -7 6 -3 13 4 6 -3 3 -16
-8 -21 -18 -23 -18 -17 -2 5 12 3 16 -5 11 -6 -4 -9 -3 -6 2 11 17 -16 32 -30
17 -10 -10 -10 -13 0 -13 8 -1 5 -7 -6 -15 -11 -8 -15 -15 -9 -15 13 0 11 -15
-7 -53 -10 -20 -16 -24 -22 -15 -7 10 -8 9 -5 -2 2 -8 12 -13 22 -12 17 3 17
2 4 -14 -12 -16 -10 -15 13 1 15 11 28 25 28 30 0 6 5 3 11 -5 8 -11 9 -9 3
10 -6 22 -5 23 9 11 20 -16 5 -54 -17 -45 -7 3 -19 -2 -26 -11 -17 -21 -27
-19 -45 9 -15 23 -11 61 5 51 14 -9 22 15 10 30 -8 9 -8 15 0 20 8 5 7 11 -2
23 -7 9 -8 13 -2 9 6 -3 18 2 26 13 17 19 59 17 55 -2 -4 -21 22 -19 33 2 11
20 8 34 -8 36 -4 0 -15 4 -25 9 -17 7 -17 8 0 20 10 7 25 10 33 6 24 -11 53
-7 79 11 18 13 28 15 38 7 7 -6 10 -16 6 -23z m-33 -67 c0 -9 -31 -21 -38 -14
-3 3 0 5 7 5 7 0 10 4 7 8 -3 5 1 9 9 9 8 0 15 -4 15 -8z m105 1 c3 -6 -1 -7
-9 -4 -18 7 -21 14 -7 14 6 0 13 -4 16 -10z m175 -5 c7 -9 8 -15 2 -15 -5 0
-12 7 -16 15 -3 8 -4 15 -2 15 2 0 9 -7 16 -15z m-420 -39 c0 -15 32 -30 65
-31 14 0 19 -7 19 -24 0 -14 -5 -26 -11 -28 -7 -3 -10 6 -9 21 2 17 -1 23 -10
19 -8 -3 -11 -10 -7 -17 4 -6 9 -19 10 -30 3 -15 1 -17 -11 -7 -8 7 -13 18
-10 25 3 8 -2 16 -11 20 -9 3 -14 10 -11 15 3 5 -1 12 -10 15 -9 3 -12 2 -9
-5 4 -5 -1 -21 -10 -35 -19 -29 -41 -23 -25 7 7 11 16 17 23 12 9 -5 9 -3 1 8
-9 12 -10 24 -5 44 3 12 21 4 21 -9z m220 -16 c0 -5 -4 -10 -10 -10 -5 0 -10
5 -10 10 0 6 5 10 10 10 6 0 10 -4 10 -10z m-204 -147 c-4 -4 -11 -1 -16 7
-16 25 -11 35 7 17 9 -9 13 -20 9 -24z m-76 -3 c0 -5 -2 -10 -4 -10 -3 0 -8 5
-11 10 -3 6 -1 10 4 10 6 0 11 -4 11 -10z"/>
<path d="M3533 2087 c-3 -6 -1 -7 5 -3 7 4 12 2 12 -5 0 -8 4 -8 15 1 8 7 15
9 15 4 0 -14 -14 -29 -30 -32 -22 -5 -41 -23 -35 -33 6 -9 55 10 55 22 0 4 9
11 20 14 19 6 19 8 4 23 -19 18 -52 23 -61 9z m27 -42 c0 -2 -10 -9 -22 -15
-22 -11 -22 -10 -4 4 21 17 26 19 26 11z"/>
<path d="M3242 1978 c-7 -7 -12 -17 -12 -22 0 -6 5 -3 11 7 6 9 15 14 21 11 7
-4 8 -2 4 4 -9 15 -9 15 -24 0z"/>
<path d="M3442 1970 c-7 -11 -8 -20 -3 -20 9 0 24 30 18 36 -1 2 -8 -6 -15
-16z"/>
<path d="M3470 1980 c0 -5 5 -10 11 -10 5 0 7 5 4 10 -3 6 -8 10 -11 10 -2 0
-4 -4 -4 -10z"/>
<path d="M3149 1918 c-9 -17 -8 -18 9 -9 11 6 21 8 24 6 3 -3 5 1 5 8 0 20
-27 16 -38 -5z"/>
<path d="M3025 1830 c-4 -6 1 -7 12 -3 15 5 16 3 6 -8 -16 -16 -17 -29 -2 -29
5 0 8 4 4 9 -3 5 -1 12 5 16 11 7 4 25 -10 25 -5 0 -12 -4 -15 -10z"/>
<path d="M3356 1887 c3 -10 9 -15 12 -12 3 3 0 11 -7 18 -10 9 -11 8 -5 -6z"/>
<path d="M3356 1837 c-17 -13 -17 -14 -1 -30 9 -9 12 -17 6 -17 -6 0 -11 -5
-11 -11 0 -19 44 20 45 40 1 11 -2 18 -7 15 -5 -4 -7 -12 -4 -20 3 -8 2 -14
-3 -14 -16 0 -20 13 -10 31 12 22 9 23 -15 6z"/>
<path d="M2844 1759 c-3 -5 -9 -7 -13 -5 -6 4 -7 -41 -1 -64 0 -3 12 9 26 25
13 17 22 22 18 13 -7 -21 9 -24 25 -4 9 10 7 17 -5 27 -20 16 -42 20 -50 8z
m47 -16 c8 -8 7 -13 -2 -18 -7 -5 -10 -4 -5 3 15 24 -14 20 -32 -4 -16 -22
-19 -24 -17 -8 2 40 30 53 56 27z"/>
<path d="M2625 1651 c-6 -10 11 -24 33 -27 10 -2 8 3 -4 17 -20 22 -21 22 -29
10z"/>
<path d="M2692 1656 c4 -5 2 -16 -4 -25 -10 -13 -10 -14 1 -4 7 6 19 9 26 7 7
-3 16 0 21 7 4 8 3 10 -5 5 -6 -4 -20 -2 -29 5 -9 7 -14 9 -10 5z"/>
<path d="M2985 1732 c-20 -15 -36 -53 -27 -68 7 -12 11 -10 20 11 7 15 10 30
7 35 -3 5 4 7 16 5 17 -4 19 -2 9 10 -14 17 -12 17 -25 7z m-12 -47 c-3 -9 -8
-14 -10 -11 -3 3 -2 9 2 15 9 16 15 13 8 -4z"/>
<path d="M3000 1696 c0 -2 8 -10 18 -17 15 -13 16 -12 3 4 -13 16 -21 21 -21
13z"/>
<path d="M2903 1675 c0 -8 4 -12 9 -9 5 3 6 10 3 15 -9 13 -12 11 -12 -6z"/>
<path d="M2776 1661 c-4 -5 -2 -12 4 -16 5 -3 10 -3 10 1 0 3 6 1 14 -5 11 -9
15 -8 20 4 3 10 2 13 -5 10 -5 -4 -16 -2 -24 5 -8 7 -15 7 -19 1z"/>
<path d="M3538 5999 c-16 -34 -28 -65 -28 -70 0 -5 -6 -9 -12 -10 -7 0 -22 -2
-33 -4 -11 -2 -41 -6 -67 -10 -27 -3 -48 -8 -48 -10 0 -3 25 -28 55 -57 l55
-53 -10 -43 c-6 -23 -13 -58 -16 -77 l-5 -34 70 39 71 38 71 -38 70 -39 -5 27
c-4 15 -8 38 -11 52 -3 14 -7 37 -10 51 -5 22 3 35 50 80 l56 54 -27 7 c-15 4
-47 8 -71 10 -23 1 -46 4 -51 7 -4 3 -22 36 -40 74 -17 37 -33 67 -34 67 -2 0
-15 -28 -30 -61z"/>
<path d="M3463 5313 c-11 -4 -11 -31 1 -218 4 -53 -2 -65 -30 -65 -19 0 -24 5
-25 28 0 15 -2 36 -4 47 -4 20 -13 107 -14 134 -1 11 -4 11 -16 1 -11 -9 -14
-24 -11 -49 20 -147 19 -167 -7 -195 l-25 -26 -6 32 c-12 62 -13 73 -21 122
-6 43 -8 47 -21 34 -13 -13 -13 -26 1 -107 23 -132 25 -198 8 -212 -18 -15
-18 -15 -32 56 -7 33 -14 69 -17 80 -3 11 -9 42 -14 69 -12 58 -14 61 -29 42
-9 -11 -7 -35 9 -107 12 -52 23 -105 26 -119 2 -14 7 -31 9 -38 3 -8 -4 -25
-14 -39 l-20 -24 -10 38 c-6 21 -21 80 -35 132 -28 102 -31 110 -47 94 -10
-10 -6 -27 61 -276 15 -58 18 -82 10 -97 -6 -11 -14 -19 -18 -18 -4 1 -17 -3
-30 -10 -25 -14 -26 -12 -58 88 -8 25 -19 54 -24 65 -5 11 -14 37 -21 58 -13
37 -23 45 -34 28 -3 -6 15 -65 40 -132 25 -68 45 -128 45 -135 0 -10 -21 -24
-35 -24 -1 0 -10 19 -20 43 -57 143 -76 180 -88 168 -8 -8 -5 -25 12 -63 62
-145 63 -148 41 -148 -15 0 -29 19 -56 73 -43 86 -43 85 -54 67 -5 -9 2 -34
22 -73 26 -52 28 -61 15 -74 -13 -13 -18 -9 -42 36 -16 28 -32 51 -36 51 -21
0 -17 -24 12 -75 18 -31 33 -67 34 -78 2 -12 6 -35 10 -52 4 -19 -11 -1 -43
53 -28 46 -53 83 -56 83 -28 1 -18 -24 58 -146 95 -154 103 -184 56 -202 -29
-11 -30 -10 -86 63 -39 51 -60 71 -65 62 -7 -10 26 -68 51 -88 23 -19 51 -73
45 -88 -5 -14 -16 -6 -60 43 -41 45 -54 55 -54 40 0 -11 19 -42 42 -68 24 -26
48 -62 55 -80 10 -28 5 -25 -48 31 -47 49 -62 59 -67 46 -4 -11 19 -41 78
-100 53 -53 80 -87 74 -93 -6 -6 -38 18 -85 65 -56 55 -76 69 -79 57 -2 -11
24 -43 72 -90 42 -40 81 -83 88 -95 l12 -23 -24 20 c-13 11 -45 40 -71 64 -70
65 -85 74 -91 57 -4 -9 23 -39 71 -79 42 -36 91 -78 107 -92 17 -15 41 -36 55
-48 14 -12 71 -62 128 -111 87 -75 105 -86 118 -76 8 7 13 19 10 26 -3 7 0 11
7 9 7 -2 24 6 39 18 l27 22 -94 125 c-91 121 -100 144 -52 134 23 -4 17 4 103
-137 36 -59 70 -105 75 -101 5 3 6 10 3 16 -4 6 -2 8 4 4 8 -5 48 6 70 20 2 1
-13 42 -33 90 -54 129 -52 121 -32 105 9 -7 17 -17 17 -21 0 -25 64 -170 71
-163 5 5 -4 44 -21 92 -26 71 -28 82 -14 79 17 -3 31 -36 54 -125 10 -40 11
-41 40 -33 37 11 33 10 70 10 28 0 30 2 30 41 0 25 4 38 10 34 6 -4 9 -20 6
-36 -5 -35 -5 -35 63 -43 29 -4 57 -9 61 -11 5 -3 13 18 20 45 11 48 25 68 37
56 3 -3 -2 -23 -11 -46 -17 -44 -21 -70 -8 -70 4 0 16 23 26 50 10 28 22 50
26 50 5 0 -1 -23 -13 -51 -19 -43 -19 -51 -7 -59 8 -5 19 -8 24 -7 6 2 18 -5
29 -16 19 -19 20 -18 63 49 24 38 44 72 44 76 0 4 13 6 29 5 18 -1 26 -6 22
-12 -5 -5 -32 -41 -61 -78 -34 -44 -49 -72 -43 -78 6 -6 36 25 84 88 40 54
121 159 179 233 189 242 231 300 228 318 -2 11 -30 -18 -86 -90 -46 -60 -87
-108 -92 -108 -4 0 -10 8 -14 18 -3 9 -11 24 -17 33 -11 14 -5 29 32 90 24 41
56 87 70 104 15 16 30 41 34 55 4 14 18 41 31 60 24 35 32 70 15 70 -5 0 -20
-17 -32 -37 -12 -21 -24 -40 -25 -42 -2 -2 -10 1 -18 8 -12 10 -9 20 15 65 24
44 27 55 16 65 -11 9 -18 3 -32 -29 -23 -52 -39 -65 -54 -46 -9 11 -6 26 16
70 20 41 24 59 16 67 -8 8 -19 -4 -40 -47 -52 -104 -79 -74 -32 36 27 64 30
90 11 90 -4 0 -18 -27 -31 -60 -28 -69 -30 -71 -59 -63 -21 5 -21 6 13 99 21
58 30 96 24 100 -14 9 -16 6 -47 -80 -26 -71 -42 -88 -42 -45 0 10 -10 26 -23
36 -22 17 -23 22 -16 93 4 41 13 91 18 109 8 26 8 37 -1 42 -17 10 -28 2 -28
-22 0 -24 -5 -24 -31 2 -15 15 -20 30 -17 50 6 40 -19 61 -28 25 -6 -27 -19
-32 -42 -17 -9 5 -13 23 -11 50 4 57 -17 77 -27 25 -5 -22 -8 -42 -9 -46 0
-12 -19 -25 -43 -33 l-23 -7 6 79 c4 43 9 81 12 86 2 4 -3 14 -11 23 -9 8 -16
12 -17 7 0 -4 -3 -21 -5 -38 -2 -16 -6 -49 -10 -72 -5 -39 -8 -43 -34 -43 -28
0 -28 0 -24 58 7 133 7 153 -4 164 -17 17 -21 -2 -24 -111 l-4 -95 -56 3 c-31
1 -66 -3 -77 -9 -20 -10 -21 -8 -22 62 -1 82 -5 148 -11 152 -1 2 -8 1 -15 -1z
m145 -299 c30 -14 31 -18 27 -62 -2 -26 -7 -103 -10 -172 -3 -69 -8 -156 -10
-195 -2 -38 -7 -131 -11 -205 -3 -74 -8 -155 -9 -180 -2 -25 -4 -73 -5 -107
-2 -35 -8 -71 -15 -80 -23 -32 -21 -47 -40 317 -3 52 -7 133 -10 180 -3 47 -7
135 -10 195 -3 61 -7 140 -10 176 -4 51 -1 70 10 79 8 7 15 17 15 23 0 12 30
47 40 47 4 0 21 -7 38 -16z m107 -84 c-2 -8 -7 -44 -10 -80 -3 -36 -10 -101
-15 -145 -5 -44 -12 -107 -15 -140 -3 -33 -7 -78 -10 -100 -2 -22 -7 -71 -10
-110 -4 -38 -8 -81 -10 -95 -8 -61 -16 -129 -20 -173 -7 -91 -15 -61 -10 34 7
117 12 203 20 344 3 61 7 133 10 160 6 84 18 309 17 329 -1 11 4 28 10 39 10
19 12 19 29 -14 10 -19 16 -41 14 -49z m153 33 c17 -16 7 -75 -82 -493 -2 -8
-7 -33 -11 -55 -5 -22 -9 -44 -10 -50 -2 -5 -19 -86 -39 -179 -20 -93 -39
-172 -42 -175 -4 -3 -4 8 0 24 3 17 15 86 26 155 12 69 23 139 26 155 3 17 7
41 9 55 9 60 47 288 52 315 3 17 7 39 8 50 24 159 35 215 42 215 2 0 12 -7 21
-17z m-62 -1 c-3 -4 -7 -26 -10 -48 -3 -21 -18 -122 -35 -224 -16 -102 -32
-201 -35 -220 -3 -19 -15 -91 -26 -160 -24 -144 -27 -159 -35 -220 -4 -25 -11
-52 -16 -60 -8 -12 -9 -11 -5 5 3 11 8 49 11 85 3 36 7 76 9 90 2 14 7 56 11
94 4 38 8 79 10 90 2 12 6 53 10 91 3 39 8 84 10 100 3 17 7 55 10 85 3 30 7
69 9 85 5 37 20 167 20 178 1 5 15 15 31 22 38 17 37 17 31 7z m-330 -50 c1
-38 14 -273 19 -352 5 -74 13 -218 21 -365 3 -54 7 -102 10 -106 2 -4 0 -10
-6 -14 -6 -4 -10 6 -11 22 0 15 -2 36 -4 46 -2 9 -6 52 -10 95 -3 42 -8 84
-10 92 -2 8 -6 47 -10 85 -7 76 -13 138 -20 200 -2 22 -7 67 -10 100 -8 76
-13 128 -20 186 -5 45 -5 46 22 42 22 -4 28 -10 29 -31z m431 -92 c-9 -23 -8
-38 0 -61 11 -27 8 -49 -22 -158 -18 -69 -48 -180 -65 -246 -18 -66 -43 -163
-57 -215 -13 -52 -29 -102 -34 -110 -10 -16 -9 -12 16 100 7 36 16 76 19 90 2
14 9 45 15 70 5 25 12 56 15 70 2 14 27 130 55 259 28 128 51 236 51 238 0 2
4 2 9 -1 5 -4 5 -19 -2 -36z m-493 -82 c4 -35 9 -83 12 -108 2 -25 7 -63 9
-85 3 -22 7 -62 10 -90 3 -27 7 -63 10 -80 2 -16 7 -61 11 -100 3 -38 8 -81 9
-95 21 -200 6 -162 -30 75 -29 193 -29 189 -49 310 -9 50 -18 108 -21 130 -4
22 -9 48 -11 58 -5 16 19 46 37 47 4 0 9 -28 13 -62z m-30 -288 c26 -157 49
-298 52 -315 2 -16 7 -43 10 -60 4 -16 3 -27 -1 -23 -4 4 -14 38 -22 75 -8 37
-28 131 -44 208 -76 358 -81 385 -68 401 7 8 15 11 19 7 4 -4 29 -136 54 -293z
m624 168 c6 -6 -9 -58 -39 -141 -26 -73 -73 -204 -105 -292 -31 -88 -60 -163
-63 -167 -3 -4 -12 -3 -20 1 -15 10 -21 -14 90 401 33 124 65 243 71 265 l10
39 23 -48 c13 -27 28 -53 33 -58z m54 -50 c3 -43 -2 -59 -46 -161 -24 -56 -72
-168 -106 -250 -56 -133 -80 -177 -80 -148 0 6 21 65 46 133 65 176 134 366
134 371 0 3 7 21 15 41 17 41 34 47 37 14z m-733 -144 c24 -106 53 -240 77
-358 2 -11 0 -15 -5 -10 -4 5 -24 72 -44 149 -21 77 -48 182 -62 234 -20 72
-23 96 -14 107 7 8 13 13 15 11 2 -2 17 -62 33 -133z m-121 105 c24 -8 34 -19
41 -47 6 -21 24 -89 41 -152 49 -181 70 -264 65 -268 -7 -7 -43 18 -50 35 -4
10 -34 92 -66 183 -33 91 -67 182 -75 203 -21 56 -12 66 44 46z m-4 -233 c70
-189 83 -237 57 -210 -5 5 -26 50 -46 99 -20 50 -43 105 -52 124 -8 19 -29 66
-45 105 -27 66 -28 72 -12 83 10 7 18 12 20 10 1 -1 36 -96 78 -211z m911 204
c9 -14 -13 -50 -30 -50 -18 0 -18 1 -5 34 10 27 24 33 35 16z m51 -55 c-24
-36 -40 -20 -25 24 10 29 13 31 27 17 14 -13 13 -18 -2 -41z m-1080 -161 c53
-107 93 -198 90 -201 -8 -8 -5 -13 -78 122 -54 98 -82 160 -93 205 -1 3 -5 13
-8 23 -13 33 -16 47 -11 47 2 0 48 -88 100 -196z m-16 170 c6 -14 22 -51 36
-82 48 -105 124 -295 120 -299 -5 -5 -196 384 -196 398 0 20 31 7 40 -17z
m1093 -141 c-9 -16 -18 -30 -20 -32 -2 -2 -3 10 -3 27 0 25 4 32 20 32 20 0
20 -1 3 -27z m-194 -135 c-35 -73 -70 -142 -77 -153 l-14 -20 6 20 c4 11 35
84 68 163 41 94 65 139 71 133 7 -7 -11 -55 -54 -143z m77 38 c-8 -18 -28 -49
-45 -69 -16 -21 -38 -58 -48 -82 -10 -25 -21 -45 -25 -45 -5 0 22 61 60 136
45 92 68 128 70 114 2 -12 -3 -36 -12 -54z m-946 -70 c24 -43 37 -77 30 -74
-18 6 -102 147 -94 159 8 14 14 7 64 -85z m975 45 c3 -5 1 -12 -5 -16 -5 -3
-10 1 -10 9 0 18 6 21 15 7z m-999 -122 c-40 -23 -53 -19 -90 27 -20 26 -36
50 -36 54 0 3 15 13 33 21 l32 14 36 -55 c23 -35 32 -57 25 -61z m1041 -16
c-15 -21 -38 -51 -51 -68 l-24 -30 -12 26 c-10 22 -9 33 9 67 18 35 26 41 58
44 21 2 40 2 42 1 2 -2 -8 -20 -22 -40z m-1217 7 c0 -5 -2 -10 -4 -10 -3 0 -8
5 -11 10 -3 6 -1 10 4 10 6 0 11 -4 11 -10z m630 -26 c0 -22 -16 -17 -17 6 -1
11 2 18 8 15 5 -4 9 -13 9 -21z m-525 -24 c-6 -9 -9 -9 -16 1 -10 17 0 34 13
21 6 -6 7 -16 3 -22z m193 -42 c6 -13 27 -51 46 -85 20 -35 34 -63 32 -63 -3
0 -21 28 -42 63 -21 34 -44 72 -52 85 -8 12 -10 22 -5 22 5 0 15 -10 21 -22z
m78 -70 c25 -51 42 -88 36 -83 -11 11 -92 160 -92 169 0 19 15 -4 56 -86z m14
48 c0 -12 -5 -7 -19 24 -11 24 -11 24 3 6 9 -11 16 -24 16 -30z m-135 -111
c108 -142 103 -144 -15 -5 -30 36 -61 71 -67 78 -7 7 -13 21 -13 30 0 21 5 16
95 -103z m155 60 c0 -5 -5 -3 -10 5 -5 8 -10 20 -10 25 0 6 5 3 10 -5 5 -8 10
-19 10 -25z m549 -22 c-37 -67 -39 -69 -39 -57 0 12 59 114 66 114 3 0 -9 -26
-27 -57z m-770 -21 c47 -59 48 -62 10 -21 -67 70 -83 89 -73 88 5 0 33 -30 63
-67z m801 9 c-28 -56 -35 -52 -8 4 12 24 23 43 26 41 2 -2 -6 -22 -18 -45z
m-839 -73 c52 -51 82 -81 65 -67 -17 14 -46 39 -65 55 -66 56 -136 125 -116
115 11 -6 63 -52 116 -103z m32 21 c81 -85 102 -109 95 -109 -2 0 -48 45 -103
100 -54 55 -94 100 -88 100 5 0 49 -41 96 -91z"/>
<path d="M4240 4118 c-74 -88 -149 -177 -166 -197 -103 -118 -174 -207 -174
-217 0 -7 6 -14 14 -17 10 -4 83 65 214 201 257 267 281 293 275 310 -4 8 -42
-25 -107 -95 -120 -127 -282 -292 -245 -249 14 17 40 47 56 66 258 297 307
362 276 359 -5 0 -69 -72 -143 -161z"/>
<path d="M4344 4076 c-27 -28 -133 -131 -234 -229 -171 -166 -182 -178 -164
-191 14 -11 23 -12 34 -3 23 18 134 111 140 118 4 5 299 258 308 265 2 1 2 10
0 20 -2 14 -34 -9 -133 -96 -72 -63 -135 -119 -141 -125 -23 -21 -90 -79 -115
-99 -31 -25 148 150 284 276 90 86 115 119 85 117 -7 -1 -36 -24 -64 -53z"/>
<path d="M2700 3951 c0 -12 43 -51 117 -107 64 -49 125 -93 135 -98 10 -5 18
-13 18 -19 0 -5 -9 -3 -19 4 -193 137 -241 167 -241 150 0 -11 46 -48 134
-107 74 -49 135 -92 135 -97 1 -4 -16 3 -36 16 -149 94 -225 138 -229 134 -14
-14 24 -42 181 -136 96 -58 175 -106 175 -108 0 -4 -58 27 -239 129 -57 32
-106 56 -109 54 -13 -14 15 -36 104 -84 55 -28 140 -74 191 -102 53 -29 94
-46 98 -40 3 6 3 10 -2 10 -4 0 -3 4 2 8 6 4 18 19 27 33 l17 27 -229 175
c-165 126 -230 171 -230 158z m301 -248 c13 -16 12 -17 -3 -4 -10 7 -18 15
-18 17 0 8 8 3 21 -13z m34 -61 c-3 -3 -11 0 -18 7 -9 10 -8 11 6 5 10 -3 15
-9 12 -12z"/>
<path d="M4218 3802 c-119 -92 -222 -172 -228 -178 -8 -8 -3 -22 16 -52 l27
-41 41 23 c23 13 70 39 106 58 36 20 104 57 153 83 48 26 87 53 87 61 0 8 -2
14 -5 14 -3 0 -53 -27 -112 -60 -58 -33 -108 -60 -112 -60 -3 0 -24 -12 -44
-26 -21 -14 -40 -24 -42 -22 -3 2 69 48 159 103 106 64 162 103 159 112 -4 9
-17 6 -52 -14 -25 -14 -50 -30 -56 -33 -5 -4 -48 -31 -95 -59 -110 -67 -75
-38 84 69 79 54 125 91 126 103 0 13 -26 0 -107 -55 -60 -40 -110 -75 -113
-78 -3 -3 -21 -16 -40 -29 l-35 -23 30 27 c17 14 85 67 153 118 76 57 122 98
122 109 0 10 -1 18 -2 17 -2 0 -101 -75 -220 -167z"/>
<path d="M2746 3666 c3 -8 41 -32 85 -52 43 -20 77 -39 75 -41 -2 -2 -32 10
-67 27 -35 16 -70 30 -76 30 -27 0 -11 -22 30 -40 30 -14 36 -20 20 -20 -12 0
-25 5 -28 10 -10 16 -27 11 -23 -7 2 -9 19 -22 38 -30 l35 -13 -32 6 c-25 4
-33 2 -33 -9 0 -10 37 -24 123 -46 67 -18 134 -36 150 -41 25 -8 28 -6 42 27
9 20 12 40 8 44 -11 10 -302 154 -330 163 -18 6 -22 4 -17 -8z m134 -146 c18
-12 2 -12 -25 0 -13 6 -15 9 -5 9 8 0 22 -4 30 -9z"/>
<path d="M4215 3600 c-88 -44 -164 -81 -168 -83 -5 -1 -4 -21 2 -44 l11 -41
148 39 c81 21 150 39 155 39 4 0 7 7 7 15 0 18 -3 18 -64 0 -27 -8 -51 -13
-53 -11 -2 2 24 12 58 22 43 13 63 24 65 37 3 21 5 20 -40 2 -20 -8 -36 -13
-36 -10 0 3 18 12 39 21 21 8 41 24 44 33 4 16 -4 15 -61 -11 -93 -42 -114
-50 -107 -38 3 6 10 10 16 10 22 0 159 74 159 87 0 7 -3 13 -7 12 -5 0 -80
-36 -168 -79z"/>
<path d="M5307 2789 c-10 -6 -14 -15 -11 -21 5 -7 1 -9 -9 -5 -10 3 -17 2 -17
-4 0 -6 8 -9 18 -7 9 2 16 9 15 15 -2 7 6 11 17 10 11 -1 20 -7 20 -14 0 -7 5
-13 10 -13 7 0 7 6 0 19 -14 27 -23 31 -43 20z"/>
<path d="M5356 2787 c3 -10 9 -15 12 -12 3 3 0 11 -7 18 -10 9 -11 8 -5 -6z"/>
<path d="M5115 2770 c-26 -28 -15 -31 12 -3 12 13 19 23 14 23 -4 0 -16 -9
-26 -20z"/>
<path d="M5165 2783 c15 -12 12 -37 -5 -45 -13 -6 -13 -7 1 -7 9 -1 23 7 30
16 11 13 11 15 1 9 -9 -6 -12 -3 -10 9 2 10 -4 20 -12 22 -9 3 -11 1 -5 -4z"/>
<path d="M5246 2774 c-5 -14 -4 -15 9 -4 17 14 19 20 6 20 -5 0 -12 -7 -15
-16z"/>
<path d="M5208 2773 c6 -2 10 -9 7 -14 -3 -4 6 -11 20 -15 13 -3 23 -10 20
-14 -9 -15 14 -22 32 -10 15 9 14 10 -6 4 -17 -4 -21 -3 -16 6 4 7 -1 13 -13
17 -11 3 -23 11 -26 19 -3 8 -11 14 -18 13 -10 0 -10 -2 0 -6z"/>
<path d="M5140 2760 c0 -5 5 -10 10 -10 6 0 10 5 10 10 0 6 -4 10 -10 10 -5 0
-10 -4 -10 -10z"/>
<path d="M5415 2751 c-3 -5 0 -13 6 -17 8 -4 9 -3 5 4 -10 16 7 15 23 0 10
-11 11 -10 6 5 -8 18 -30 23 -40 8z"/>
<path d="M5116 2733 c-4 -13 -12 -23 -17 -23 -5 0 -9 -6 -9 -12 1 -7 10 -2 20
11 13 15 20 18 20 9 0 -8 -6 -21 -12 -28 -7 -8 -4 -7 6 2 16 14 17 22 9 40
l-10 23 -7 -22z"/>
<path d="M5310 2740 c0 -5 5 -10 10 -10 6 0 10 5 10 10 0 6 -4 10 -10 10 -5 0
-10 -4 -10 -10z"/>
<path d="M5390 2745 c0 -5 5 -17 10 -25 5 -8 10 -10 10 -5 0 6 -5 17 -10 25
-5 8 -10 11 -10 5z"/>
<path d="M5476 2733 c-6 -14 -5 -15 5 -6 7 7 10 15 7 18 -3 3 -9 -2 -12 -12z"/>
<path d="M5195 2730 c-3 -5 -1 -10 4 -10 6 0 11 5 11 10 0 6 -2 10 -4 10 -3 0
-8 -4 -11 -10z"/>
<path d="M5231 2713 c7 -12 15 -20 18 -17 3 2 -3 12 -13 22 -17 16 -18 16 -5
-5z"/>
<path d="M5348 2723 c6 -2 18 -2 25 0 6 3 1 5 -13 5 -14 0 -19 -2 -12 -5z"/>
<path d="M5510 2722 c0 -5 7 -9 15 -9 8 0 12 4 9 9 -3 4 -9 8 -15 8 -5 0 -9
-4 -9 -8z"/>
<path d="M5179 2707 c-6 -20 -5 -37 3 -37 6 0 8 6 5 14 -4 10 0 14 14 13 11
-1 19 -9 19 -20 0 -11 -4 -15 -12 -11 -7 5 -8 3 -3 -5 10 -17 28 1 23 24 -2
14 -45 33 -49 22z"/>
<path d="M5436 2701 c-3 -4 3 -16 13 -25 14 -13 18 -14 18 -2 0 8 -3 15 -6 14
-19 -2 -24 4 -11 12 9 6 10 10 3 10 -6 0 -14 -4 -17 -9z"/>
<path d="M5470 2706 c0 -2 7 -7 16 -10 8 -3 12 -2 9 4 -6 10 -25 14 -25 6z"/>
<path d="M5066 2683 c-6 -14 -5 -15 5 -6 7 7 10 15 7 18 -3 3 -9 -2 -12 -12z"/>
<path d="M5395 2690 c-4 -6 -10 -8 -15 -5 -5 3 -11 1 -14 -4 -8 -12 14 -8 39
7 11 6 15 12 8 12 -6 0 -15 -5 -18 -10z"/>
<path d="M5135 2679 c-9 -14 0 -22 28 -26 17 -2 19 -1 7 6 -8 5 -18 7 -22 5
-4 -3 -8 -1 -8 5 0 5 6 12 13 14 9 4 9 6 0 6 -6 1 -15 -4 -18 -10z"/>
<path d="M5260 2678 c0 -4 7 -8 15 -8 8 0 15 4 15 8 0 5 -7 9 -15 9 -8 0 -15
-4 -15 -9z"/>
<path d="M5330 2680 c0 -5 5 -10 10 -10 6 0 10 5 10 10 0 6 -4 10 -10 10 -5 0
-10 -4 -10 -10z"/>
<path d="M5551 2667 c-13 -21 -12 -21 5 -5 10 10 16 20 13 22 -3 3 -11 -5 -18
-17z"/>
<path d="M5076 2665 c-11 -8 -14 -15 -7 -15 7 0 9 -4 6 -10 -4 -6 1 -7 11 -3
12 4 14 8 6 11 -10 3 -10 7 -1 18 15 18 9 17 -15 -1z"/>
<path d="M5114 2646 c3 -16 8 -31 11 -35 3 -3 4 7 1 23 -3 16 -8 31 -11 35 -3
3 -4 -7 -1 -23z"/>
<path d="M5228 2648 c-10 -10 -14 -18 -9 -18 10 0 36 29 30 34 -2 1 -12 -6
-21 -16z"/>
<path d="M5399 2668 c-5 -14 -4 -60 2 -70 4 -7 7 3 5 22 -2 19 2 38 8 42 8 5
7 8 -1 8 -7 0 -13 -1 -14 -2z"/>
<path d="M5433 2663 c4 -3 1 -13 -6 -22 -11 -14 -10 -14 5 -2 16 12 16 31 1
31 -4 0 -3 -3 0 -7z"/>
<path d="M5616 2647 c3 -10 9 -15 12 -12 3 3 0 11 -7 18 -10 9 -11 8 -5 -6z"/>
<path d="M5180 2640 c-9 -6 -10 -10 -3 -10 6 0 15 5 18 10 8 12 4 12 -15 0z"/>
<path d="M5473 2633 c0 -11 7 -20 14 -20 10 0 10 4 1 16 -7 9 -13 18 -15 20
-1 2 -1 -5 0 -16z"/>
<path d="M5267 2626 c-4 -10 -1 -13 8 -9 8 3 12 9 9 14 -7 12 -11 11 -17 -5z"/>
<path d="M5350 2636 c0 -2 8 -10 18 -17 15 -13 16 -12 3 4 -13 16 -21 21 -21
13z"/>
<path d="M5094 2622 c4 -7 2 -12 -3 -12 -6 0 -11 -4 -11 -10 0 -15 17 -12 23
5 4 8 1 17 -5 21 -7 4 -8 3 -4 -4z"/>
<path d="M5198 2613 c7 -3 16 -2 19 1 4 3 -2 6 -13 5 -11 0 -14 -3 -6 -6z"/>
<path d="M5242 2604 c10 -10 20 -16 22 -13 3 3 -5 11 -17 18 -21 13 -21 12 -5
-5z"/>
<path d="M5290 2605 c-11 -13 -11 -18 0 -28 10 -9 11 -9 6 1 -4 7 -2 19 4 27
7 8 10 15 7 15 -2 0 -10 -7 -17 -15z"/>
<path d="M5034 2602 c4 -7 1 -12 -6 -12 -8 0 -5 -5 5 -11 14 -8 22 -8 30 1 9
8 7 9 -7 4 -13 -5 -17 -4 -12 4 3 6 1 14 -5 18 -8 4 -9 3 -5 -4z"/>
<path d="M5135 2599 c-4 -6 -5 -12 -2 -15 2 -3 7 2 10 11 7 17 1 20 -8 4z"/>
<path d="M5446 2602 c-3 -5 1 -9 9 -9 8 0 12 4 9 9 -3 4 -7 8 -9 8 -2 0 -6 -4
-9 -8z"/>
<path d="M5190 2589 c0 -6 -5 -7 -12 -3 -6 4 -8 3 -5 -4 4 -5 16 -8 27 -5 24
6 25 9 5 17 -8 3 -15 1 -15 -5z"/>
<path d="M5150 2583 c0 -6 8 -17 18 -24 16 -13 16 -13 2 6 -8 11 -16 22 -17
24 -2 2 -3 0 -3 -6z"/>
<path d="M5320 2580 c-9 -6 -10 -10 -3 -10 6 0 15 5 18 10 8 12 4 12 -15 0z"/>
<path d="M5395 2571 c-3 -5 -2 -12 3 -15 5 -3 9 1 9 9 0 17 -3 19 -12 6z"/>
<path d="M5010 2549 c6 -11 17 -15 30 -12 11 3 20 8 20 10 0 3 -9 3 -21 0 -14
-4 -19 -2 -16 7 3 7 -1 13 -8 13 -10 0 -11 -5 -5 -18z"/>
<path d="M5070 2560 c0 -5 5 -10 11 -10 5 0 7 5 4 10 -3 6 -8 10 -11 10 -2 0
-4 -4 -4 -10z"/>
<path d="M5104 2558 c-4 -5 -3 -12 0 -15 3 -4 6 -1 6 6 0 7 4 10 9 6 5 -3 12
-2 15 3 3 5 -2 9 -10 9 -8 0 -17 -4 -20 -9z"/>
<path d="M5155 2540 c6 -9 4 -12 -7 -8 -8 4 -15 1 -15 -6 0 -17 25 -16 31 0 3
8 0 16 -6 20 -7 5 -8 2 -3 -6z"/>
<path d="M5314 2533 c16 -20 36 -23 36 -6 0 4 -3 3 -7 0 -3 -4 -16 1 -27 10
-21 18 -21 18 -2 -4z"/>
<path d="M4952 2520 c0 -14 2 -19 5 -12 2 6 2 18 0 25 -3 6 -5 1 -5 -13z"/>
<path d="M5044 2519 c-3 -6 -1 -16 5 -22 9 -9 10 -7 5 7 -5 13 -4 17 4 12 7
-4 12 -2 12 3 0 14 -17 14 -26 0z"/>
<path d="M5176 2513 c-6 -14 -5 -15 5 -6 7 7 10 15 7 18 -3 3 -9 -2 -12 -12z"/>
<path d="M5280 2526 c0 -2 8 -10 18 -17 15 -13 16 -12 3 4 -13 16 -21 21 -21
13z"/>
<path d="M4990 2500 c0 -5 5 -10 10 -10 6 0 10 5 10 10 0 6 -4 10 -10 10 -5 0
-10 -4 -10 -10z"/>
<path d="M5199 2493 c-13 -16 -12 -17 4 -4 9 7 17 15 17 17 0 8 -8 3 -21 -13z"/>
<path d="M5095 2490 c-4 -6 -10 -8 -15 -5 -5 3 -12 0 -16 -7 -4 -7 -4 -10 1
-6 4 4 15 3 24 -2 13 -6 17 -4 17 11 0 22 -2 23 -11 9z"/>
<path d="M5133 2483 c1 -17 4 -19 14 -11 15 12 18 22 4 14 -5 -4 -11 0 -14 6
-3 7 -4 3 -4 -9z"/>
<path d="M4930 2480 c0 -5 5 -10 10 -10 6 0 10 5 10 10 0 6 -4 10 -10 10 -5 0
-10 -4 -10 -10z"/>
<path d="M4960 2470 c-6 -11 -8 -20 -6 -20 3 0 10 9 16 20 6 11 8 20 6 20 -3
0 -10 -9 -16 -20z"/>
<path d="M5233 2473 c0 -11 7 -20 14 -20 10 0 10 4 1 16 -7 9 -13 18 -15 20
-1 2 -1 -5 0 -16z"/>
<path d="M5160 2454 c-11 -12 -10 -18 5 -32 18 -16 18 -16 6 1 -11 14 -11 20
-1 32 7 8 10 15 7 15 -2 0 -10 -7 -17 -16z"/>
<path d="M4870 2445 c-7 -9 -8 -15 -2 -15 5 0 12 7 16 15 3 8 4 15 2 15 -2 0
-9 -7 -16 -15z"/>
<path d="M4997 2453 c-10 -9 -9 -23 1 -23 5 0 9 7 9 15 0 17 -1 18 -10 8z"/>
<path d="M4800 2435 c-14 -8 -20 -14 -14 -15 5 0 19 7 30 15 24 18 16 19 -16
0z"/>
<path d="M4895 2440 c-3 -6 1 -7 9 -4 18 7 21 14 7 14 -6 0 -13 -4 -16 -10z"/>
<path d="M5110 2436 c7 -7 13 -7 20 0 6 6 3 10 -10 10 -13 0 -16 -4 -10 -10z"/>
<path d="M5193 2434 c0 -9 4 -11 12 -4 7 5 14 9 16 7 2 -1 3 0 1 2 -7 11 -29
7 -29 -5z"/>
<path d="M4935 2430 c-3 -6 1 -7 9 -4 18 7 21 14 7 14 -6 0 -13 -4 -16 -10z"/>
<path d="M4830 2421 c0 -5 8 -15 18 -22 15 -12 16 -12 5 2 -7 9 -10 19 -6 22
3 4 1 7 -5 7 -7 0 -12 -4 -12 -9z"/>
<path d="M4913 2411 c0 -11 5 -18 9 -15 4 3 5 11 1 19 -7 21 -12 19 -10 -4z"/>
<path d="M4750 2409 c0 -5 5 -7 10 -4 6 3 10 8 10 11 0 2 -4 4 -10 4 -5 0 -10
-5 -10 -11z"/>
<path d="M5034 2406 c1 -8 5 -18 8 -22 4 -3 5 1 4 10 -1 8 -5 18 -8 22 -4 3
-5 -1 -4 -10z"/>
<path d="M5273 2405 c0 -8 4 -12 9 -9 5 3 6 10 3 15 -9 13 -12 11 -12 -6z"/>
<path d="M4728 2393 c6 -2 9 -10 6 -15 -4 -7 -2 -8 5 -4 13 9 5 26 -12 25 -9
0 -8 -2 1 -6z"/>
<path d="M4797 2394 c-4 -4 -7 -11 -7 -15 0 -9 27 -5 37 6 4 4 3 5 -4 2 -6 -4
-13 -2 -15 4 -2 5 -7 7 -11 3z"/>
<path d="M3522 2367 c-26 -28 -27 -34 -7 -34 9 0 14 6 11 14 -3 8 -1 11 4 8 6
-3 10 0 10 7 0 9 3 9 10 -2 5 -8 10 -10 10 -5 0 29 -17 35 -38 12z"/>
<path d="M3626 2374 c-3 -9 -11 -12 -18 -8 -10 6 -10 4 -1 -6 11 -12 15 -11
28 6 15 19 15 19 8 -1 -6 -18 -5 -18 10 -6 9 7 17 9 17 3 0 -5 -7 -12 -15 -16
-8 -3 -12 -12 -9 -21 3 -8 1 -15 -5 -15 -6 0 -11 -4 -11 -10 0 -5 3 -9 8 -9
19 3 29 -2 29 -16 0 -8 -3 -12 -7 -10 -3 2 -12 0 -20 -6 -10 -6 -11 -9 -2 -9
6 0 12 -5 12 -11 0 -8 -6 -7 -17 2 -15 12 -16 12 -8 -1 8 -13 7 -13 -10 0 -15
12 -17 12 -10 1 5 -9 4 -12 -3 -7 -6 4 -8 14 -5 24 7 18 5 17 -17 -12 -8 -11
-10 -17 -3 -13 6 4 15 2 19 -4 5 -8 3 -9 -6 -4 -9 6 -11 4 -5 -5 5 -9 4 -11
-3 -6 -7 4 -10 2 -9 -6 2 -7 2 -10 0 -5 -3 4 -9 7 -14 7 -6 0 -8 -4 -4 -9 3
-5 0 -13 -6 -17 -7 -4 -9 -3 -5 4 3 6 2 13 -4 17 -5 3 -10 1 -10 -4 0 -15 -13
-14 -36 4 -12 10 -14 13 -3 10 12 -4 15 1 15 25 0 16 -4 29 -10 29 -33 -4 -41
2 -22 16 10 8 23 12 27 9 13 -8 11 1 -8 41 -9 19 -21 35 -26 35 -5 0 -4 -6 2
-14 8 -10 9 -16 1 -21 -5 -3 -10 -11 -10 -17 0 -7 6 -6 15 2 10 9 15 9 15 1 0
-11 -13 -15 -39 -12 -8 2 -10 -2 -5 -11 5 -7 9 -16 10 -20 1 -5 2 -9 4 -10 2
-4 9 -37 12 -68 4 -38 27 -51 59 -34 15 7 29 11 32 8 3 -3 11 3 18 14 12 20
14 19 42 -19 16 -22 32 -38 35 -35 3 3 12 0 21 -6 12 -10 12 -7 -2 8 -9 11
-14 24 -10 27 3 4 2 7 -3 7 -13 0 -16 38 -4 45 5 3 7 12 3 20 -3 8 0 15 7 15
7 0 10 6 7 14 -3 7 0 19 6 25 6 6 7 11 2 11 -6 0 -3 5 5 10 13 9 13 12 -2 23
-12 9 -14 18 -7 30 6 9 9 17 7 18 -35 8 -57 5 -62 -7z m54 -59 c-5 -6 -8 -15
-5 -18 3 -4 2 -5 -2 -2 -13 10 -10 43 4 38 9 -4 10 -9 3 -18z m-190 -75 c0 -5
-5 -10 -11 -10 -5 0 -7 5 -4 10 3 6 8 10 11 10 2 0 4 -4 4 -10z m160 -25 c-10
-12 -7 -45 6 -68 10 -17 -8 1 -34 37 -25 33 -23 42 12 42 17 0 22 -3 16 -11z
m-122 -40 c2 -1 -4 -5 -12 -8 -10 -4 -20 2 -27 14 -10 19 -9 20 13 8 13 -6 24
-13 26 -14z"/>
<path d="M3621 2198 c5 -10 11 -18 12 -18 2 0 3 8 3 18 0 10 -6 19 -13 19 -8
0 -9 -6 -2 -19z"/>
<path d="M5153 2375 c0 -8 4 -12 9 -9 5 3 6 10 3 15 -9 13 -12 11 -12 -6z"/>
<path d="M5187 2379 c7 -7 15 -10 18 -7 3 3 -2 9 -12 12 -14 6 -15 5 -6 -5z"/>
<path d="M4713 2358 c1 -16 5 -28 9 -28 10 0 9 9 -2 35 -8 17 -8 16 -7 -7z"/>
<path d="M4770 2369 c0 -5 -4 -8 -9 -4 -5 3 -13 0 -17 -7 -4 -7 -4 -10 1 -6 4
4 14 0 22 -10 12 -16 13 -16 6 2 -4 13 -3 17 5 12 8 -5 10 -2 6 8 -7 18 -14
21 -14 5z"/>
<path d="M4829 2363 c-13 -16 -12 -17 4 -4 16 13 21 21 13 21 -2 0 -10 -8 -17
-17z"/>
<path d="M4868 2373 c7 -3 16 -2 19 1 4 3 -2 6 -13 5 -11 0 -14 -3 -6 -6z"/>
<path d="M4979 2376 c-2 -3 -17 -7 -33 -10 -42 -8 -41 -13 2 -12 24 1 39 6 39
14 0 13 -1 14 -8 8z"/>
<path d="M5014 2360 c0 -13 4 -16 10 -10 7 7 7 13 0 20 -6 6 -10 3 -10 -10z"/>
<path d="M5234 2360 c0 -13 4 -16 10 -10 7 7 7 13 0 20 -6 6 -10 3 -10 -10z"/>
<path d="M3574 2361 c4 -6 2 -11 -3 -11 -22 0 -26 -2 -34 -16 -5 -8 -12 -12
-18 -9 -5 4 -9 2 -9 -3 0 -6 7 -13 16 -16 8 -3 13 -2 10 3 -3 5 2 8 12 7 10 0
16 5 14 14 -2 11 1 11 12 -3 12 -16 14 -16 20 -2 6 18 26 11 26 -8 0 -7 -4 -6
-11 3 -8 12 -9 11 -4 -6 4 -14 0 -24 -10 -27 -8 -4 -14 -1 -12 5 1 6 -5 13
-13 16 -8 2 -12 1 -8 -3 4 -5 3 -14 -3 -22 -9 -10 -8 -13 2 -13 11 0 11 -2 -1
-10 -21 -13 -27 -12 -34 6 -3 8 -2 12 3 9 5 -3 12 -1 16 5 3 5 1 10 -4 10 -6
0 -14 0 -18 0 -5 0 -9 -9 -9 -20 -1 -11 3 -20 8 -20 5 0 6 -6 1 -12 -4 -7 -8
-19 -9 -26 -2 -11 0 -11 13 0 9 7 18 12 20 11 9 -7 24 -2 19 6 -3 5 3 20 13
32 17 21 20 22 26 7 6 -14 10 -15 26 -5 10 6 19 15 19 20 0 4 -4 6 -9 2 -13
-8 -24 12 -14 28 11 18 13 38 2 31 -6 -3 -21 2 -36 11 -14 9 -22 12 -19 6z
m-14 -116 c0 -2 -10 -9 -22 -15 -22 -11 -22 -10 -4 4 21 17 26 19 26 11z"/>
<path d="M3445 2339 c-11 -17 1 -21 15 -4 8 9 8 15 2 15 -6 0 -14 -5 -17 -11z"/>
<path d="M4845 2342 c-12 -8 -14 -47 -3 -57 3 -4 5 1 4 12 -2 10 1 26 6 36 10
19 8 20 -7 9z"/>
<path d="M5294 2336 c1 -8 5 -18 8 -22 4 -3 5 1 4 10 -1 8 -5 18 -8 22 -4 3
-5 -1 -4 -10z"/>
<path d="M4902 2325 c8 -11 14 -28 13 -37 -2 -10 0 -20 4 -23 17 -10 4 46 -14
63 -19 16 -19 16 -3 -3z"/>
<path d="M4967 2322 c-20 -22 -21 -32 -5 -32 6 0 8 3 5 7 -4 3 0 15 10 25 9
10 14 18 11 18 -3 0 -12 -8 -21 -18z"/>
<path d="M4620 2320 c-12 -7 -10 -9 8 -7 12 0 22 5 22 9 0 11 -12 10 -30 -2z"/>
<path d="M4685 2320 c3 -5 8 -10 11 -10 2 0 4 5 4 10 0 6 -5 10 -11 10 -5 0
-7 -4 -4 -10z"/>
<path d="M5035 2319 c-3 -4 2 -6 10 -5 21 3 28 13 10 13 -9 0 -18 -4 -20 -8z"/>
<path d="M5079 2313 c-13 -16 -12 -17 4 -4 9 7 17 15 17 17 0 8 -8 3 -21 -13z"/>
<path d="M4864 2302 c4 -3 14 -7 22 -8 9 -1 13 0 10 4 -4 3 -14 7 -22 8 -9 1
-13 0 -10 -4z"/>
<path d="M4626 2283 c-6 -14 -5 -15 5 -6 7 7 10 15 7 18 -3 3 -9 -2 -12 -12z"/>
<path d="M4592 2270 c7 -10 14 -18 15 -16 6 6 -9 36 -18 36 -5 0 -4 -9 3 -20z"/>
<path d="M4656 2278 c3 -5 10 -6 15 -3 13 9 11 12 -6 12 -8 0 -12 -4 -9 -9z"/>
<path d="M4726 2281 c-3 -5 1 -11 9 -14 9 -4 12 -1 8 9 -6 16 -10 17 -17 5z"/>
<path d="M4999 2273 c-13 -16 -12 -17 4 -4 9 7 17 15 17 17 0 8 -8 3 -21 -13z"/>
<path d="M5174 2276 c1 -8 5 -18 8 -22 4 -3 5 1 4 10 -1 8 -5 18 -8 22 -4 3
-5 -1 -4 -10z"/>
<path d="M4574 2262 c5 -8 -1 -12 -16 -13 -18 -1 -19 -2 -4 -6 23 -6 43 12 25
22 -8 5 -10 4 -5 -3z"/>
<path d="M5090 2260 c0 -5 5 -10 11 -10 5 0 7 5 4 10 -3 6 -8 10 -11 10 -2 0
-4 -4 -4 -10z"/>
<path d="M4651 2251 c-8 -5 -16 -17 -17 -25 -1 -9 2 -14 7 -10 5 3 6 10 3 16
-5 7 -2 9 8 6 9 -4 15 0 15 8 0 8 -1 14 -1 14 -1 0 -7 -4 -15 -9z"/>
<path d="M4770 2256 c0 -2 8 -10 18 -17 15 -13 16 -12 3 4 -13 16 -21 21 -21
13z"/>
<path d="M4749 2237 c6 -8 9 -16 6 -19 -3 -2 2 -5 10 -5 13 0 13 3 -2 19 -19
21 -31 25 -14 5z"/>
<path d="M4504 2216 c10 -8 15 -20 10 -27 -4 -8 -3 -10 4 -5 18 11 14 24 -10
36 -22 10 -22 10 -4 -4z"/>
<path d="M4800 2220 c-9 -6 -10 -10 -3 -10 6 0 15 5 18 10 8 12 4 12 -15 0z"/>
<path d="M4836 2221 c-3 -5 2 -15 12 -22 15 -12 16 -12 5 2 -7 9 -10 19 -6 22
3 4 4 7 0 7 -3 0 -8 -4 -11 -9z"/>
<path d="M4475 2200 c-3 -5 -3 -10 2 -10 4 0 2 -4 -5 -9 -11 -7 -10 -9 3 -14
9 -4 14 -3 10 2 -3 5 1 12 7 14 10 4 10 6 0 6 -7 1 -10 6 -7 11 3 6 4 10 1 10
-3 0 -8 -4 -11 -10z"/>
<path d="M4570 2200 c0 -5 5 -10 10 -10 6 0 10 5 10 10 0 6 -4 10 -10 10 -5 0
-10 -4 -10 -10z"/>
<path d="M4645 2200 c-2 -3 12 -6 31 -6 19 0 34 3 34 7 0 8 -60 7 -65 -1z"/>
<path d="M4726 2202 c-3 -5 1 -9 9 -9 8 0 12 4 9 9 -3 4 -7 8 -9 8 -2 0 -6 -4
-9 -8z"/>
<path d="M4896 2198 c3 -5 10 -6 15 -3 13 9 11 12 -6 12 -8 0 -12 -4 -9 -9z"/>
<path d="M5166 2202 c-2 -4 4 -8 14 -8 10 0 16 4 14 8 -3 4 -9 8 -14 8 -5 0
-11 -4 -14 -8z"/>
<path d="M4337 2194 c-4 -4 -4 -11 -1 -15 7 -12 34 -11 34 1 0 5 -7 6 -17 3
-11 -4 -14 -3 -9 5 8 13 3 16 -7 6z"/>
<path d="M4430 2181 c0 -10 29 -36 34 -30 1 2 -6 12 -16 22 -10 9 -18 13 -18
8z"/>
<path d="M5015 2179 c-3 -4 2 -6 10 -5 21 3 28 13 10 13 -9 0 -18 -4 -20 -8z"/>
<path d="M4254 2158 c4 -13 0 -17 -16 -15 -28 3 -33 -40 -6 -54 12 -6 18 -6
18 1 0 5 -6 10 -13 10 -7 0 -13 9 -13 20 0 14 5 18 17 15 22 -7 31 6 17 25 -8
12 -9 12 -4 -2z"/>
<path d="M4308 2163 c7 -3 16 -2 19 1 4 3 -2 6 -13 5 -11 0 -14 -3 -6 -6z"/>
<path d="M4974 2156 c1 -8 5 -18 8 -22 4 -3 5 1 4 10 -1 8 -5 18 -8 22 -4 3
-5 -1 -4 -10z"/>
<path d="M4356 2147 c3 -10 9 -15 12 -12 3 3 0 11 -7 18 -10 9 -11 8 -5 -6z"/>
<path d="M4328 2143 c6 -2 9 -10 6 -15 -4 -7 -2 -8 5 -4 13 9 5 26 -12 25 -9
0 -8 -2 1 -6z"/>
<path d="M4895 2140 c-3 -5 -1 -10 4 -10 6 0 11 5 11 10 0 6 -2 10 -4 10 -3 0
-8 -4 -11 -10z"/>
<path d="M4376 2123 c-6 -14 -5 -15 5 -6 7 7 10 15 7 18 -3 3 -9 -2 -12 -12z"/>
<path d="M4613 2125 c0 -8 3 -13 5 -10 3 3 15 -3 26 -12 15 -13 14 -10 -3 10
-29 32 -28 31 -28 12z"/>
<path d="M3435 2107 c-8 -12 -15 -18 -15 -13 0 5 -6 3 -13 -3 -8 -6 -18 -7
-22 -3 -5 4 -5 1 -1 -6 5 -8 12 -10 19 -4 7 5 22 8 34 7 17 -1 20 1 12 11 -12
14 -1 23 24 18 11 -1 16 0 13 4 -14 14 -37 9 -51 -11z"/>
<path d="M4180 2120 c0 -5 5 -10 10 -10 6 0 10 5 10 10 0 6 -4 10 -10 10 -5 0
-10 -4 -10 -10z"/>
<path d="M4260 2120 c-9 -6 -10 -10 -3 -10 6 0 15 5 18 10 8 12 4 12 -15 0z"/>
<path d="M4290 2122 c0 -5 7 -9 15 -9 8 0 12 4 9 9 -3 4 -9 8 -15 8 -5 0 -9
-4 -9 -8z"/>
<path d="M4554 2101 c0 -16 4 -27 8 -25 4 2 5 14 3 26 -7 32 -13 32 -11 -1z"/>
<path d="M4674 2115 c3 -23 12 -26 13 -5 1 11 -2 20 -7 20 -4 0 -7 -7 -6 -15z"/>
<path d="M4830 2116 c7 -7 13 -7 20 0 6 6 3 10 -10 10 -13 0 -16 -4 -10 -10z"/>
<path d="M4156 2107 c3 -10 9 -15 12 -12 3 3 0 11 -7 18 -10 9 -11 8 -5 -6z"/>
<path d="M4333 2103 c4 -6 2 -13 -5 -15 -16 -6 -18 -35 -2 -35 11 0 11 3 1 16
-10 12 -9 14 5 9 17 -7 20 14 3 29 -4 4 -5 3 -2 -4z"/>
<path d="M4770 2099 c0 -5 5 -7 10 -4 6 3 10 8 10 11 0 2 -4 4 -10 4 -5 0 -10
-5 -10 -11z"/>
<path d="M4280 2095 c0 -5 5 -17 10 -25 5 -8 10 -10 10 -5 0 6 -5 17 -10 25
-5 8 -10 11 -10 5z"/>
<path d="M4370 2086 c0 -8 4 -17 9 -20 5 -4 7 3 4 14 -6 23 -13 26 -13 6z"/>
<path d="M4462 2086 c14 -10 15 -15 5 -26 -10 -12 -9 -12 6 -1 23 18 22 28 -5
34 -21 5 -21 5 -6 -7z"/>
<path d="M3000 2075 c-6 -7 -10 -17 -9 -21 1 -5 0 -11 -1 -14 -1 -3 -3 -20 -5
-39 -2 -30 -1 -32 8 -15 6 10 11 32 12 48 1 37 18 43 44 17 10 -10 23 -16 27
-13 4 4 4 1 0 -6 -4 -7 -4 -12 1 -11 15 4 43 -13 37 -22 -3 -5 0 -9 7 -9 7 0
10 -3 7 -6 -4 -3 -15 -1 -27 5 -11 7 -22 7 -25 2 -4 -5 0 -11 6 -14 7 -2 1 -4
-14 -4 -15 0 -25 3 -22 8 10 17 -9 9 -22 -8 -17 -23 -18 -37 -1 -26 6 4 18 8
25 9 11 2 11 0 0 -14 -11 -13 -11 -14 1 -7 10 5 12 4 7 -4 -4 -6 -12 -9 -17
-6 -5 4 -9 1 -9 -5 0 -7 6 -10 13 -7 8 3 14 -1 14 -8 0 -8 -7 -11 -15 -7 -10
3 -13 1 -8 -6 3 -6 1 -14 -5 -18 -7 -4 -9 -3 -5 4 3 6 1 14 -5 18 -8 5 -9 3
-4 -6 5 -9 4 -11 -4 -6 -6 4 -9 12 -6 17 4 5 1 9 -4 9 -6 0 -11 -6 -11 -12 0
-10 -2 -10 -8 0 -6 9 -11 7 -18 -10 -8 -18 -6 -27 10 -42 15 -15 18 -16 13 -3
-6 17 15 41 27 30 11 -12 66 -10 58 1 -14 24 -8 77 10 87 10 5 18 7 18 3 0 -3
11 1 25 10 14 9 30 14 35 11 5 -3 11 -1 14 3 3 5 17 8 31 7 14 -2 23 0 20 5
-3 4 4 19 15 33 18 23 18 25 3 22 -10 -1 -17 -9 -15 -16 2 -11 -1 -10 -10 1
-16 19 -43 20 -44 3 -1 -7 -2 -17 -3 -23 -2 -17 -29 -11 -44 11 -9 13 -17 16
-21 10 -5 -7 -17 -3 -36 11 -16 12 -27 24 -25 28 8 12 -34 8 -45 -5z m214 -66
c-3 -5 -11 -9 -17 -9 -7 0 -6 4 3 10 13 8 8 14 -11 12 -3 -1 -6 6 -6 14 0 12
4 11 18 -2 10 -9 16 -21 13 -25z m-75 -13 c-3 -3 -11 5 -18 17 -13 21 -12 21
5 5 10 -10 16 -20 13 -22z m-145 -118 c-3 -4 -9 -8 -15 -8 -5 0 -9 4 -9 8 0 5
7 9 15 9 8 0 12 -4 9 -9z"/>
<path d="M4090 2080 c0 -5 5 -10 10 -10 6 0 10 5 10 10 0 6 -4 10 -10 10 -5 0
-10 -4 -10 -10z"/>
<path d="M4180 2086 c0 -2 7 -6 15 -10 8 -3 15 -1 15 4 0 6 -7 10 -15 10 -8 0
-15 -2 -15 -4z"/>
<path d="M4605 2079 c-3 -4 2 -6 10 -5 21 3 28 13 10 13 -9 0 -18 -4 -20 -8z"/>
<path d="M4926 2082 c-3 -5 1 -9 9 -9 8 0 12 4 9 9 -3 4 -7 8 -9 8 -2 0 -6 -4
-9 -8z"/>
<path d="M4052 2072 c2 -8 8 -13 13 -12 6 1 13 -9 17 -22 l7 -23 -2 23 c-1 12
-6 22 -11 22 -5 -1 -13 4 -18 12 -8 11 -9 11 -6 0z"/>
<path d="M4431 2067 c-8 -10 -7 -14 2 -14 8 0 14 6 14 14 0 7 -1 13 -2 13 -2
0 -8 -6 -14 -13z"/>
<path d="M3315 2056 c-17 -12 -17 -13 3 -11 26 2 37 11 24 19 -5 3 -17 -1 -27
-8z"/>
<path d="M3821 2065 c-1 -12 53 -75 65 -75 4 0 -5 13 -20 29 -15 16 -24 31
-19 33 4 3 3 3 -4 2 -6 -2 -14 2 -17 9 -2 7 -5 8 -5 2z"/>
<path d="M4034 2046 c3 -16 8 -31 11 -35 3 -3 4 7 1 23 -3 16 -8 31 -11 35 -3
3 -4 -7 -1 -23z"/>
<path d="M4175 2061 c-3 -6 5 -15 17 -21 21 -10 21 -10 6 3 -10 8 -15 17 -11
20 3 4 4 7 0 7 -3 0 -8 -4 -12 -9z"/>
<path d="M3018 2053 c6 -2 12 -9 12 -14 0 -6 -4 -8 -8 -5 -4 2 -9 -4 -10 -15
-4 -43 -6 -49 -14 -49 -4 0 -8 -5 -8 -11 0 -8 5 -8 15 1 8 7 13 16 10 20 -7
11 22 21 39 14 8 -3 17 0 21 5 3 6 11 8 17 5 7 -4 8 -2 4 5 -4 6 -10 9 -14 7
-4 -2 -16 2 -27 10 -10 8 -15 14 -9 14 5 0 2 5 -6 10 -8 5 -19 9 -25 9 -5 0
-4 -3 3 -6z m36 -41 c2 -4 -4 -8 -14 -8 -10 0 -16 4 -14 8 3 4 9 8 14 8 5 0
11 -4 14 -8z"/>
<path d="M3915 2035 c-16 -13 -24 -24 -17 -25 6 0 12 4 12 8 0 15 47 35 61 26
10 -6 7 -10 -11 -15 -23 -6 -23 -7 -3 -8 27 -1 41 18 22 30 -21 13 -32 11 -64
-16z"/>
<path d="M4226 2043 c-6 -14 -5 -15 5 -6 7 7 10 15 7 18 -3 3 -9 -2 -12 -12z"/>
<path d="M4494 2049 c-3 -6 -2 -15 3 -20 5 -5 9 -1 9 11 0 23 -2 24 -12 9z"/>
<path d="M2872 2037 c4 -20 -23 -59 -37 -53 -9 3 -13 -2 -12 -15 1 -10 6 -19
12 -19 15 1 56 70 49 83 -5 9 -3 8 6 0 10 -9 10 -15 1 -26 -9 -11 -8 -17 5
-28 13 -11 15 -11 14 2 -5 30 0 41 15 35 18 -6 20 10 3 20 -21 13 -59 13 -56
1z"/>
<path d="M3870 2040 c0 -5 5 -10 10 -10 6 0 10 5 10 10 0 6 -4 10 -10 10 -5 0
-10 -4 -10 -10z"/>
<path d="M4153 2030 c-1 -11 2 -20 7 -20 4 0 7 7 6 15 -3 23 -12 26 -13 5z"/>
<path d="M4280 2040 c-9 -6 -10 -10 -3 -10 6 0 15 5 18 10 8 12 4 12 -15 0z"/>
<path d="M4346 2042 c-3 -5 1 -9 9 -9 8 0 15 4 15 9 0 4 -4 8 -9 8 -6 0 -12
-4 -15 -8z"/>
<path d="M4566 2042 c-3 -5 1 -9 9 -9 8 0 12 4 9 9 -3 4 -7 8 -9 8 -2 0 -6 -4
-9 -8z"/>
<path d="M4606 2038 c3 -5 10 -6 15 -3 13 9 11 12 -6 12 -8 0 -12 -4 -9 -9z"/>
<path d="M4003 2023 c-7 -3 -13 -9 -13 -15 0 -7 5 -6 14 2 12 9 15 8 13 -10
-1 -14 -7 -20 -21 -18 -13 2 -22 -4 -24 -14 -2 -10 1 -18 7 -18 6 0 8 6 5 13
-3 9 3 13 17 13 15 -1 23 6 25 21 4 24 -4 33 -23 26z"/>
<path d="M4400 2020 c-9 -6 -10 -10 -3 -10 6 0 15 5 18 10 8 12 4 12 -15 0z"/>
<path d="M4433 2007 c-1 -11 -1 -18 0 -16 2 2 8 11 15 20 9 12 9 16 -1 16 -7
0 -14 -9 -14 -20z"/>
<path d="M4771 2027 c2 -1 13 -9 24 -17 19 -14 19 -14 6 3 -7 9 -18 17 -24 17
-6 0 -8 -1 -6 -3z"/>
<path d="M2947 2014 c-15 -15 -6 -26 10 -13 15 13 15 11 -1 -13 -10 -15 -13
-29 -7 -32 5 -3 11 -1 13 6 3 7 7 5 11 -6 4 -9 3 -15 -3 -11 -11 7 -35 -33
-35 -60 0 -11 -7 -20 -15 -20 -8 0 -14 5 -13 11 1 5 -8 16 -19 23 -22 14 -22
16 -2 -33 4 -11 -1 -14 -15 -13 -12 1 -21 6 -21 12 0 5 -4 3 -9 -5 -6 -8 -8
-17 -5 -21 6 -10 44 -3 57 10 7 7 17 6 31 -1 12 -7 27 -13 34 -14 17 -3 15 13
-3 20 -12 4 -13 10 -6 25 6 10 7 21 4 25 -3 3 -1 6 6 6 7 0 9 5 5 13 -6 9 -4
9 8 -1 12 -9 18 -10 23 -2 5 8 12 5 22 -7 8 -10 12 -12 8 -5 -4 7 -1 20 7 29
11 14 11 16 -2 8 -34 -21 -54 -4 -55 49 0 20 -16 31 -28 20z"/>
<path d="M3775 2010 c3 -5 8 -10 11 -10 2 0 4 5 4 10 0 6 -5 10 -11 10 -5 0
-7 -4 -4 -10z"/>
<path d="M3912 2004 c-7 -8 -8 -14 -3 -14 10 0 25 19 20 25 -2 1 -10 -3 -17
-11z"/>
<path d="M4193 2013 c-18 -7 -16 -20 2 -20 8 0 12 4 9 8 -2 4 2 10 8 12 7 3 9
5 3 5 -5 0 -16 -2 -22 -5z"/>
<path d="M2916 2001 c-4 -5 -1 -13 5 -17 8 -4 7 -9 -2 -15 -8 -5 -20 -2 -31 8
-16 14 -24 7 -15 -13 1 -3 -7 -11 -18 -17 -11 -7 -20 -19 -20 -27 0 -10 -8
-14 -25 -11 l-25 3 25 -22 c14 -12 20 -19 14 -16 -7 3 -17 0 -23 -8 -9 -11 -9
-15 1 -19 8 -2 9 -8 4 -13 -5 -5 -11 -4 -13 4 -7 18 -19 15 -20 -7 -1 -13 5
-18 19 -17 12 0 23 -6 25 -14 4 -12 3 -12 -5 -1 -6 8 -12 9 -16 3 -3 -6 -3
-12 1 -15 5 -2 3 -3 -3 -1 -6 1 -18 -3 -25 -9 -9 -8 -8 -5 1 8 14 19 14 19 -3
6 -10 -8 -16 -20 -13 -27 7 -19 -5 -25 -22 -11 -9 6 -13 7 -9 1 3 -6 0 -11 -8
-11 -13 0 -13 3 0 17 21 23 19 32 -4 18 -11 -7 -17 -17 -13 -23 3 -5 -1 -4
-10 3 -13 10 -18 9 -29 -5 -8 -9 -9 -14 -4 -11 6 4 11 -2 12 -12 1 -16 -1 -15
-23 5 -13 12 -24 26 -24 31 0 5 4 3 9 -5 8 -12 12 -12 26 2 9 10 20 15 25 12
4 -3 10 2 13 10 4 9 1 12 -7 9 -20 -8 -26 20 -11 50 16 31 14 31 -28 9 -20
-10 -27 -18 -18 -21 7 -2 17 2 22 9 7 11 9 11 9 1 0 -7 -7 -15 -15 -18 -13 -5
-13 -8 0 -21 16 -16 11 -34 -8 -32 -48 6 -51 -1 -14 -32 20 -16 36 -33 34 -37
-1 -4 3 -8 8 -10 6 -1 11 10 11 25 1 16 3 30 3 33 1 3 13 -8 27 -25 15 -16 23
-24 20 -17 -11 20 3 35 20 21 12 -10 18 -9 32 4 10 11 12 17 4 17 -7 0 -12 5
-12 11 0 5 4 8 9 5 5 -3 20 3 32 13 19 15 21 22 12 32 -9 9 -9 18 3 41 13 24
18 27 35 17 19 -10 20 -9 9 10 -13 26 -4 47 14 32 7 -6 16 -8 19 -4 6 6 11
-11 8 -29 0 -5 4 -8 10 -8 6 0 8 8 4 19 -3 11 -1 22 4 25 6 4 7 14 4 23 -5 12
-3 14 7 8 10 -6 11 -4 4 6 -4 8 -10 23 -11 33 -4 25 -9 30 -17 17z m-4 -45 c7
4 10 4 6 -1 -4 -4 -3 -14 3 -22 6 -7 10 -13 8 -14 -31 -6 -38 -5 -43 7 -3 8
-13 11 -23 8 -17 -5 -17 -5 0 6 10 6 14 16 10 23 -4 7 -1 7 10 -1 9 -8 22 -10
29 -6z m-56 -55 c0 -11 -5 -17 -13 -14 -10 4 -11 9 -2 19 15 18 15 18 15 -5z"/>
<path d="M2880 1946 c0 -3 9 -10 20 -16 11 -6 20 -8 20 -6 0 3 -9 10 -20 16
-11 6 -20 8 -20 6z"/>
<path d="M3800 2005 c0 -16 22 -35 40 -35 11 1 10 4 -5 12 -11 6 -23 16 -27
22 -5 7 -8 8 -8 1z"/>
<path d="M3830 2000 c8 -5 20 -10 25 -10 6 0 3 5 -5 10 -8 5 -19 10 -25 10 -5
0 -3 -5 5 -10z"/>
<path d="M3950 1996 c7 -7 13 -7 20 0 6 6 3 10 -10 10 -13 0 -16 -4 -10 -10z"/>
<path d="M4060 2005 c0 -8 29 -12 39 -5 9 5 4 8 -13 8 -14 0 -26 -2 -26 -3z"/>
<path d="M4116 1994 c-11 -8 -16 -14 -10 -14 13 0 39 18 34 24 -3 2 -14 -2
-24 -10z"/>
<path d="M4244 1995 c-4 -8 -11 -12 -18 -8 -6 3 -7 2 -3 -2 14 -16 33 -13 33
6 0 23 -5 24 -12 4z"/>
<path d="M4360 2000 c-9 -6 -10 -10 -3 -10 6 0 15 5 18 10 8 12 4 12 -15 0z"/>
<path d="M4041 1993 c-1 -17 16 -25 25 -12 4 7 3 9 -4 5 -5 -3 -13 0 -15 6 -4
9 -6 10 -6 1z"/>
<path d="M4273 1987 c0 -8 6 -14 14 -14 9 0 10 4 2 14 -6 7 -12 13 -14 13 -1
0 -2 -6 -2 -13z"/>
<path d="M4396 1987 c3 -10 9 -15 12 -12 3 3 0 11 -7 18 -10 9 -11 8 -5 -6z"/>
<path d="M3920 1979 c-12 -9 -12 -10 3 -5 15 5 17 2 12 -17 -5 -20 -5 -20 6
-4 14 23 0 40 -21 26z"/>
<path d="M4315 1980 c-3 -5 -1 -10 4 -10 6 0 11 5 11 10 0 6 -2 10 -4 10 -3 0
-8 -4 -11 -10z"/>
<path d="M4610 1980 c0 -5 5 -10 11 -10 5 0 7 5 4 10 -3 6 -8 10 -11 10 -2 0
-4 -4 -4 -10z"/>
<path d="M4695 1981 c-3 -5 -2 -12 3 -15 5 -3 9 1 9 9 0 17 -3 19 -12 6z"/>
<path d="M3857 1966 c-4 -10 -3 -15 2 -12 5 3 12 -1 15 -10 4 -9 9 -14 13 -11
3 4 12 -1 20 -11 13 -15 13 -14 3 6 -7 13 -14 21 -18 18 -3 -4 -11 3 -17 15
-11 19 -13 19 -18 5z"/>
<path d="M4355 1969 c-4 -6 -5 -12 -2 -15 2 -3 7 2 10 11 7 17 1 20 -8 4z"/>
<path d="M2740 1955 c-6 -8 -8 -20 -4 -26 4 -7 3 -9 -4 -5 -6 3 -13 2 -16 -2
-3 -5 5 -9 17 -8 15 1 21 7 19 18 -1 9 2 19 6 22 5 3 10 -6 10 -19 0 -14 -5
-25 -10 -25 -6 0 -2 -8 9 -17 10 -10 14 -15 9 -10 -19 14 -28 7 -15 -10 8 -9
9 -14 3 -10 -14 8 -26 -17 -18 -37 3 -8 1 -17 -5 -21 -7 -4 -8 0 -4 11 5 14 3
15 -15 5 -18 -10 -21 -9 -15 5 5 14 3 14 -15 3 -21 -13 -21 -24 1 -24 7 -1 11
-7 9 -15 -3 -12 -1 -12 9 -3 9 9 16 9 25 2 8 -7 15 -6 20 3 11 17 13 48 2 42
-4 -3 -8 -1 -8 5 0 5 9 12 19 16 11 3 25 13 33 22 7 10 8 14 1 10 -15 -9 -23
13 -12 35 6 11 4 22 -7 32 -19 20 -28 20 -44 1z"/>
<path d="M4030 1961 c0 -10 19 -25 25 -20 1 2 -3 10 -11 17 -8 7 -14 8 -14 3z"/>
<path d="M4090 1959 c0 -5 5 -7 12 -3 7 5 9 2 6 -8 -4 -8 0 -15 7 -15 10 0 11
5 4 19 -11 20 -29 24 -29 7z"/>
<path d="M4228 1948 c-7 -17 15 -19 29 -3 4 4 3 5 -4 2 -6 -4 -13 -2 -15 5 -3
8 -6 6 -10 -4z"/>
<path d="M4575 1951 c-3 -5 -2 -12 3 -15 5 -3 9 1 9 9 0 17 -3 19 -12 6z"/>
<path d="M3950 1940 c0 -6 7 -10 15 -10 8 0 15 2 15 4 0 2 -7 6 -15 10 -8 3
-15 1 -15 -4z"/>
<path d="M4275 1942 c3 -3 -1 -12 -7 -21 -8 -10 -4 -9 10 3 26 23 26 23 7 23
-8 0 -13 -3 -10 -5z"/>
<path d="M4655 1939 c-3 -4 2 -6 10 -5 21 3 28 13 10 13 -9 0 -18 -4 -20 -8z"/>
<path d="M2590 1928 c0 -9 7 -19 16 -22 25 -10 27 -1 4 19 -17 15 -20 16 -20
3z"/>
<path d="M3996 1931 c-3 -5 1 -11 9 -14 9 -4 12 -1 8 9 -6 16 -10 17 -17 5z"/>
<path d="M3931 1914 c0 -11 3 -14 6 -6 3 7 2 16 -1 19 -3 4 -6 -2 -5 -13z"/>
<path d="M4036 1915 c-9 -26 -7 -32 5 -12 6 10 9 21 6 23 -2 3 -7 -2 -11 -11z"/>
<path d="M4153 1910 c5 -29 13 -33 13 -5 0 14 -4 25 -8 25 -4 0 -7 -9 -5 -20z"/>
<path d="M4633 1915 c0 -8 4 -12 9 -9 5 3 6 10 3 15 -9 13 -12 11 -12 -6z"/>
<path d="M2667 1900 c-19 -22 -21 -30 -9 -30 5 0 14 10 20 23 10 18 11 19 9 3
-1 -10 3 -21 9 -23 6 -2 11 6 10 18 -1 30 -18 34 -39 9z"/>
<path d="M3955 1909 c-4 -6 -5 -12 -2 -15 2 -3 7 2 10 11 7 17 1 20 -8 4z"/>
<path d="M2719 1897 c-1 -7 -1 -15 0 -19 0 -4 -8 -12 -19 -18 -11 -6 -20 -16
-20 -22 0 -7 4 -7 14 1 11 9 16 9 21 0 6 -8 10 -7 17 5 16 29 17 54 2 60 -8 3
-15 0 -15 -7z"/>
<path d="M3813 1893 c-3 -7 -9 -10 -14 -7 -5 3 -6 -2 -3 -11 4 -10 2 -15 -7
-13 -7 2 -14 -6 -15 -17 -2 -15 -2 -16 2 -2 3 9 10 15 15 12 5 -4 14 5 20 19
7 14 15 24 18 21 4 -2 13 0 21 5 11 7 9 9 -9 7 -13 -1 -26 -7 -28 -14z"/>
<path d="M3884 1899 c-4 -7 -3 -9 4 -5 6 3 13 -2 15 -11 4 -16 5 -16 6 -1 1
21 -15 32 -25 17z"/>
<path d="M4078 1888 c2 -10 6 -18 7 -18 1 0 5 8 7 18 3 11 0 19 -7 19 -7 0
-10 -8 -7 -19z"/>
<path d="M4110 1906 c0 -2 7 -7 16 -10 8 -3 12 -2 9 4 -6 10 -25 14 -25 6z"/>
<path d="M4054 1886 c1 -8 5 -18 8 -22 4 -3 5 1 4 10 -1 8 -5 18 -8 22 -4 3
-5 -1 -4 -10z"/>
<path d="M4216 1887 c3 -10 9 -15 12 -12 3 3 0 11 -7 18 -10 9 -11 8 -5 -6z"/>
<path d="M3845 1880 c-3 -5 -2 -10 4 -10 5 0 13 5 16 10 3 6 2 10 -4 10 -5 0
-13 -4 -16 -10z"/>
<path d="M3920 1876 c0 -8 4 -17 9 -20 5 -4 7 3 4 14 -6 23 -13 26 -13 6z"/>
<path d="M3990 1880 c0 -5 5 -10 11 -10 5 0 7 5 4 10 -3 6 -8 10 -11 10 -2 0
-4 -4 -4 -10z"/>
<path d="M4346 1882 c-3 -5 1 -9 9 -9 8 0 12 4 9 9 -3 4 -7 8 -9 8 -2 0 -6 -4
-9 -8z"/>
<path d="M3651 1852 c-17 -31 -13 -40 5 -14 9 13 14 26 11 29 -3 2 -10 -4 -16
-15z"/>
<path d="M3870 1860 c0 -5 5 -10 10 -10 6 0 10 5 10 10 0 6 -4 10 -10 10 -5 0
-10 -4 -10 -10z"/>
<path d="M4146 1862 c-2 -4 4 -8 14 -8 10 0 16 4 14 8 -3 4 -9 8 -14 8 -5 0
-11 -4 -14 -8z"/>
<path d="M4494 1862 c4 -3 14 -7 22 -8 9 -1 13 0 10 4 -4 3 -14 7 -22 8 -9 1
-13 0 -10 -4z"/>
<path d="M4555 1861 c-3 -5 -2 -12 3 -15 5 -3 9 1 9 9 0 17 -3 19 -12 6z"/>
<path d="M3955 1844 c-16 -8 -22 -12 -11 -9 10 3 24 1 30 -4 8 -7 12 -4 12 10
0 10 0 19 -1 19 0 -1 -13 -8 -30 -16z"/>
<path d="M4089 1843 c-13 -16 -12 -17 4 -4 16 13 21 21 13 21 -2 0 -10 -8 -17
-17z"/>
<path d="M4314 1849 c-3 -6 -2 -15 3 -20 5 -5 9 -1 9 11 0 23 -2 24 -12 9z"/>
<path d="M3675 1840 c-3 -6 -1 -18 5 -27 9 -16 10 -15 5 4 -5 18 -3 22 9 17 9
-3 16 -4 16 -1 0 10 -30 16 -35 7z"/>
<path d="M3800 1835 c-19 -22 -8 -25 13 -3 9 10 13 18 8 18 -5 0 -14 -7 -21
-15z"/>
<path d="M3895 1839 c-6 -8 -4 -10 5 -4 10 6 12 4 6 -11 -6 -15 -5 -17 5 -6 9
9 10 15 2 23 -8 8 -13 7 -18 -2z"/>
<path d="M4035 1841 c-3 -5 -2 -12 3 -15 5 -3 9 1 9 9 0 17 -3 19 -12 6z"/>
<path d="M4276 1833 c-6 -14 -5 -15 5 -6 7 7 10 15 7 18 -3 3 -9 -2 -12 -12z"/>
<path d="M3832 1831 c-11 -6 -9 -9 6 -13 15 -4 19 -2 15 8 -6 16 -4 16 -21 5z"/>
<path d="M3504 1815 c-4 -8 -10 -15 -16 -15 -5 0 -6 5 -3 10 3 6 2 10 -3 10
-6 0 -12 -6 -15 -14 -7 -17 31 -16 42 2 6 10 10 10 21 -3 7 -8 16 -15 21 -15
5 0 0 9 -11 20 -24 24 -29 25 -36 5z"/>
<path d="M3600 1820 c-12 -7 -12 -11 -2 -20 6 -5 10 -7 7 -4 -3 4 3 13 13 20
19 15 5 19 -18 4z"/>
<path d="M4067 1819 c7 -7 15 -10 18 -7 3 3 -2 9 -12 12 -14 6 -15 5 -6 -5z"/>
<path d="M4435 1820 c3 -5 8 -10 11 -10 2 0 4 5 4 10 0 6 -5 10 -11 10 -5 0
-7 -4 -4 -10z"/>
<path d="M2880 1810 c-9 -6 -10 -10 -3 -10 6 0 15 5 18 10 8 12 4 12 -15 0z"/>
<path d="M3711 1808 c-1 -20 14 -24 25 -6 4 6 3 8 -4 4 -5 -3 -13 0 -15 6 -3
8 -6 6 -6 -4z"/>
<path d="M3770 1811 c0 -6 4 -13 10 -16 6 -3 7 1 4 9 -7 18 -14 21 -14 7z"/>
<path d="M3636 1798 c3 -4 0 -8 -7 -8 -7 0 -10 -3 -6 -6 3 -3 16 1 28 9 22 16
22 16 1 14 -11 0 -18 -5 -16 -9z"/>
<path d="M3805 1800 c-3 -6 1 -7 9 -4 18 7 21 14 7 14 -6 0 -13 -4 -16 -10z"/>
<path d="M3870 1806 c0 -2 7 -7 16 -10 8 -3 12 -2 9 4 -6 10 -25 14 -25 6z"/>
<path d="M4206 1798 c3 -5 10 -6 15 -3 13 9 11 12 -6 12 -8 0 -12 -4 -9 -9z"/>
<path d="M4275 1800 c-3 -5 -1 -10 4 -10 6 0 11 5 11 10 0 6 -2 10 -4 10 -3 0
-8 -4 -11 -10z"/>
<path d="M3949 1783 c-13 -16 -12 -17 4 -4 16 13 21 21 13 21 -2 0 -10 -8 -17
-17z"/>
<path d="M3504 1765 c-5 -22 -9 -24 -23 -13 -14 12 -14 11 -2 -4 15 -19 31
-15 31 8 0 8 5 14 10 14 6 0 10 5 10 10 0 21 -20 9 -26 -15z"/>
<path d="M3570 1779 c0 -5 -4 -8 -9 -5 -12 8 -34 -21 -26 -34 3 -6 11 -8 16
-5 5 4 9 2 9 -4 0 -5 -5 -12 -10 -14 -6 -3 -5 -4 2 -3 7 2 13 9 13 17 0 8 -6
13 -12 12 -7 -2 -13 1 -13 6 0 14 18 23 24 12 7 -11 55 -11 62 0 3 5 -3 6 -12
2 -13 -5 -15 -3 -9 8 6 11 5 12 -6 2 -18 -18 -34 -16 -19 2 9 10 9 15 1 15 -6
0 -11 -5 -11 -11z"/>
<path d="M3659 1788 c-4 -15 -6 -50 -3 -41 3 7 5 15 4 19 -1 4 4 11 12 15 10
7 10 9 1 9 -7 0 -13 -1 -14 -2z"/>
<path d="M3702 1765 c6 -14 15 -25 20 -25 5 0 1 11 -8 25 -9 14 -18 25 -20 25
-2 0 2 -11 8 -25z"/>
<path d="M3750 1781 c0 -6 4 -12 8 -15 5 -3 9 1 9 9 0 8 -4 15 -9 15 -4 0 -8
-4 -8 -9z"/>
<path d="M3868 1783 c6 -2 9 -10 6 -15 -4 -7 -2 -8 5 -4 13 9 5 26 -12 25 -9
0 -8 -2 1 -6z"/>
<path d="M4334 1776 c1 -8 5 -18 8 -22 4 -3 5 1 4 10 -1 8 -5 18 -8 22 -4 3
-5 -1 -4 -10z"/>
<path d="M3468 1773 c7 -3 16 -2 19 1 4 3 -2 6 -13 5 -11 0 -14 -3 -6 -6z"/>
<path d="M3966 1765 c-18 -14 -18 -14 1 -12 11 0 20 7 20 14 0 7 -1 13 -1 13
-1 0 -9 -7 -20 -15z"/>
<path d="M3420 1755 c10 -12 10 -18 0 -30 -16 -19 -6 -33 22 -31 17 1 22 7 20
21 -3 16 -1 18 9 8 7 -7 17 -13 22 -13 5 0 -2 9 -16 20 -14 11 -30 20 -36 20
-6 0 -11 5 -11 10 0 6 -5 10 -11 10 -8 0 -8 -5 1 -15z m36 -34 c0 -13 -7 -19
-18 -18 -21 1 -23 8 -6 25 17 17 24 15 24 -7z"/>
<path d="M3824 1752 c0 -19 19 -24 31 -9 3 4 2 5 -2 2 -3 -3 -11 2 -17 11 -10
13 -12 13 -12 -4z"/>
<path d="M3670 1745 c0 -13 20 -35 32 -35 4 0 8 5 8 11 0 5 -4 8 -9 4 -6 -3
-14 3 -20 12 -6 10 -11 13 -11 8z"/>
<path d="M3873 1743 c4 -3 -1 -16 -10 -27 -18 -21 -18 -21 5 -2 24 21 29 36
10 36 -6 0 -8 -3 -5 -7z"/>
<path d="M3996 1742 c-2 -4 -1 -14 4 -22 7 -11 9 -9 7 8 -1 24 -3 26 -11 14z"/>
<path d="M4113 1725 c0 -8 4 -12 9 -9 5 3 6 10 3 15 -9 13 -12 11 -12 -6z"/>
<path d="M3595 1719 c-4 -6 -4 -13 -1 -16 3 -4 6 -1 6 6 0 7 5 9 10 6 6 -3 10
-1 10 4 0 14 -17 14 -25 0z"/>
<path d="M3640 1715 c-7 -9 -11 -17 -9 -20 3 -2 10 5 17 15 14 24 10 26 -8 5z"/>
<path d="M3770 1722 c0 -5 7 -9 15 -9 8 0 12 4 9 9 -3 4 -9 8 -15 8 -5 0 -9
-4 -9 -8z"/>
<path d="M4156 1718 c3 -5 10 -6 15 -3 13 9 11 12 -6 12 -8 0 -12 -4 -9 -9z"/>
<path d="M3316 1702 c-3 -5 -3 -25 0 -45 3 -26 1 -36 -8 -35 -8 2 -13 -7 -13
-22 0 -16 5 -24 14 -22 9 2 11 -3 7 -13 -3 -9 -6 -19 -6 -21 0 -3 -5 -2 -12 2
-7 5 -8 3 -3 -6 6 -10 11 -9 22 6 15 20 12 40 -6 37 -6 -2 -11 6 -11 18 0 12
4 17 11 14 6 -4 13 2 16 14 3 12 9 21 14 21 5 0 9 5 9 11 0 8 -5 8 -15 -1 -18
-15 -20 1 -2 19 10 11 10 13 0 7 -7 -4 -13 -3 -13 3 0 5 6 12 13 14 9 4 9 6 0
6 -6 1 -14 -3 -17 -7z"/>
<path d="M3391 1705 c1 -19 18 -51 18 -35 0 8 -4 22 -9 30 -5 8 -9 11 -9 5z"/>
<path d="M3510 1700 c0 -5 5 -10 10 -10 6 0 10 5 10 10 0 6 -4 10 -10 10 -5 0
-10 -4 -10 -10z"/>
<path d="M3674 1685 c0 -13 3 -22 7 -19 8 4 6 30 -2 38 -3 3 -5 -5 -5 -19z"/>
<path d="M3750 1701 c13 -9 8 -15 -11 -13 -3 1 -6 -6 -6 -13 0 -10 4 -12 12
-5 7 5 14 7 18 4 3 -3 4 2 3 12 -2 10 -9 20 -17 22 -11 3 -11 1 1 -7z"/>
<path d="M4214 1696 c1 -8 5 -18 8 -22 4 -3 5 1 4 10 -1 8 -5 18 -8 22 -4 3
-5 -1 -4 -10z"/>
<path d="M3350 1691 c0 -5 8 -12 17 -15 15 -6 15 -8 3 -16 -9 -6 -10 -10 -3
-10 20 0 24 18 7 34 -18 18 -24 20 -24 7z"/>
<path d="M3651 1684 c0 -11 3 -14 6 -6 3 7 2 16 -1 19 -3 4 -6 -2 -5 -13z"/>
<path d="M3470 1680 c0 -5 7 -7 15 -4 8 4 15 8 15 10 0 2 -7 4 -15 4 -8 0 -15
-4 -15 -10z"/>
<path d="M3540 1680 c0 -5 5 -10 11 -10 5 0 7 5 4 10 -3 6 -8 10 -11 10 -2 0
-4 -4 -4 -10z"/>
<path d="M3571 1687 c2 -1 14 -11 27 -21 12 -11 22 -16 22 -13 0 10 -31 37
-42 37 -6 0 -9 -1 -7 -3z"/>
<path d="M3870 1678 c0 -6 3 -8 7 -5 3 4 13 1 22 -6 14 -11 14 -10 2 6 -15 20
-31 22 -31 5z"/>
<path d="M4110 1686 c0 -2 7 -7 16 -10 8 -3 12 -2 9 4 -6 10 -25 14 -25 6z"/>
<path d="M3430 1670 c0 -5 7 -10 15 -10 9 0 12 -6 9 -15 -4 -8 -4 -15 -1 -15
16 0 13 31 -3 40 -14 7 -20 7 -20 0z"/>
<path d="M3516 1667 c3 -10 9 -15 12 -12 3 3 0 11 -7 18 -10 9 -11 8 -5 -6z"/>
<path d="M3493 1663 c4 -3 -1 -12 -11 -20 -15 -13 -15 -13 6 -3 19 9 23 30 5
30 -4 0 -3 -3 0 -7z"/>
<path d="M3567 1663 c-10 -9 -9 -41 2 -47 4 -3 6 6 3 21 -4 19 -2 24 8 18 9
-5 11 -4 6 3 -8 14 -10 14 -19 5z"/>
<path d="M3221 1644 c0 -11 3 -14 6 -6 3 7 2 16 -1 19 -3 4 -6 -2 -5 -13z"/>
<path d="M3278 1653 c6 -2 9 -10 6 -15 -4 -7 -2 -8 5 -4 13 9 5 26 -12 25 -9
0 -8 -2 1 -6z"/>
<path d="M3633 1645 c0 -8 4 -15 9 -15 4 0 8 4 8 9 0 6 -4 12 -8 15 -5 3 -9
-1 -9 -9z"/>
<path d="M3700 1651 c0 -6 4 -13 10 -16 6 -3 7 1 4 9 -7 18 -14 21 -14 7z"/>
<path d="M3775 1649 c-4 -6 -5 -12 -2 -15 2 -3 7 2 10 11 7 17 1 20 -8 4z"/>
<path d="M3933 1645 c0 -8 4 -12 9 -9 5 3 6 10 3 15 -9 13 -12 11 -12 -6z"/>
<path d="M3380 1640 c-9 -6 -10 -10 -3 -10 6 0 15 5 18 10 8 12 4 12 -15 0z"/>
<path d="M3410 1640 c0 -5 5 -10 10 -10 6 0 10 5 10 10 0 6 -4 10 -10 10 -5 0
-10 -4 -10 -10z"/>
<path d="M3730 1641 c0 -6 4 -13 10 -16 6 -3 7 1 4 9 -7 18 -14 21 -14 7z"/>
<path d="M4525 1640 c-3 -6 1 -7 9 -4 18 7 21 14 7 14 -6 0 -13 -4 -16 -10z"/>
<path d="M3350 1635 c0 -5 5 -17 10 -25 5 -8 10 -10 10 -5 0 6 -5 17 -10 25
-5 8 -10 11 -10 5z"/>
<path d="M3514 1625 c1 -8 8 -21 16 -28 12 -10 12 -9 2 4 -6 9 -9 18 -6 21 3
3 1 9 -4 12 -6 3 -9 -1 -8 -9z"/>
<path d="M4006 1622 c-3 -5 1 -9 9 -9 8 0 12 4 9 9 -3 4 -7 8 -9 8 -2 0 -6 -4
-9 -8z"/>
<path d="M3392 1595 c3 -33 16 -33 14 0 0 14 -4 25 -8 25 -4 0 -7 -11 -6 -25z"/>
<path d="M3427 1606 c-4 -10 -1 -13 8 -9 8 3 12 9 9 14 -7 12 -11 11 -17 -5z"/>
<path d="M3649 1603 c-13 -16 -12 -17 4 -4 9 7 17 15 17 17 0 8 -8 3 -21 -13z"/>
<path d="M3071 1597 c-1 -10 6 -20 14 -23 8 -4 12 -10 9 -15 -3 -5 0 -9 5 -9
15 0 14 18 -3 27 -7 4 -16 15 -19 23 -4 12 -6 11 -6 -3z"/>
<path d="M3330 1600 c0 -5 5 -10 10 -10 6 0 10 5 10 10 0 6 -4 10 -10 10 -5 0
-10 -4 -10 -10z"/>
<path d="M3482 1601 c-11 -6 -9 -9 6 -13 15 -4 19 -2 15 8 -6 16 -4 16 -21 5z"/>
<path d="M3726 1602 c-3 -5 1 -9 9 -9 8 0 12 4 9 9 -3 4 -7 8 -9 8 -2 0 -6 -4
-9 -8z"/>
<path d="M3110 1590 c0 -5 5 -12 10 -15 6 -4 8 -11 5 -16 -4 -5 2 -6 12 -2 16
6 16 5 4 -10 -7 -9 -9 -17 -3 -17 21 0 19 27 -4 47 -13 12 -24 18 -24 13z"/>
<path d="M3935 1591 c-3 -5 -2 -12 3 -15 5 -3 9 1 9 9 0 17 -3 19 -12 6z"/>
<path d="M3017 1575 c-3 -5 8 -10 23 -10 15 0 26 5 23 10 -2 6 -12 11 -23 11
-11 0 -21 -5 -23 -11z"/>
<path d="M3196 1569 l-30 -18 30 3 c16 2 28 9 27 14 -2 6 6 10 17 9 11 -1 20
-7 20 -14 0 -16 16 -17 26 -1 4 6 3 8 -4 4 -5 -3 -12 -1 -14 6 -6 18 -41 17
-72 -3z"/>
<path d="M3445 1579 c-4 -6 -5 -12 -2 -15 2 -3 7 2 10 11 7 17 1 20 -8 4z"/>
<path d="M3557 1577 c4 -6 0 -8 -9 -4 -16 6 -20 -17 -5 -28 4 -3 5 -2 2 1 -2
4 5 14 17 24 17 13 18 17 5 17 -9 0 -13 -5 -10 -10z"/>
<path d="M3617 1573 c-10 -9 -9 -23 1 -23 5 0 9 7 9 15 0 17 -1 18 -10 8z"/>
<path d="M3695 1569 c-4 -6 -5 -12 -2 -15 2 -3 7 2 10 11 7 17 1 20 -8 4z"/>
<path d="M3359 1568 c-6 -22 -5 -38 3 -38 6 0 8 6 5 14 -3 8 -1 17 6 20 9 3 9
5 0 5 -7 1 -13 0 -14 -1z"/>
<path d="M4300 1560 c-9 -6 -10 -10 -3 -10 6 0 15 5 18 10 8 12 4 12 -15 0z"/>
<path d="M3068 1543 c6 -2 12 -9 12 -14 0 -6 -5 -7 -12 -3 -7 4 -8 3 -4 -5 4
-6 11 -9 16 -6 4 3 11 -2 14 -10 5 -13 9 -13 25 -3 11 7 18 14 16 17 -3 2 -11
-2 -20 -9 -18 -15 -20 0 -2 20 10 12 9 12 -4 2 -14 -10 -18 -10 -23 3 -3 8
-11 15 -18 14 -10 0 -10 -2 0 -6z"/>
<path d="M3230 1540 c0 -5 5 -10 10 -10 6 0 10 5 10 10 0 6 -4 10 -10 10 -5 0
-10 -4 -10 -10z"/>
<path d="M3594 1533 c16 -20 36 -23 36 -6 0 4 -3 3 -7 0 -3 -4 -16 1 -27 10
-21 18 -21 18 -2 -4z"/>
<path d="M3895 1540 c-3 -5 -1 -10 4 -10 6 0 11 5 11 10 0 6 -2 10 -4 10 -3 0
-8 -4 -11 -10z"/>
<path d="M3030 1530 c0 -5 5 -10 10 -10 6 0 10 5 10 10 0 6 -4 10 -10 10 -5 0
-10 -4 -10 -10z"/>
<path d="M3161 1533 c-1 -6 -4 -20 -7 -30 -5 -17 -5 -17 6 0 6 10 9 23 6 30
-3 9 -5 9 -5 0z"/>
<path d="M3190 1530 c0 -6 7 -10 15 -10 8 0 15 2 15 4 0 2 -7 6 -15 10 -8 3
-15 1 -15 -4z"/>
<path d="M3277 1523 c-13 -12 -7 -23 11 -22 10 0 12 3 4 6 -6 2 -10 9 -6 14 6
10 0 12 -9 2z"/>
<path d="M3325 1520 c3 -5 8 -10 11 -10 2 0 4 5 4 10 0 6 -5 10 -11 10 -5 0
-7 -4 -4 -10z"/>
<path d="M3477 1512 c-15 -16 -15 -19 -2 -19 8 0 13 3 10 5 -3 3 0 11 6 19 17
20 5 16 -14 -5z"/>
<path d="M3546 1518 c3 -5 10 -6 15 -3 13 9 11 12 -6 12 -8 0 -12 -4 -9 -9z"/>
<path d="M3230 1511 c0 -7 -5 -9 -12 -5 -7 5 -8 3 -3 -5 5 -9 10 -10 18 -2 6
6 8 14 4 18 -4 3 -7 1 -7 -6z"/>
<path d="M2970 1502 c0 -5 11 -14 25 -20 14 -6 25 -10 25 -8 0 2 -11 11 -25
20 -14 9 -25 13 -25 8z"/>
<path d="M3050 1500 c0 -5 4 -10 9 -10 5 0 11 -8 13 -17 3 -16 4 -16 10 -2 4
9 -1 20 -13 27 -12 8 -19 8 -19 2z"/>
<path d="M3169 1489 c-12 -24 3 -50 16 -28 5 8 4 10 -3 5 -15 -9 -15 -1 -2 25
6 10 8 19 6 19 -3 0 -10 -9 -17 -21z"/>
<path d="M3506 1502 c-2 -4 4 -8 14 -8 10 0 16 4 14 8 -3 4 -9 8 -14 8 -5 0
-11 -4 -14 -8z"/>
<path d="M3815 1500 c3 -5 8 -10 11 -10 2 0 4 5 4 10 0 6 -5 10 -11 10 -5 0
-7 -4 -4 -10z"/>
<path d="M2895 1490 c3 -5 8 -10 11 -10 2 0 4 5 4 10 0 6 -5 10 -11 10 -5 0
-7 -4 -4 -10z"/>
<path d="M2920 1480 c0 -5 5 -10 11 -10 5 0 7 5 4 10 -3 6 -8 10 -11 10 -2 0
-4 -4 -4 -10z"/>
<path d="M3115 1480 c-3 -5 -2 -10 4 -10 5 0 13 5 16 10 3 6 2 10 -4 10 -5 0
-13 -4 -16 -10z"/>
<path d="M3235 1481 c-3 -5 -2 -12 3 -15 5 -3 9 1 9 9 0 17 -3 19 -12 6z"/>
<path d="M3345 1479 c-3 -4 2 -6 10 -5 21 3 28 13 10 13 -9 0 -18 -4 -20 -8z"/>
<path d="M2970 1474 c0 -6 7 -17 15 -24 8 -7 15 -9 15 -5 0 3 16 -3 35 -15 19
-12 35 -20 35 -17 0 8 -80 58 -80 50 0 -5 -5 -1 -10 7 -5 8 -10 10 -10 4z"/>
<path d="M3030 1470 c0 -5 5 -10 10 -10 6 0 10 5 10 10 0 6 -4 10 -10 10 -5 0
-10 -4 -10 -10z"/>
<path d="M2900 1460 c0 -6 7 -10 15 -10 8 0 15 2 15 4 0 2 -7 6 -15 10 -8 3
-15 1 -15 -4z"/>
<path d="M2947 1463 c-4 -3 -7 -15 -7 -26 0 -17 -2 -18 -17 -6 -16 13 -17 12
-4 -3 7 -10 10 -18 7 -18 -4 0 -2 -8 3 -19 14 -26 57 -23 53 4 -2 15 4 21 18
22 19 2 20 0 8 -14 -11 -14 -11 -15 1 -8 11 6 13 4 8 -9 -4 -10 -3 -15 3 -11
5 3 8 16 6 28 -5 32 -51 31 -50 -1 0 -15 -5 -21 -15 -20 -21 4 -32 20 -22 33
8 10 21 55 17 55 -2 0 -6 -3 -9 -7z"/>
<path d="M3095 1460 c6 -10 -6 -14 -35 -11 -13 2 -13 0 -1 -8 17 -11 55 5 46
20 -4 5 -8 9 -11 9 -3 0 -2 -4 1 -10z"/>
<path d="M3127 1450 c-9 -11 -13 -20 -7 -20 5 0 14 9 20 20 6 11 9 20 8 20 -2
0 -11 -9 -21 -20z"/>
<path d="M3193 1451 l-23 -19 24 2 c16 1 22 6 18 15 -4 10 -1 12 8 6 9 -5 11
-4 6 3 -9 15 -6 15 -33 -7z"/>
<path d="M3441 1456 c-7 -8 -23 -13 -37 -11 -13 1 -26 -1 -29 -4 -2 -4 14 -7
35 -7 22 0 37 2 35 5 -3 2 0 10 6 18 6 7 9 13 6 13 -2 0 -10 -6 -16 -14z"/>
<path d="M3510 1456 c7 -7 13 -7 20 0 6 6 3 10 -10 10 -13 0 -16 -4 -10 -10z"/>
<path d="M3340 1449 c0 -5 -4 -7 -10 -4 -14 9 -12 -1 3 -13 10 -8 13 -6 14 9
1 10 0 19 -3 19 -2 0 -4 -5 -4 -11z"/>
<path d="M2825 1437 c-25 -29 -26 -40 -2 -18 15 14 27 26 27 28 0 7 -16 1 -25
-10z"/>
<path d="M3276 1438 c3 -4 11 -5 19 -1 21 7 19 12 -4 10 -11 0 -18 -5 -15 -9z"/>
<path d="M3466 1442 c-3 -5 1 -9 9 -9 8 0 12 4 9 9 -3 4 -7 8 -9 8 -2 0 -6 -4
-9 -8z"/>
<path d="M2860 1415 c10 -12 10 -18 0 -30 -9 -10 -9 -15 -1 -15 6 0 11 5 11
10 0 6 7 10 15 10 12 0 11 4 -5 20 -23 23 -38 27 -20 5z"/>
<path d="M2885 1420 c3 -5 11 -10 16 -10 6 0 7 5 4 10 -3 6 -11 10 -16 10 -6
0 -7 -4 -4 -10z"/>
<path d="M3094 1422 c4 -7 3 -12 -1 -12 -5 0 -17 -6 -28 -13 -14 -11 -15 -16
-5 -22 9 -5 11 -4 6 3 -4 7 -3 12 1 12 5 0 17 6 28 13 14 11 15 16 5 22 -9 5
-11 4 -6 -3z"/>
<path d="M3135 1420 c-3 -5 -3 -10 2 -10 4 0 2 -4 -5 -9 -11 -6 -10 -10 4 -15
10 -4 15 -4 11 0 -4 4 1 13 11 21 16 12 16 13 -2 6 -13 -4 -17 -3 -12 5 4 7 5
12 2 12 -3 0 -8 -4 -11 -10z"/>
<path d="M3234 1405 c0 -28 8 -24 13 5 2 11 -1 20 -5 20 -4 0 -8 -11 -8 -25z"/>
<path d="M3307 1419 c7 -9 11 -18 8 -21 -3 -3 3 -11 12 -19 16 -12 17 -12 6 2
-7 9 -11 18 -8 21 3 3 -3 11 -12 19 -16 12 -17 12 -6 -2z"/>
<path d="M3510 1419 c0 -5 5 -7 10 -4 6 3 10 8 10 11 0 2 -4 4 -10 4 -5 0 -10
-5 -10 -11z"/>
<path d="M3470 1416 c0 -2 8 -10 18 -17 15 -13 16 -12 3 4 -13 16 -21 21 -21
13z"/>
<path d="M2803 1387 c-36 -24 -40 -38 -19 -57 8 -6 12 -19 9 -28 -4 -14 -3
-15 5 -2 8 10 7 19 -1 29 -10 12 -9 14 5 8 12 -4 21 0 29 14 6 11 8 23 5 27
-3 3 -6 0 -6 -7 0 -7 -4 -9 -10 -6 -5 3 -7 0 -5 -7 4 -9 -2 -14 -15 -14 -11 0
-20 4 -20 7 0 12 57 49 64 42 3 -3 6 -1 6 5 0 17 -10 14 -47 -11z"/>
<path d="M2706 1374 c-9 -23 -7 -31 3 -15 8 12 12 12 25 2 8 -7 18 -21 21 -32
4 -10 10 -19 15 -19 13 0 -21 56 -41 68 -13 9 -19 7 -23 -4z"/>
<path d="M2911 1380 c3 -30 -1 -41 -13 -34 -7 4 -8 3 -4 -4 10 -16 14 -15 25
6 6 12 6 23 0 33 -8 12 -10 12 -8 -1z"/>
<path d="M3171 1364 c0 -11 3 -14 6 -6 3 7 2 16 -1 19 -3 4 -6 -2 -5 -13z"/>
<path d="M3244 1358 c-12 -14 -13 -18 -3 -10 9 6 18 10 21 7 2 -3 5 2 5 10 0
19 0 19 -23 -7z"/>
<path d="M3290 1376 c0 -2 8 -10 18 -17 15 -13 16 -12 3 4 -13 16 -21 21 -21
13z"/>
<path d="M2870 1360 c-8 -5 -10 -10 -5 -10 6 0 17 5 25 10 8 5 11 10 5 10 -5
0 -17 -5 -25 -10z"/>
<path d="M2990 1365 c0 -5 5 -17 10 -25 5 -8 10 -10 10 -5 0 6 -5 17 -10 25
-5 8 -10 11 -10 5z"/>
<path d="M3025 1359 c-4 -6 -4 -13 -1 -16 3 -4 6 -1 6 6 0 8 6 11 16 7 8 -3
12 -2 9 4 -8 13 -22 13 -30 -1z"/>
<path d="M3090 1360 c0 -5 5 -10 10 -10 6 0 10 5 10 10 0 6 -4 10 -10 10 -5 0
-10 -4 -10 -10z"/>
<path d="M2666 1339 c-14 -14 -17 -22 -9 -30 12 -12 53 -3 53 11 0 5 6 8 13 6
6 -1 9 -1 4 1 -4 3 -4 9 -1 15 3 5 -3 4 -15 -4 -12 -7 -21 -16 -21 -20 0 -5
-7 -8 -15 -8 -20 0 -19 10 2 26 10 7 16 14 13 17 -3 2 -14 -4 -24 -14z"/>
<path d="M2955 1349 c6 -9 3 -11 -11 -6 -18 7 -18 6 -2 -6 10 -8 14 -18 10
-22 -4 -5 -1 -5 6 -1 7 4 9 12 6 18 -5 7 -1 9 9 5 24 -9 21 0 -4 14 -17 9 -20
8 -14 -2z"/>
<path d="M2839 1338 c-1 -7 -1 -19 0 -27 2 -7 -2 -10 -7 -7 -9 6 -42 -35 -42
-51 0 -4 9 5 19 20 10 16 22 28 27 28 5 -1 10 10 11 24 2 25 -6 37 -8 13z"/>
<path d="M3185 1339 c-3 -4 2 -6 10 -5 21 3 28 13 10 13 -9 0 -18 -4 -20 -8z"/>
<path d="M3052 1320 c0 -14 2 -19 5 -12 2 6 2 18 0 25 -3 6 -5 1 -5 -13z"/>
<path d="M3255 1329 c-4 -6 -5 -12 -2 -15 2 -3 7 2 10 11 7 17 1 20 -8 4z"/>
<path d="M2868 1323 c7 -3 16 -2 19 1 4 3 -2 6 -13 5 -11 0 -14 -3 -6 -6z"/>
<path d="M2915 1321 c-6 -11 13 -26 22 -17 4 3 1 6 -6 6 -7 0 -9 5 -6 10 3 6
4 10 1 10 -3 0 -7 -4 -11 -9z"/>
<path d="M3005 1317 c-14 -11 -15 -16 -5 -22 9 -6 11 -4 5 5 -6 9 -4 12 7 8 9
-4 15 0 15 8 0 17 1 17 -22 1z"/>
<path d="M3070 1323 c0 -6 8 -17 18 -24 16 -13 16 -13 2 6 -8 11 -16 22 -17
24 -2 2 -3 0 -3 -6z"/>
<path d="M2742 1296 c10 -7 15 -16 11 -20 -4 -4 0 -4 10 0 17 6 17 7 0 20 -10
7 -22 13 -28 13 -5 0 -2 -6 7 -13z"/>
<path d="M2880 1295 c-9 -10 -9 -15 -1 -15 6 0 11 5 11 11 0 5 5 7 12 3 7 -4
8 -3 4 4 -9 15 -11 15 -26 -3z"/>
<path d="M3120 1300 c-9 -6 -10 -10 -3 -10 6 0 15 5 18 10 8 12 4 12 -15 0z"/>
<path d="M3155 1302 c3 -3 -1 -12 -7 -21 -8 -10 -4 -9 10 3 26 23 26 23 7 23
-8 0 -13 -3 -10 -5z"/>
<path d="M2633 1285 c0 -8 4 -12 9 -9 4 3 8 9 8 15 0 5 -4 9 -8 9 -5 0 -9 -7
-9 -15z"/>
<path d="M2710 1290 c0 -5 5 -10 11 -10 5 0 7 5 4 10 -3 6 -8 10 -11 10 -2 0
-4 -4 -4 -10z"/>
<path d="M3256 1287 c3 -10 9 -15 12 -12 3 3 0 11 -7 18 -10 9 -11 8 -5 -6z"/>
<path d="M2666 1279 c2 -4 -2 -9 -8 -12 -7 -2 -11 -7 -8 -10 3 -3 16 2 28 12
21 16 22 17 3 17 -11 0 -18 -3 -15 -7z"/>
<path d="M2840 1275 c-7 -9 -11 -17 -9 -20 3 -2 10 5 17 15 14 24 10 26 -8 5z"/>
<path d="M2916 1275 c-9 -26 -7 -32 5 -12 6 10 9 21 6 23 -2 3 -7 -2 -11 -11z"/>
<path d="M3056 1278 c3 -5 10 -6 15 -3 13 9 11 12 -6 12 -8 0 -12 -4 -9 -9z"/>
<path d="M2693 1254 c-3 -7 -3 -19 0 -26 3 -7 6 -4 6 7 1 13 8 21 20 22 14 1
18 -3 14 -13 -3 -8 -1 -14 5 -14 6 0 9 8 8 18 -3 20 -45 26 -53 6z"/>
<path d="M2854 1258 c-4 -7 -4 -10 1 -6 4 4 14 0 22 -10 13 -15 13 -15 3 6
-12 25 -16 27 -26 10z"/>
<path d="M2957 1257 c4 -7 -1 -8 -13 -3 -15 6 -17 5 -6 -5 10 -11 15 -10 28 2
13 14 13 16 0 16 -8 0 -12 -5 -9 -10z"/>
<path d="M3030 1263 c0 -5 5 -15 10 -23 7 -12 9 -10 7 8 -1 19 -17 33 -17 15z"/>
<path d="M2812 1240 c0 -14 2 -19 5 -12 2 6 2 18 0 25 -3 6 -5 1 -5 -13z"/>
<path d="M3090 1256 c0 -2 8 -10 18 -17 15 -13 16 -12 3 4 -13 16 -21 21 -21
13z"/>
<path d="M3135 1251 c-3 -5 -2 -12 3 -15 5 -3 9 1 9 9 0 17 -3 19 -12 6z"/>
<path d="M2760 1246 c0 -2 7 -7 16 -10 8 -3 12 -2 9 4 -6 10 -25 14 -25 6z"/>
<path d="M2975 1241 c-3 -5 -2 -12 3 -15 5 -3 9 1 9 9 0 17 -3 19 -12 6z"/>
<path d="M2644 1219 c-5 -8 -3 -9 6 -4 10 6 12 4 7 -8 -3 -10 -2 -17 3 -17 13
0 13 27 1 35 -5 3 -13 0 -17 -6z"/>
<path d="M2710 1220 c0 -6 7 -10 15 -10 8 0 15 2 15 4 0 2 -7 6 -15 10 -8 3
-15 1 -15 -4z"/>
<path d="M2755 1220 c-3 -5 -1 -10 4 -10 6 0 11 5 11 10 0 6 -2 10 -4 10 -3 0
-8 -4 -11 -10z"/>
<path d="M2780 1213 c0 -19 21 -27 33 -13 9 10 9 11 -2 5 -8 -4 -17 -2 -22 6
-6 9 -9 10 -9 2z"/>
<path d="M2687 1199 c7 -7 15 -10 18 -7 3 3 -2 9 -12 12 -14 6 -15 5 -6 -5z"/>
<path d="M2896 1193 c-6 -14 -5 -15 5 -6 7 7 10 15 7 18 -3 3 -9 -2 -12 -12z"/>
<path d="M3033 1185 c0 -8 4 -12 9 -9 5 3 6 10 3 15 -9 13 -12 11 -12 -6z"/>
<path d="M3210 1180 c0 -5 5 -10 11 -10 5 0 7 5 4 10 -3 6 -8 10 -11 10 -2 0
-4 -4 -4 -10z"/>
<path d="M2746 1163 c-6 -14 -5 -15 5 -6 7 7 10 15 7 18 -3 3 -9 -2 -12 -12z"/>
<path d="M3150 1176 c0 -2 8 -10 18 -17 15 -13 16 -12 3 4 -13 16 -21 21 -21
13z"/>
<path d="M2859 1153 c-13 -16 -12 -17 4 -4 9 7 17 15 17 17 0 8 -8 3 -21 -13z"/>
<path d="M2916 1159 c4 -8 30 -6 38 2 3 3 -5 5 -19 5 -13 0 -22 -3 -19 -7z"/>
<path d="M2995 1151 c-3 -5 -2 -12 3 -15 5 -3 9 1 9 9 0 17 -3 19 -12 6z"/>
<path d="M2644 1139 c-3 -6 -1 -16 5 -22 9 -9 10 -7 5 7 -6 15 -4 17 6 11 9
-5 11 -4 6 3 -9 15 -13 15 -22 1z"/>
<path d="M2708 1143 c7 -3 16 -2 19 1 4 3 -2 6 -13 5 -11 0 -14 -3 -6 -6z"/>
<path d="M2876 1141 c-3 -5 2 -15 12 -22 15 -12 16 -12 5 2 -7 9 -10 19 -6 22
3 4 4 7 0 7 -3 0 -8 -4 -11 -9z"/>
<path d="M2900 1146 c0 -2 8 -10 18 -17 15 -13 16 -12 3 4 -13 16 -21 21 -21
13z"/>
<path d="M2741 1124 c0 -11 3 -14 6 -6 3 7 2 16 -1 19 -3 4 -6 -2 -5 -13z"/>
<path d="M2800 1126 c7 -7 13 -7 20 0 6 6 3 10 -10 10 -13 0 -16 -4 -10 -10z"/>
<path d="M2833 1112 c-8 -14 -8 -19 1 -19 7 0 13 9 13 19 1 10 1 18 0 18 -1 0
-7 -8 -14 -18z"/>
<path d="M2674 1095 c3 -23 12 -26 13 -5 1 11 -2 20 -7 20 -4 0 -7 -7 -6 -15z"/>
<path d="M3174 1098 c-4 -7 -4 -10 1 -6 4 4 15 2 24 -5 14 -11 14 -10 2 6 -16
20 -18 21 -27 5z"/>
<path d="M2895 1089 c-4 -6 -5 -12 -2 -15 2 -3 7 2 10 11 7 17 1 20 -8 4z"/>
<path d="M2755 1081 c3 -3 17 -6 31 -7 13 0 22 2 19 5 -3 3 -17 6 -31 7 -13 0
-22 -2 -19 -5z"/>
<path d="M2740 1066 c0 -2 8 -10 18 -17 15 -13 16 -12 3 4 -13 16 -21 21 -21
13z"/>
<path d="M3015 1060 c3 -5 8 -10 11 -10 2 0 4 5 4 10 0 6 -5 10 -11 10 -5 0
-7 -4 -4 -10z"/>
<path d="M2699 1047 c8 -9 16 -15 19 -12 3 3 12 -1 21 -8 14 -11 14 -10 2 6
-8 9 -16 15 -19 12 -3 -3 -12 1 -21 8 -14 11 -14 10 -2 -6z"/>
<path d="M2975 1020 c3 -5 8 -10 11 -10 2 0 4 5 4 10 0 6 -5 10 -11 10 -5 0
-7 -4 -4 -10z"/>
<path d="M2760 1006 c0 -2 8 -10 18 -17 15 -13 16 -12 3 4 -13 16 -21 21 -21
13z"/>
<path d="M2890 980 c0 -5 5 -10 11 -10 5 0 7 5 4 10 -3 6 -8 10 -11 10 -2 0
-4 -4 -4 -10z"/>
<path d="M2980 960 c-9 -6 -10 -10 -3 -10 6 0 15 5 18 10 8 12 4 12 -15 0z"/>
</g>
</svg>
