<?xml version="1.0" standalone="no"?>
<!DOCTYPE svg PUBLIC "-//W3C//DTD SVG 20010904//EN"
 "http://www.w3.org/TR/2001/REC-SVG-20010904/DTD/svg10.dtd">
<svg version="1.0" xmlns="http://www.w3.org/2000/svg"
 width="512.000000pt" height="512.000000pt" viewBox="0 0 512.000000 512.000000"
 preserveAspectRatio="xMidYMid meet">
<metadata>
Created by potrace 1.14, written by Peter Selinger 2001-2017
</metadata>
<g transform="translate(0.000000,512.000000) scale(0.100000,-0.100000)"
fill="#000000" stroke="none">
<path d="M3590 4740 l-465 -5 450 -1 c248 -1 585 2 750 6 l300 6 -285 0 c-157
-1 -494 -3 -750 -6z"/>
<path d="M4697 4741 c67 -6 75 -9 103 -41 31 -35 31 -36 27 -133 -3 -70 -1
-100 8 -105 7 -4 16 -18 20 -32 7 -22 6 -23 -8 -11 -9 7 -14 18 -10 25 4 6 -1
4 -12 -4 -16 -13 -16 -15 -2 -18 10 -2 17 -8 17 -13 0 -6 -4 -8 -9 -5 -5 3
-11 -1 -14 -9 -4 -10 -1 -12 10 -8 12 5 14 2 9 -8 -4 -8 0 -5 9 6 9 11 24 19
33 17 10 -2 13 1 7 5 -14 11 -12 46 3 51 6 2 12 0 13 -5 0 -4 2 -15 4 -24 1
-9 -15 -36 -36 -60 -21 -24 -36 -37 -33 -28 3 9 -1 19 -9 22 -10 4 -14 -2 -13
-20 1 -18 -5 -27 -17 -29 -11 -1 -22 -6 -25 -10 -4 -4 1 -4 11 -1 11 4 17 1
17 -8 0 -8 -5 -15 -11 -15 -5 0 -7 -5 -3 -12 13 -21 12 -67 -2 -61 -6 2 -15
-1 -20 -8 -4 -7 -3 -10 4 -5 6 3 16 -2 21 -13 13 -24 -11 -53 -36 -44 -11 4
-14 3 -9 -6 5 -7 14 -10 20 -8 15 6 40 -30 26 -38 -5 -3 -13 3 -19 12 -6 11
-11 13 -11 5 0 -7 -5 -10 -12 -6 -7 4 -8 3 -4 -4 4 -7 3 -12 -2 -12 -5 0 -9
-7 -9 -15 0 -20 14 -19 26 3 6 10 11 12 11 4 0 -7 4 -11 9 -7 5 3 12 1 16 -5
3 -5 1 -10 -6 -10 -7 0 -8 -4 -2 -12 5 -7 9 -35 7 -63 -3 -67 -2 -65 -19 -65
-8 0 -15 -5 -15 -11 0 -5 5 -7 12 -3 7 4 8 3 4 -5 -6 -9 -11 -9 -22 0 -8 6
-17 9 -21 5 -3 -3 -1 -6 5 -6 7 0 12 -7 12 -15 0 -13 4 -14 20 -5 14 7 20 7
20 0 0 -5 -6 -10 -12 -10 -9 0 -10 -2 -2 -8 21 -13 26 -50 9 -60 -14 -7 -15
-11 -3 -23 19 -21 20 -39 2 -39 -8 0 -12 5 -9 10 3 6 1 10 -5 10 -6 0 -9 4 -5
9 8 14 -9 21 -25 10 -11 -6 -12 -9 -2 -9 7 0 10 -5 6 -12 -4 -7 -3 -8 4 -4 7
4 12 1 12 -9 0 -9 -4 -14 -8 -11 -5 3 -9 -1 -9 -9 0 -8 4 -12 8 -9 4 2 9 1 12
-3 2 -5 2 -2 1 5 -5 18 23 15 30 -4 9 -24 7 -31 -4 -14 -8 12 -10 10 -10 -9 0
-23 -1 -23 -19 -7 -14 13 -21 14 -27 5 -4 -7 -3 -10 3 -6 12 8 46 -27 49 -51
2 -12 -3 -10 -17 8 -18 22 -19 23 -9 3 6 -13 8 -23 4 -23 -3 0 -1 -7 6 -15 7
-8 16 -12 21 -9 5 3 9 0 9 -5 0 -6 -7 -11 -15 -11 -8 0 -15 5 -15 10 0 6 -4
10 -8 10 -18 0 -8 -26 11 -27 25 -2 29 -7 21 -26 -4 -12 -11 -14 -22 -8 -12 6
-22 4 -32 -7 -13 -14 -12 -15 2 -10 12 5 15 1 13 -18 -1 -13 2 -24 7 -24 6 0
8 -7 5 -14 -4 -9 -1 -13 6 -10 8 3 13 -7 13 -25 2 -49 13 -81 29 -81 24 0 35
-32 17 -48 -15 -12 -15 -13 5 -9 12 3 27 -1 34 -9 9 -11 8 -14 -4 -14 -10 0
-14 -6 -11 -15 4 -9 0 -15 -10 -15 -9 0 -16 -5 -16 -12 0 -6 3 -8 7 -5 3 4 13
1 21 -6 13 -10 14 -9 7 3 -8 13 -6 13 8 2 17 -15 20 -105 3 -94 -5 3 -7 -2 -3
-11 7 -19 -1 -21 -22 -8 -16 11 -41 4 -41 -11 0 -6 9 -8 20 -5 28 7 46 -18 29
-40 -10 -11 -10 -14 -1 -9 7 4 12 1 12 -9 0 -9 -5 -13 -10 -10 -6 4 -17 1 -25
-5 -22 -18 -36 -3 -23 25 13 30 5 43 -17 25 -10 -8 -12 -17 -6 -24 6 -7 4 -18
-5 -30 -14 -20 -17 -17 -15 19 0 15 -3 12 -14 -10 -8 -16 -14 -24 -15 -18 0 9
-7 10 -25 3 -15 -6 -26 -6 -30 0 -7 11 35 31 47 23 4 -2 5 4 1 13 -4 12 -3 15
5 10 7 -4 12 -2 12 3 0 14 -17 14 -25 1 -4 -6 -11 -7 -17 -4 -7 4 -8 2 -4 -4
4 -7 3 -12 -3 -12 -5 0 -14 8 -19 17 -9 16 -11 16 -27 0 -21 -21 -29 -22 -21
-1 5 14 4 15 -8 5 -13 -11 -12 -15 2 -30 16 -16 17 -16 24 1 4 10 12 18 18 18
27 0 -7 -42 -38 -46 -9 -2 -24 2 -35 8 -13 7 -22 7 -29 0 -6 -6 -16 -8 -23 -6
-7 3 -16 1 -20 -5 -4 -8 -12 -8 -25 -1 -13 7 -21 7 -26 -1 -4 -8 -9 -7 -15 2
-5 9 -2 17 9 22 12 5 11 6 -6 3 -14 -3 -25 1 -29 10 -3 8 -9 14 -15 14 -5 0
-6 -4 -3 -10 3 -5 -2 -10 -12 -11 -16 0 -16 -1 2 -8 11 -5 23 -7 28 -4 4 2 7
-1 7 -6 0 -6 -10 -11 -22 -12 -83 -4 -106 -3 -102 3 3 4 -5 6 -16 5 -11 -1
-19 -6 -16 -12 2 -6 -5 -11 -15 -11 -21 0 -26 12 -7 18 9 3 9 6 0 12 -7 4 -12
2 -12 -5 0 -8 -4 -8 -15 1 -16 13 -21 35 -7 26 5 -3 9 1 9 9 0 13 -3 13 -17 0
-9 -8 -20 -12 -23 -8 -4 3 -7 2 -7 -4 0 -5 11 -15 25 -21 31 -14 33 -42 3 -42
-12 0 -18 -3 -15 -7 11 -11 -14 -32 -30 -26 -11 4 -14 2 -9 -5 11 -17 -21 -27
-39 -12 -9 7 -18 10 -22 6 -3 -3 -2 -6 4 -6 6 0 13 -10 16 -22 5 -18 8 -19 21
-8 10 8 16 8 16 2 0 -6 -5 -14 -11 -17 -6 -4 -8 -13 -5 -21 3 -8 1 -14 -3 -14
-5 0 -12 6 -14 13 -4 9 -6 9 -6 0 -1 -6 4 -15 9 -18 18 -11 11 -27 -9 -20 -11
3 -22 1 -26 -5 -4 -6 5 -10 22 -11 22 0 24 -2 10 -8 -10 -4 -18 -10 -18 -14 2
-17 0 -19 -12 -9 -22 19 -39 -1 -27 -32 5 -15 10 -46 11 -69 l1 -42 8 33 c4
18 10 36 14 39 3 3 -3 17 -14 31 -11 13 -17 29 -13 34 5 9 37 -50 33 -61 -1
-2 10 -11 25 -21 19 -12 23 -19 13 -23 -10 -4 -10 -6 0 -6 7 -1 10 -5 7 -11
-4 -7 158 -10 479 -10 l486 0 0 935 0 935 -106 0 c-67 0 -103 -4 -99 -10 3 -5
-1 -10 -9 -10 -9 0 -16 4 -16 9 0 6 -9 9 -19 8 -11 0 -17 -5 -15 -9 3 -4 -2
-8 -10 -8 -12 0 -14 5 -6 26 6 14 10 59 10 99 0 72 -1 75 -38 115 l-39 40 -74
-2 -74 -1 72 -6z m183 -275 c0 -3 -4 -8 -10 -11 -5 -3 -10 -1 -10 4 0 6 5 11
10 11 6 0 10 -2 10 -4z"/>
<path d="M4595 4722 c-44 -1 -403 -6 -797 -10 l-716 -7 -24 -22 c-14 -13 -34
-23 -46 -23 -12 0 -22 -4 -22 -10 0 -5 7 -6 17 -3 11 4 14 3 9 -5 -7 -12 -16
-69 -18 -112 -2 -42 32 -101 64 -112 28 -10 37 -31 18 -43 -5 -3 -10 -1 -10 4
0 6 -7 11 -15 11 -9 0 -18 7 -21 15 -4 8 -12 15 -19 15 -7 0 -20 10 -29 23
-16 22 -16 22 -6 0 5 -12 19 -28 29 -35 11 -8 21 -20 23 -28 2 -8 6 -18 11
-21 9 -7 11 -367 2 -390 -3 -9 3 -32 15 -52 22 -37 19 -63 -6 -53 -16 6 -19
-21 -5 -44 6 -8 7 -19 3 -24 -9 -16 -10 -96 -1 -96 15 0 10 -22 -8 -36 -12 -9
-13 -13 -5 -14 9 0 11 -10 6 -35 -4 -23 -2 -35 5 -35 16 0 14 -30 -2 -36 -8
-3 -14 -18 -14 -35 0 -23 6 -31 24 -35 15 -4 23 -14 23 -28 0 -11 3 -31 6 -43
5 -18 1 -25 -17 -32 -53 -20 -69 -47 -69 -114 1 -80 14 -138 36 -154 13 -10
83 -13 278 -13 255 0 262 -1 313 -24 66 -31 77 -51 107 -197 5 -23 13 -28 51
-33 30 -5 45 -12 45 -22 0 -11 -4 -12 -19 -4 -11 5 -32 10 -48 10 l-28 -1 28
-22 c20 -17 27 -32 27 -57 0 -31 1 -32 14 -15 12 17 13 12 9 -46 -6 -71 10
-118 47 -142 11 -6 20 -15 20 -20 0 -4 -5 -5 -11 -2 -6 4 -5 -3 3 -14 12 -19
13 -20 16 -4 2 10 8 23 14 28 7 7 8 -61 4 -205 -3 -118 -9 -363 -12 -545 -4
-181 -9 -359 -13 -395 l-6 -65 -40 53 c-26 34 -46 51 -57 48 -9 -2 -20 1 -23
8 -4 8 -6 8 -11 -1 -4 -9 -11 -9 -30 -1 -13 6 -24 15 -24 20 0 4 -5 8 -11 8
-6 0 2 -15 17 -32 15 -18 33 -32 40 -30 9 2 13 -5 11 -19 -2 -18 10 -28 58
-54 33 -18 61 -38 63 -46 1 -8 -28 -54 -66 -104 -37 -49 -83 -116 -102 -147
-19 -32 -38 -58 -42 -58 -4 0 -8 -4 -8 -10 0 -26 23 -4 66 63 45 70 124 165
124 149 0 -5 -5 -13 -12 -20 -6 -6 -8 -15 -4 -19 4 -4 12 0 17 10 17 29 29 19
29 -24 0 -22 4 -38 9 -35 5 4 8 35 7 71 -1 42 3 70 12 82 13 17 13 16 7 -6 -4
-14 -3 -21 2 -18 6 4 8 -3 6 -16 -3 -14 2 -29 13 -38 16 -13 17 -12 11 10 -5
21 -1 19 34 -15 23 -21 55 -59 72 -84 17 -25 70 -92 117 -148 47 -57 104 -129
128 -160 24 -32 69 -84 101 -117 32 -33 84 -95 116 -139 54 -71 119 -136 137
-136 3 0 9 8 12 18 3 9 4 2 2 -16 -1 -18 1 -35 6 -38 4 -3 8 7 7 23 -1 33 -16
123 -18 106 -3 -28 -21 -11 -21 20 0 21 -7 36 -20 45 -11 7 -20 17 -20 23 0 5
5 7 11 3 8 -5 8 -1 0 14 -6 11 -16 23 -23 26 -7 3 1 4 17 3 27 -2 30 -5 29
-34 -1 -18 2 -33 6 -33 5 0 11 -8 13 -17 8 -31 -2 44 -33 262 -52 363 -50 340
-22 369 15 15 20 24 11 24 -38 -2 -48 3 -47 25 1 12 8 30 16 40 8 9 12 17 7
17 -4 0 -2 7 5 15 9 10 9 15 1 15 -6 0 -11 10 -11 23 0 12 4 18 8 12 12 -17
31 -15 37 4 7 23 32 34 41 19 4 -6 3 -8 -3 -5 -14 9 -41 -33 -48 -73 l-6 -32
24 26 c13 14 27 23 30 19 4 -3 7 1 7 11 0 10 6 27 12 39 7 12 13 31 13 41 0
12 8 20 23 22 14 3 21 0 17 -6 -11 -17 0 -11 34 19 18 16 34 37 35 48 2 10 8
18 14 18 6 0 14 3 18 7 4 5 0 8 -9 8 -23 0 -21 17 2 30 35 18 41 12 26 -30
-17 -49 -1 -43 20 7 11 25 19 33 30 29 12 -4 14 -2 6 11 -7 13 -3 23 17 42 18
16 23 26 14 29 -10 3 -8 8 5 18 10 7 -110 -29 -267 -81 -406 -135 -501 -164
-497 -152 1 5 21 17 44 26 23 9 50 26 61 39 22 25 37 29 28 7 -6 -17 9 -21 19
-5 3 6 15 10 26 10 26 0 179 63 179 74 0 4 -10 6 -22 3 -22 -6 -22 -5 -4 8 10
8 23 12 27 9 5 -3 6 1 3 9 -3 8 -23 22 -45 30 -24 9 -38 21 -34 27 4 7 12 5
22 -5 12 -12 18 -13 29 -4 10 8 14 8 14 0 0 -6 7 -11 15 -11 8 0 15 7 15 16 0
13 7 15 28 11 36 -7 64 8 42 23 -19 13 -100 1 -118 -16 -19 -20 -27 -17 -11 3
13 15 11 16 -22 11 -20 -4 -42 -3 -49 2 -7 5 -23 4 -35 0 -14 -5 -27 -4 -33 2
-8 8 -15 8 -26 -1 -10 -8 -16 -9 -21 -1 -3 6 -12 7 -18 3 -7 -4 -23 -6 -36 -4
-13 1 -28 -3 -33 -11 -7 -10 -11 -10 -15 0 -8 20 -31 14 -45 -12 -7 -13 -40
-53 -73 -88 -33 -34 -80 -84 -104 -110 l-43 -48 23 -10 c23 -10 23 -10 1 -6
-15 3 -27 -3 -37 -17 -14 -20 -15 -17 -13 43 1 63 1 64 8 20 7 -47 9 -43 16
27 3 34 1 41 -11 36 -13 -4 -15 12 -13 114 1 103 4 120 17 119 9 -1 16 6 16
14 0 9 -7 14 -17 12 -12 -2 -18 3 -18 15 0 15 2 16 11 3 8 -11 9 -8 5 15 -9
42 -6 178 3 185 10 6 8 90 -1 90 -5 0 -8 11 -8 25 0 14 4 25 9 25 4 0 9 97 10
216 1 119 4 220 7 225 3 5 12 9 20 9 10 0 14 -12 14 -41 0 -23 9 -76 19 -118
11 -42 27 -111 37 -154 10 -43 20 -73 23 -68 3 5 7 -15 8 -44 1 -29 9 -70 19
-91 9 -22 22 -59 30 -84 l14 -45 -6 63 c-3 40 -1 62 6 62 9 0 15 -29 11 -52 0
-5 3 -8 7 -8 11 0 33 -96 30 -130 -1 -14 2 -44 6 -67 6 -35 5 -44 -8 -49 -9
-3 -16 -13 -16 -21 0 -19 39 21 107 108 50 63 51 65 32 78 -12 7 -18 18 -15
27 3 8 2 12 -3 9 -11 -6 -26 32 -22 54 1 7 -2 11 -6 8 -5 -3 -15 4 -23 16 -12
21 -12 21 5 7 10 -8 -39 96 -108 232 -70 136 -127 254 -127 263 0 8 12 25 26
38 49 42 57 69 38 140 -8 34 -25 72 -37 84 -23 26 -16 43 10 22 11 -9 14 -10
9 -2 -5 9 0 12 15 10 16 -1 23 4 25 22 3 14 9 30 15 37 7 8 6 14 -2 20 -7 4
-9 3 -5 -4 3 -6 0 -14 -8 -19 -14 -8 -16 -12 -16 -32 0 -5 -9 -11 -20 -14 -15
-4 -20 0 -20 15 0 21 -10 20 -79 -8 l-34 -14 6 -60 c4 -32 3 -62 -2 -65 -5 -3
-12 21 -16 52 -4 32 -11 84 -16 116 -10 59 -5 97 12 97 5 0 9 -10 9 -22 0 -17
3 -19 9 -10 7 11 9 11 14 -1 3 -7 1 -20 -4 -28 -11 -18 -12 -59 0 -59 5 0 26
7 46 16 21 8 46 13 56 11 14 -4 16 1 13 34 -6 46 13 93 55 141 53 61 83 67
382 70 328 4 309 -5 309 141 0 99 0 100 -35 143 -19 23 -31 45 -26 48 5 3 7
16 3 28 -3 11 -1 19 4 16 5 -4 9 7 10 23 1 24 -1 27 -13 17 -12 -10 -14 4 -13
98 1 60 1 201 1 313 -1 112 2 208 5 213 3 5 6 34 6 63 1 30 4 52 9 50 4 -3 10
1 12 7 4 10 8 10 15 -1 7 -9 12 -10 16 -2 4 6 2 11 -3 11 -6 0 -10 5 -9 11 2
6 -3 14 -11 17 -8 2 -11 0 -7 -6 3 -5 -2 -13 -11 -16 -10 -4 -14 -4 -10 0 4 4
2 13 -4 20 -11 14 -2 64 13 64 5 0 7 3 4 8 -2 4 2 16 10 27 8 10 14 14 14 7 0
-6 7 -9 15 -6 22 9 18 24 -5 24 -11 0 -23 -7 -26 -15 -7 -17 -24 -21 -24 -5 0
5 10 20 23 34 50 54 49 53 45 160 -3 91 -6 106 -28 132 -27 32 -22 32 -175 26z
m114 -112 c-1 -17 -3 -19 -6 -7 -2 9 -9 14 -16 10 -6 -3 -94 -5 -196 -2 -102
2 -249 3 -326 2 -132 -1 -135 0 -60 8 44 5 136 7 205 4 69 -3 150 -1 180 3 30
4 92 8 137 7 82 0 83 0 82 -25z m-1284 0 c35 -6 10 -7 -80 -3 -71 4 -134 6
-140 5 -55 -5 -71 -12 -82 -33 -12 -23 -13 -23 -13 13 l0 37 133 -5 c72 -3
155 -9 182 -14z m535 12 c17 -6 -39 -9 -176 -10 -110 0 -205 3 -211 6 -17 11
359 15 387 4z m-883 -314 c-3 -8 -6 -5 -6 6 -1 11 2 17 5 13 3 -3 4 -12 1 -19z
m0 -325 c-2 -32 -3 -6 -3 57 0 63 1 89 3 58 2 -32 2 -84 0 -115z m0 -175 c-3
-7 -5 -2 -5 12 0 14 2 19 5 13 2 -7 2 -19 0 -25z m17 -147 c3 -5 -1 -11 -9
-15 -9 -3 -15 0 -15 9 0 16 16 20 24 6z m-17 -73 c-3 -8 -6 -5 -6 6 -1 11 2
17 5 13 3 -3 4 -12 1 -19z m3 -68 c0 -11 -4 -20 -9 -20 -5 0 -7 9 -4 20 3 11
7 20 9 20 2 0 4 -9 4 -20z m244 -288 c104 -2 197 -7 206 -12 9 -5 22 -5 30 0
8 5 22 4 33 -2 12 -6 43 -8 77 -4 31 4 67 2 81 -3 18 -8 0 -10 -74 -8 -159 3
-108 -17 66 -27 91 -5 157 -13 157 -18 0 -6 -14 -8 -32 -5 -18 3 -168 8 -333
12 -165 3 -328 8 -362 11 l-63 6 0 41 c1 35 3 39 13 27 10 -12 48 -16 201 -18z
m731 -22 c-3 -5 -1 -10 4 -10 6 0 11 5 11 10 0 6 8 10 18 9 9 0 12 -3 5 -5 -7
-3 -10 -11 -7 -17 6 -16 -121 -23 -131 -8 -7 12 3 14 51 11 18 -1 35 3 39 9 3
6 8 11 11 11 3 0 2 -4 -1 -10z m368 0 c12 0 16 -4 11 -12 -4 -8 1 -6 12 2 26
22 150 16 159 -8 9 -25 -8 -28 -127 -25 -62 2 -136 3 -165 3 -28 0 -54 4 -58
10 -8 13 -45 13 -45 -1 0 -5 -4 -7 -10 -4 -5 3 -10 12 -10 20 0 15 62 22 160
18 30 -1 63 -2 73 -3z m-491 -32 c-7 -7 -12 -8 -12 -2 0 6 3 14 7 17 3 4 9 5
12 2 2 -3 -1 -11 -7 -17z m231 15 c-13 -2 -33 -2 -45 0 -13 2 -3 4 22 4 25 0
35 -2 23 -4z m527 -17 c0 -11 -19 -15 -25 -6 -3 5 1 10 9 10 9 0 16 -2 16 -4z
m-580 -22 c0 -2 -12 -4 -26 -4 -14 0 -23 4 -20 9 6 8 46 4 46 -5z m-87 -1
c-18 -2 -48 -2 -65 0 -18 2 -4 4 32 4 36 0 50 -2 33 -4z m-113 -120 c-8 -3
-24 -14 -35 -24 -11 -10 -24 -17 -30 -16 -5 1 -11 -13 -13 -31 -2 -18 -8 -30
-13 -27 -31 20 26 99 74 102 18 0 25 -1 17 -4z m70 -53 c12 -23 12 -24 -3 -11
-10 7 -17 20 -17 29 0 18 3 16 20 -18z m-94 -22 c-25 -32 -36 -35 -36 -10 0
23 15 38 39 38 18 0 18 -2 -3 -28z m-32 -64 c12 -5 16 -21 17 -68 0 -33 4 -86
8 -116 8 -52 7 -69 -3 -59 -3 3 -11 36 -19 73 -10 51 -11 78 -4 102 9 28 7 37
-8 54 -19 21 -17 24 9 14z m166 -221 c0 -8 -5 -11 -12 -7 -10 6 -10 4 0 -7 21
-23 13 -33 -10 -13 l-23 19 23 -26 c19 -22 21 -28 8 -38 -28 -24 -79 -24 -109
-1 -28 22 -35 40 -16 40 5 0 7 -4 4 -10 -10 -16 28 -12 53 6 12 8 22 12 21 7
-3 -17 1 -24 11 -18 7 4 7 13 0 26 -9 15 -7 19 5 19 9 0 13 5 10 10 -4 6 -11
8 -16 5 -5 -4 -9 -1 -9 5 0 7 8 9 21 5 16 -6 20 -4 13 6 -6 12 -5 12 9 0 9 -7
17 -20 17 -28z m-139 -96 c23 -21 20 -31 -5 -21 -21 8 -46 55 -46 86 1 19 3
17 16 -12 8 -19 24 -43 35 -53z m189 -277 c11 -21 20 -44 20 -50 0 -17 -17
-11 -23 8 -3 9 -10 32 -15 50 -14 43 -7 40 18 -8z m102 -196 c9 -18 9 -18 -6
0 -9 11 -16 14 -16 7 0 -7 -4 -9 -10 -6 -16 10 -12 23 6 21 9 -1 21 -11 26
-22z m-33 -33 c10 -7 11 -13 2 -30 -15 -27 -28 -20 -28 14 0 27 4 30 26 16z
m52 -8 c13 -16 12 -17 -3 -4 -17 13 -22 21 -14 21 2 0 10 -8 17 -17z m29 -44
c0 -6 -4 -7 -10 -4 -5 3 -10 11 -10 16 0 6 5 7 10 4 6 -3 10 -11 10 -16z
m-110 1 c0 -5 -4 -10 -10 -10 -5 0 -10 5 -10 10 0 6 5 10 10 10 6 0 10 -4 10
-10z m67 -42 c-3 -7 -5 -2 -5 12 0 14 2 19 5 13 2 -7 2 -19 0 -25z m287 -479
c-8 -14 -24 -10 -24 6 0 9 6 12 15 9 8 -4 12 -10 9 -15z m-84 -19 c-32 -24
-40 -16 -9 9 13 11 26 17 29 14 3 -2 -6 -13 -20 -23z m-210 -35 c-7 -8 -17
-15 -23 -15 -6 0 -2 8 9 19 22 21 33 19 14 -4z m600 11 c0 -2 -7 -9 -15 -16
-13 -11 -14 -10 -9 4 5 14 24 23 24 12z m-620 -85 c0 -13 -28 -22 -35 -11 -3
4 1 11 7 13 20 8 28 8 28 -2z m-85 -10 c-3 -5 7 -11 22 -13 21 -2 12 -7 -38
-20 -36 -10 -74 -21 -84 -24 -12 -5 -16 -4 -12 3 4 6 27 16 51 23 25 7 47 18
50 26 3 8 8 14 11 14 4 0 4 -4 0 -9z m610 -11 c3 -5 2 -10 -4 -10 -5 0 -13 5
-16 10 -3 6 -2 10 4 10 5 0 13 -4 16 -10z m-140 -109 c3 -5 1 -12 -5 -16 -5
-3 -10 0 -10 7 -1 8 -6 6 -15 -6 -8 -11 -15 -15 -15 -10 0 12 21 34 31 34 4 0
10 -4 14 -9z m-5 -60 c13 -13 11 -14 -20 -8 -44 9 -61 25 -24 24 16 -1 36 -8
44 -16z m-205 -53 c5 -5 -5 -6 -25 -2 -19 4 -39 11 -45 16 -5 5 5 6 25 2 19
-4 39 -11 45 -16z m-215 -85 c0 -10 -21 10 -41 40 l-21 32 31 -34 c17 -18 31
-36 31 -38z m262 22 c12 -32 14 -52 8 -68 -10 -22 -10 -22 -8 3 1 33 -18 80
-34 81 -10 0 -10 2 0 6 6 2 10 9 6 14 -3 5 -1 9 3 9 5 0 16 -20 25 -45z m181
-65 c-3 -12 -8 -19 -11 -16 -5 6 5 36 12 36 2 0 2 -9 -1 -20z m-138 -59 c-6
-5 -25 10 -25 20 0 5 6 4 14 -3 8 -7 12 -15 11 -17z m145 19 c0 -5 -5 -10 -11
-10 -5 0 -7 5 -4 10 3 6 8 10 11 10 2 0 4 -4 4 -10z m20 -70 c0 -11 -4 -20 -9
-20 -7 0 -8 17 -2 38 4 10 11 -2 11 -18z m8 -157 c-7 -9 -7 -13 1 -13 6 0 11
-5 11 -11 0 -19 -25 -3 -25 17 -1 10 -5 25 -9 33 -6 10 -5 12 2 7 7 -4 12 -1
13 6 0 7 4 4 8 -7 5 -11 4 -25 -1 -32z m9 -98 c-9 -8 -18 -20 -20 -27 -4 -10
-8 -9 -16 2 -16 22 -13 40 4 34 13 -5 17 1 14 22 0 4 5 11 13 15 19 12 23 -27
5 -46z m17 -27 c-3 -4 -9 -8 -15 -8 -5 0 -9 4 -9 8 0 5 7 9 15 9 8 0 12 -4 9
-9z m-24 -48 c0 -5 -4 -10 -10 -10 -5 0 -10 5 -10 10 0 6 5 10 10 10 6 0 10
-4 10 -10z m30 -74 c0 -3 -4 -8 -10 -11 -5 -3 -10 -1 -10 4 0 6 5 11 10 11 6
0 10 -2 10 -4z"/>
<path d="M4305 3190 c-3 -6 1 -7 9 -4 18 7 21 14 7 14 -6 0 -13 -4 -16 -10z"/>
<path d="M2965 4600 c-3 -5 -1 -10 4 -10 6 0 11 5 11 10 0 6 -2 10 -4 10 -3 0
-8 -4 -11 -10z"/>
<path d="M2955 4540 c3 -5 8 -10 11 -10 2 0 4 5 4 10 0 6 -5 10 -11 10 -5 0
-7 -4 -4 -10z"/>
<path d="M0 3555 l0 -935 1878 0 1877 0 0 64 c0 35 -2 62 -4 60 -3 -2 -10 9
-17 26 -8 19 -20 30 -32 30 -16 0 -20 9 -25 53 -2 28 0 57 5 64 15 18 0 68
-29 97 -42 42 -109 56 -257 54 l-131 -2 112 -3 112 -4 18 -29 c17 -29 33 -39
33 -21 0 5 -7 11 -15 15 -22 8 -19 37 3 30 76 -25 134 -74 80 -68 -13 1 -26 3
-30 3 -5 1 -8 10 -8 20 0 10 -7 22 -16 25 -13 5 -14 3 -6 -7 14 -16 -1 -42
-21 -34 -8 3 -19 1 -24 -4 -6 -6 -14 -4 -23 6 -8 10 -9 15 -1 15 6 0 11 7 11
15 0 8 -7 15 -15 15 -8 0 -14 -4 -12 -9 1 -5 -2 -9 -8 -9 -5 -1 -9 6 -7 14 2
8 -3 14 -11 14 -21 0 -28 -12 -16 -26 9 -10 7 -15 -5 -20 -9 -3 -13 -10 -10
-15 3 -5 0 -9 -5 -9 -15 0 -14 13 2 30 6 7 -4 4 -24 -8 -38 -23 -88 -21 -66 3
7 7 15 11 18 9 4 -2 10 4 13 13 6 15 8 15 16 3 7 -11 10 -11 10 -2 0 17 -33
29 -38 14 -2 -7 -8 -10 -13 -6 -5 3 -9 -2 -9 -10 0 -9 -8 -16 -17 -16 -13 0
-14 3 -5 12 16 16 15 25 -2 25 -10 0 -14 -10 -12 -31 l3 -31 -51 1 c-86 2 -97
4 -91 14 3 5 0 7 -9 4 -11 -4 -13 0 -9 15 4 17 1 21 -18 20 -17 -1 -19 -3 -6
-6 26 -7 20 -23 -9 -23 -14 0 -22 4 -19 10 3 6 -1 7 -9 4 -9 -3 -13 -11 -10
-18 3 -6 -4 0 -15 14 -12 14 -34 39 -50 55 -45 46 -51 67 -51 166 l0 93 39 41
39 40 11 402 c16 584 20 519 -39 587 -27 31 -50 64 -50 72 0 12 -196 14 -1465
14 l-1465 0 0 -935z m620 805 l0 -60 -115 0 -115 0 0 -180 0 -180 -75 0 -75 0
0 240 0 240 190 0 190 0 0 -60z m345 -79 c22 -10 48 -28 58 -39 24 -27 46 -88
47 -129 l0 -33 -135 0 c-83 0 -135 -4 -135 -10 0 -18 40 -50 63 -50 13 0 32 7
43 15 20 15 90 18 133 6 l24 -7 -34 -38 c-18 -22 -48 -45 -66 -52 -42 -18
-154 -18 -196 0 -97 40 -136 185 -74 278 48 72 181 101 272 59z m462 -1 c48
-29 76 -91 76 -172 0 -77 -20 -120 -73 -155 -39 -27 -97 -30 -140 -8 l-30 16
0 -76 0 -75 -70 0 -70 0 0 240 0 240 65 0 c53 0 65 -3 65 -16 0 -14 5 -13 33
5 41 26 102 27 144 1z m440 -12 c104 -68 102 -236 -4 -308 -52 -36 -155 -41
-218 -10 -68 33 -100 86 -100 165 0 77 32 131 97 164 62 32 168 27 225 -11z
m273 -64 l0 -87 66 87 67 86 63 0 64 0 0 -175 0 -175 -65 0 -64 0 -3 81 -3 81
-60 -81 -60 -80 -67 -1 -68 0 0 175 0 175 65 0 65 0 0 -86z m-1660 -559 l0
-35 -75 0 c-57 0 -75 -3 -75 -14 0 -10 18 -15 60 -18 79 -6 111 -34 112 -97 1
-73 -21 -85 -152 -89 l-110 -4 0 146 0 146 120 0 120 0 0 -35z m259 -72 c16
-16 32 -43 36 -60 l7 -33 -81 0 c-64 0 -81 -3 -81 -14 0 -19 39 -31 53 -17 13
13 66 14 85 2 10 -6 6 -15 -18 -35 -26 -21 -42 -26 -86 -26 -45 0 -59 5 -86
29 -48 43 -48 109 0 152 27 25 41 29 87 29 46 0 59 -4 84 -27z m301 -78 l0
-105 -40 0 -40 0 0 80 0 80 -30 0 -30 0 0 -64 c0 -80 -14 -98 -74 -94 -34 2
-42 7 -44 26 -3 17 2 22 17 22 20 0 21 6 21 80 l0 80 110 0 110 0 0 -105z
m251 87 c19 -16 23 -31 27 -105 l5 -87 -37 0 c-23 0 -39 5 -42 15 -5 13 -8 13
-27 0 -47 -33 -137 -7 -137 39 0 29 37 58 90 70 57 13 80 36 36 36 -13 0 -28
-4 -31 -10 -8 -13 -56 -13 -75 0 -13 9 -11 14 13 35 24 21 38 25 91 25 47 0
70 -5 87 -18z m149 8 c0 -7 6 -7 19 0 54 28 115 1 131 -58 22 -84 -25 -149
-100 -139 l-40 5 0 -44 0 -44 -45 0 -45 0 0 145 0 145 40 0 c22 0 40 -5 40
-10z m267 -57 l20 -68 17 57 c9 31 16 61 16 67 0 6 19 11 44 11 l44 0 -49
-132 c-28 -76 -58 -140 -70 -150 -28 -23 -104 -25 -113 -2 -13 34 -7 44 23 38
47 -10 54 18 24 91 -13 33 -33 81 -44 108 l-19 47 44 0 43 0 20 -67z m365 37
c28 -25 31 -31 18 -40 -23 -15 -67 -12 -74 5 -7 18 -37 20 -54 3 -17 -17 -15
-73 3 -88 17 -14 51 -5 59 15 9 25 76 16 76 -10 0 -7 -14 -25 -31 -39 -25 -21
-41 -26 -85 -26 -45 0 -59 5 -86 29 -28 25 -33 36 -33 76 0 40 5 51 33 76 27
25 41 29 87 29 47 0 59 -4 87 -30z m138 -15 c0 -25 3 -45 8 -45 4 1 22 21 40
45 29 40 37 45 72 45 l40 0 0 -105 0 -105 -39 0 -40 0 -3 48 -3 47 -34 -47
c-32 -45 -37 -48 -78 -48 l-43 0 0 105 0 105 40 0 40 0 0 -45z m130 -465 c0
-20 -7 -20 -1050 -20 -1043 0 -1050 0 -1050 20 0 20 7 20 1050 20 1043 0 1050
0 1050 -20z m1118 -98 c2 -7 -2 -10 -12 -6 -9 3 -16 11 -16 16 0 13 23 5 28
-10z m-343 -2 c3 -5 2 -10 -4 -10 -5 0 -13 5 -16 10 -3 6 -2 10 4 10 5 0 13
-4 16 -10z m549 -6 c8 -21 8 -21 -8 -21 -8 0 -14 9 -13 19 2 22 13 24 21 2z
m-3234 -149 l0 -85 -30 0 -30 0 0 65 c0 63 -1 65 -25 65 -24 0 -25 -2 -25 -65
l0 -65 -30 0 -30 0 0 85 0 85 85 0 85 0 0 -85z m145 29 c20 -20 19 -78 -2 -99
-10 -11 -27 -15 -45 -13 -25 4 -28 2 -28 -24 0 -23 -4 -28 -25 -28 -25 0 -25
1 -25 89 l0 90 55 0 c36 0 60 -6 70 -15z m155 -4 c43 -43 10 -110 -53 -110
-40 0 -69 28 -69 65 0 59 79 88 122 45z m160 0 c11 -11 20 -29 20 -40 0 -17
-7 -20 -51 -20 -31 0 -48 -4 -44 -10 4 -6 23 -7 46 -4 42 7 54 -7 20 -26 -48
-25 -121 2 -121 46 0 19 19 56 34 66 22 15 76 8 96 -12z m90 -2 l0 -22 16 22
c17 25 64 30 64 7 0 -8 -6 -15 -14 -15 -24 0 -27 -31 -6 -57 26 -34 25 -43 -5
-43 -16 0 -29 9 -39 28 l-15 27 -1 -27 c0 -24 -4 -28 -30 -28 l-30 0 0 65 0
65 30 0 c24 0 30 -4 30 -22z m210 7 c0 -8 -9 -15 -20 -15 -17 0 -20 -7 -20
-50 0 -47 -2 -50 -25 -50 -23 0 -25 3 -25 50 0 38 -4 50 -15 50 -8 0 -15 7
-15 15 0 12 13 15 60 15 47 0 60 -3 60 -15z"/>
<path d="M820 4190 c-33 -33 -24 -40 45 -40 37 0 65 4 65 10 0 19 -40 50 -65
50 -14 0 -34 -9 -45 -20z"/>
<path d="M1280 4190 c-15 -15 -20 -33 -20 -75 0 -71 37 -114 76 -87 45 29 45
145 0 174 -18 13 -35 9 -56 -12z"/>
<path d="M1701 4184 c-30 -38 -28 -104 3 -141 21 -24 27 -26 52 -18 38 14 56
50 50 105 -7 74 -65 104 -105 54z"/>
<path d="M330 3485 c0 -24 3 -26 38 -23 29 2 37 7 37 23 0 16 -8 21 -37 23
-35 3 -38 1 -38 -23z"/>
<path d="M633 3543 c-25 -10 -12 -23 22 -23 36 0 47 13 19 24 -18 7 -23 7 -41
-1z"/>
<path d="M1183 3473 c-18 -7 -16 -33 1 -33 25 0 46 12 46 26 0 14 -23 17 -47
7z"/>
<path d="M1463 3543 c-20 -7 -17 -89 3 -97 9 -4 23 -1 30 5 17 14 18 71 2 87
-13 13 -16 13 -35 5z"/>
<path d="M506 2832 c-8 -24 3 -54 18 -49 15 5 14 59 -1 64 -6 2 -14 -5 -17
-15z"/>
<path d="M664 2836 c-9 -23 0 -51 16 -51 10 0 15 10 15 29 0 32 -21 47 -31 22z"/>
<path d="M816 2835 c-4 -11 1 -15 19 -15 18 0 23 4 19 15 -4 8 -12 15 -19 15
-7 0 -15 -7 -19 -15z"/>
<path d="M4743 4298 c-2 -18 0 -20 7 -8 12 18 13 30 2 30 -4 0 -9 -10 -9 -22z"/>
<path d="M4746 4044 c-11 -8 -16 -14 -10 -14 13 0 39 18 34 24 -3 2 -14 -2
-24 -10z"/>
<path d="M4775 4000 c6 -10 4 -12 -11 -6 -10 4 -15 4 -11 0 4 -4 1 -14 -6 -22
-8 -11 -8 -14 0 -9 7 4 15 -4 22 -20 l10 -28 -3 30 c-2 17 1 35 6 42 6 7 5 14
-3 19 -8 5 -9 3 -4 -6z"/>
<path d="M4738 3933 c6 -2 9 -10 6 -15 -4 -7 -2 -8 5 -4 13 9 5 26 -12 25 -9
0 -8 -2 1 -6z"/>
<path d="M4735 3820 c-3 -5 1 -10 10 -10 9 0 13 5 10 10 -3 6 -8 10 -10 10 -2
0 -7 -4 -10 -10z"/>
<path d="M3044 3435 c-9 -22 1 -29 15 -11 8 10 9 16 1 21 -5 3 -13 -1 -16 -10z"/>
<path d="M4747 3413 c3 -7 -1 -13 -8 -13 -7 0 -9 -3 -6 -6 7 -7 37 14 37 26 0
3 -6 7 -14 7 -8 0 -12 -6 -9 -14z"/>
<path d="M3020 3389 c0 -5 5 -7 10 -4 6 3 10 8 10 11 0 2 -4 4 -10 4 -5 0 -10
-5 -10 -11z"/>
<path d="M2955 3250 c3 -5 10 -10 16 -10 5 0 9 5 9 10 0 6 -7 10 -16 10 -8 0
-12 -4 -9 -10z"/>
<path d="M4823 3144 c0 -10 4 -11 10 -5 7 7 16 7 26 -1 13 -10 14 -10 4 2 -17
19 -40 21 -40 4z"/>
<path d="M3188 3063 c6 -2 18 -2 25 0 6 3 1 5 -13 5 -14 0 -19 -2 -12 -5z"/>
<path d="M4509 3049 c-8 -5 -9 -9 -4 -10 6 0 18 -2 28 -4 9 -2 17 0 17 5 0 13
-26 19 -41 9z"/>
<path d="M3191 3043 c-1 -6 -11 -9 -23 -7 -13 2 -16 1 -8 -2 8 -4 23 -13 32
-22 13 -11 21 -12 31 -3 8 6 16 8 20 5 3 -3 3 4 0 17 -4 13 -8 18 -11 11 -5
-16 -29 -16 -35 1 -4 8 -6 8 -6 0z"/>
<path d="M4275 3040 c-4 -6 -11 -7 -17 -4 -7 4 -8 2 -4 -4 4 -6 13 -9 21 -5 9
3 15 -1 15 -9 0 -7 9 -14 20 -14 13 0 20 7 20 21 0 16 2 17 10 5 8 -13 10 -12
10 3 0 21 -8 22 -31 1 -13 -12 -19 -12 -25 -3 -5 8 -3 10 6 4 9 -5 11 -4 6 3
-9 15 -23 15 -31 2z"/>
<path d="M4365 3024 c0 -28 15 -45 15 -16 0 11 6 22 12 24 7 3 3 7 -8 10 -16
4 -20 0 -19 -18z"/>
<path d="M4470 3040 c0 -5 5 -10 10 -10 6 0 10 5 10 10 0 6 -4 10 -10 10 -5 0
-10 -4 -10 -10z"/>
<path d="M4560 3030 c0 -13 11 -13 30 0 12 8 11 10 -7 10 -13 0 -23 -4 -23
-10z"/>
<path d="M4510 3010 c-9 -6 -10 -10 -3 -10 6 0 15 5 18 10 8 12 4 12 -15 0z"/>
<path d="M4160 2999 c0 -5 -5 -7 -12 -3 -6 4 -8 3 -4 -4 3 -6 15 -9 26 -7 11
2 20 0 20 -6 0 -5 5 -9 12 -9 6 0 3 9 -7 20 -20 22 -35 26 -35 9z"/>
<path d="M4156 2956 c7 -18 32 -28 39 -16 3 5 -3 14 -14 19 -26 15 -31 14 -25
-3z"/>
<path d="M4115 2940 c3 -5 8 -10 11 -10 2 0 4 5 4 10 0 6 -5 10 -11 10 -5 0
-7 -4 -4 -10z"/>
<path d="M4080 2901 c0 -10 19 -25 25 -20 1 2 -3 10 -11 17 -8 7 -14 8 -14 3z"/>
<path d="M4118 2664 c-8 -8 3 -44 14 -44 5 0 4 8 -1 19 -6 10 -7 21 -4 25 3 3
4 6 1 6 -2 0 -7 -3 -10 -6z"/>
<path d="M420 2465 c0 -84 0 -85 25 -85 22 0 25 4 25 35 0 32 2 35 30 35 28 0
30 -3 30 -35 0 -31 3 -35 25 -35 25 0 25 1 25 85 0 84 0 85 -25 85 -21 0 -25
-5 -25 -30 0 -27 -3 -30 -30 -30 -27 0 -30 3 -30 30 0 25 -4 30 -25 30 -25 0
-25 -1 -25 -85z"/>
<path d="M628 2499 c-32 -18 -20 -32 22 -25 51 8 53 -7 3 -20 -31 -7 -39 -14
-41 -36 -3 -22 2 -29 21 -34 14 -3 35 -1 46 6 14 7 21 7 21 0 0 -5 9 -10 20
-10 17 0 20 7 20 49 0 32 -6 55 -16 65 -17 18 -70 21 -96 5z m62 -64 c0 -16
-27 -32 -37 -21 -7 7 16 36 28 36 5 0 9 -7 9 -15z"/>
<path d="M770 2444 l0 -65 51 3 c62 4 88 29 55 54 -11 8 -14 14 -8 14 18 0 14
47 -4 54 -9 3 -33 6 -55 6 l-39 0 0 -66z m70 26 c0 -11 -7 -20 -15 -20 -8 0
-15 9 -15 20 0 11 7 20 15 20 8 0 15 -9 15 -20z m3 -55 c1 -5 -6 -11 -15 -13
-11 -2 -18 3 -18 13 0 17 30 18 33 0z"/>
<path d="M930 2490 c-63 -63 34 -148 101 -89 l24 20 -47 -6 c-31 -4 -48 -2
-48 4 0 6 20 11 45 11 38 0 45 3 45 20 0 29 -36 60 -70 60 -17 0 -39 -9 -50
-20z m74 -25 c4 -11 -1 -15 -19 -15 -24 0 -32 10 -18 23 11 12 31 8 37 -8z"/>
<path d="M1070 2481 c0 -41 26 -64 62 -57 25 5 28 3 28 -19 0 -18 5 -25 20
-25 18 0 20 7 20 65 0 58 -2 65 -19 65 -13 0 -21 -8 -23 -22 -5 -34 -38 -37
-38 -4 0 21 -5 26 -25 26 -21 0 -25 -5 -25 -29z"/>
<path d="M1230 2445 c0 -63 1 -65 25 -65 20 0 25 5 25 25 0 18 5 25 20 25 15
0 20 -7 20 -25 0 -20 5 -25 25 -25 24 0 25 2 25 65 0 63 -1 65 -25 65 -20 0
-25 -5 -25 -25 0 -18 -5 -25 -20 -25 -15 0 -20 7 -20 25 0 20 -5 25 -25 25
-24 0 -25 -2 -25 -65z"/>
<path d="M1415 2485 c-14 -13 -25 -31 -25 -40 0 -24 46 -65 72 -65 40 0 68 27
68 65 0 62 -70 86 -115 40z m70 -24 c8 -26 -5 -53 -24 -49 -29 6 -27 68 3 68
8 0 17 -8 21 -19z"/>
<path d="M1646 2450 c29 -73 30 -90 4 -90 -11 0 -20 -7 -20 -15 0 -19 53 -20
69 -2 11 15 61 141 61 157 0 6 -8 10 -18 10 -13 0 -23 -13 -32 -42 l-13 -43
-14 43 c-12 33 -19 42 -38 42 l-24 0 25 -60z"/>
<path d="M1790 2460 c0 -27 -4 -50 -10 -50 -5 0 -10 -7 -10 -15 0 -22 47 -19
60 4 5 11 10 33 10 50 0 24 4 31 20 31 17 0 20 -7 20 -50 0 -43 3 -50 20 -50
18 0 20 7 20 65 l0 65 -65 0 -65 0 0 -50z"/>
<path d="M1979 2503 c-9 -2 -21 -15 -28 -29 -32 -70 51 -125 110 -73 l24 20
-42 -5 c-24 -4 -44 -2 -48 4 -4 6 11 10 39 10 42 0 46 2 46 24 0 41 -47 64
-101 49z m59 -40 c2 -8 -6 -13 -22 -13 -25 0 -33 10 -19 24 10 10 36 3 41 -11z"/>
<path d="M2100 2495 c0 -8 7 -15 15 -15 11 0 15 -12 15 -50 0 -47 2 -50 25
-50 23 0 25 3 25 50 0 38 4 50 15 50 8 0 15 7 15 15 0 12 -13 15 -55 15 -42 0
-55 -3 -55 -15z"/>
<path d="M2259 2503 c-9 -2 -21 -15 -28 -29 -32 -70 51 -125 110 -73 l24 20
-42 -5 c-24 -4 -44 -2 -48 4 -4 6 11 10 39 10 42 0 46 2 46 24 0 41 -47 64
-101 49z m59 -40 c2 -8 -6 -13 -22 -13 -25 0 -33 10 -19 24 10 10 36 3 41 -11z"/>
<path d="M2390 2445 l0 -65 41 0 c42 0 79 14 79 30 0 5 -7 16 -16 24 -8 9 -11
16 -5 16 17 0 13 47 -5 54 -9 3 -33 6 -55 6 l-39 0 0 -65z m65 25 c0 -7 -6
-15 -12 -17 -8 -3 -13 4 -13 17 0 13 5 20 13 18 6 -3 12 -11 12 -18z m5 -55
c0 -8 -7 -15 -15 -15 -8 0 -15 7 -15 15 0 8 7 15 15 15 8 0 15 -7 15 -15z"/>
<path d="M2530 2445 l0 -65 95 0 95 0 0 65 c0 58 -2 65 -20 65 -17 0 -20 -7
-20 -50 0 -38 -4 -50 -15 -50 -11 0 -15 12 -15 50 0 47 -2 50 -25 50 -23 0
-25 -3 -25 -50 0 -38 -4 -50 -15 -50 -11 0 -15 12 -15 50 0 43 -3 50 -20 50
-18 0 -20 -7 -20 -65z"/>
<path d="M2760 2445 c0 -58 2 -65 19 -65 11 0 31 15 45 33 l26 32 0 -32 c0
-26 4 -33 20 -33 18 0 20 7 20 65 0 58 -2 65 -19 65 -11 0 -31 -15 -45 -32
l-26 -33 0 33 c0 25 -4 32 -20 32 -18 0 -20 -7 -20 -65z"/>
<path d="M2943 2495 c-31 -22 -32 -78 -1 -99 26 -18 61 -20 89 -6 33 18 22 32
-20 25 -24 -4 -42 -2 -46 4 -4 7 11 11 44 11 43 0 51 3 51 18 0 49 -74 78
-117 47z m65 -32 c2 -8 -6 -13 -22 -13 -19 0 -24 4 -19 15 6 18 34 16 41 -2z"/>
<path d="M272 2472 c-20 -27 -20 -28 0 -55 11 -15 26 -27 34 -27 18 0 17 10
-1 34 -12 16 -12 22 1 47 13 25 13 29 0 29 -8 0 -24 -12 -34 -28z"/>
<path d="M335 2480 c-21 -24 -13 -65 17 -84 25 -15 32 -1 14 26 -14 21 -14 27
-1 44 8 10 15 22 15 27 0 14 -27 7 -45 -13z"/>
<path d="M260 2175 l0 -65 41 0 c42 0 79 14 79 30 0 5 -7 16 -16 24 -8 9 -11
16 -5 16 17 0 13 47 -5 54 -9 3 -33 6 -55 6 l-39 0 0 -65z m65 25 c0 -7 -6
-15 -12 -17 -8 -3 -13 4 -13 17 0 13 5 20 13 18 6 -3 12 -11 12 -18z m5 -55
c0 -8 -7 -15 -15 -15 -8 0 -15 7 -15 15 0 8 7 15 15 15 8 0 15 -7 15 -15z"/>
<path d="M480 2175 c0 -58 2 -65 20 -65 17 0 20 7 20 50 0 43 3 50 20 50 17 0
20 -7 20 -50 0 -47 2 -50 25 -50 24 0 25 2 25 65 l0 65 -65 0 -65 0 0 -65z"/>
<path d="M658 2229 c-33 -19 -20 -31 23 -24 51 9 46 -10 -5 -19 -42 -8 -59
-42 -30 -63 22 -16 39 -16 65 -3 13 7 19 7 19 0 0 -5 9 -10 20 -10 17 0 20 7
20 49 0 32 -6 55 -16 65 -17 18 -70 21 -96 5z m60 -66 c-4 -22 -38 -30 -38
-10 0 14 13 24 33 26 5 1 7 -7 5 -16z"/>
<path d="M800 2175 c0 -58 2 -65 20 -65 16 0 20 7 21 33 l1 32 14 -32 c18 -43
35 -42 56 5 l16 37 1 -37 c1 -31 5 -38 21 -38 18 0 20 7 20 65 l0 65 -29 0
c-24 0 -31 -6 -44 -37 l-15 -38 -15 38 c-13 29 -21 37 -41 37 -25 0 -26 -2
-26 -65z"/>
<path d="M1002 2228 c-15 -15 -15 -41 -1 -55 8 -8 6 -18 -6 -37 -17 -26 -17
-26 9 -26 18 0 30 8 38 25 6 14 15 25 20 25 4 0 8 -11 8 -25 0 -18 5 -25 20
-25 18 0 20 7 20 65 l0 65 -48 0 c-26 0 -53 -5 -60 -12z m68 -28 c0 -11 -7
-20 -15 -20 -8 0 -15 9 -15 20 0 11 7 20 15 20 8 0 15 -9 15 -20z"/>
<path d="M1130 2225 c0 -8 9 -15 20 -15 17 0 20 -7 20 -50 0 -43 3 -50 20 -50
17 0 20 7 20 50 0 43 3 50 20 50 11 0 20 7 20 15 0 12 -13 15 -60 15 -47 0
-60 -3 -60 -15z"/>
<path d="M1270 2175 l0 -65 41 0 c46 0 79 14 79 35 0 17 -30 35 -59 35 -17 0
-21 6 -21 30 0 23 -4 30 -20 30 -18 0 -20 -7 -20 -65z m70 -30 c0 -8 -7 -15
-15 -15 -8 0 -15 7 -15 15 0 8 7 15 15 15 8 0 15 -7 15 -15z"/>
<path d="M1426 2213 c10 -23 9 -53 -1 -77 -13 -29 23 -16 42 16 15 24 15 28 0
52 -20 30 -54 37 -41 9z"/>
<path d="M1480 2225 c0 -3 5 -14 12 -24 9 -15 9 -26 0 -47 -7 -14 -11 -29 -8
-32 10 -10 36 8 48 32 9 20 8 30 -6 51 -14 21 -46 35 -46 20z"/>
<path d="M4130 1870 c-8 -5 -12 -11 -9 -14 2 -3 11 -1 19 4 8 5 12 11 9 14 -2
3 -11 1 -19 -4z"/>
<path d="M4147 1760 c3 -11 7 -20 9 -20 2 0 4 9 4 20 0 11 -4 20 -9 20 -5 0
-7 -9 -4 -20z"/>
<path d="M4848 1743 c7 -3 16 -2 19 1 4 3 -2 6 -13 5 -11 0 -14 -3 -6 -6z"/>
<path d="M4498 1663 c6 -2 18 -2 25 0 6 3 1 5 -13 5 -14 0 -19 -2 -12 -5z"/>
<path d="M3930 1638 c0 -19 2 -20 10 -8 13 19 13 30 0 30 -5 0 -10 -10 -10
-22z"/>
<path d="M3435 1610 c-3 -5 -1 -10 4 -10 6 0 11 5 11 10 0 6 -2 10 -4 10 -3 0
-8 -4 -11 -10z"/>
<path d="M3280 1600 c0 -21 136 -55 143 -36 3 8 -7 12 -27 13 -17 1 -50 8 -73
16 -24 8 -43 11 -43 7z"/>
<path d="M3467 1603 c-4 -3 -7 -11 -7 -17 0 -6 5 -5 12 2 6 6 9 14 7 17 -3 3
-9 2 -12 -2z"/>
<path d="M4560 1606 c0 -2 7 -7 16 -10 8 -3 12 -2 9 4 -6 10 -25 14 -25 6z"/>
<path d="M4630 1590 c-8 -5 -12 -11 -9 -14 7 -8 49 5 49 15 0 12 -21 11 -40
-1z"/>
<path d="M4956 1561 c-18 -19 -34 -27 -44 -23 -14 5 -15 4 -2 -10 13 -14 18
-12 49 18 19 18 33 36 30 39 -3 2 -18 -8 -33 -24z"/>
<path d="M3664 1563 c4 -6 0 -13 -6 -16 -9 -3 -4 -11 12 -25 31 -26 44 -28 31
-4 -11 20 -45 62 -37 45z"/>
<path d="M3425 1520 c3 -5 13 -10 21 -10 8 0 12 5 9 10 -3 6 -13 10 -21 10 -8
0 -12 -4 -9 -10z"/>
<path d="M3695 1470 c-3 -6 1 -7 9 -4 18 7 21 14 7 14 -6 0 -13 -4 -16 -10z"/>
<path d="M3740 1465 c0 -8 9 -19 20 -25 11 -6 20 -7 20 -3 0 5 -9 16 -20 26
-16 14 -20 14 -20 2z"/>
<path d="M4800 1408 c-12 -22 -12 -22 6 -6 10 10 15 20 12 24 -4 3 -12 -5 -18
-18z"/>
<path d="M3850 1391 c0 -6 4 -13 10 -16 6 -3 7 1 4 9 -7 18 -14 21 -14 7z"/>
<path d="M4734 1298 l-19 -23 23 19 c12 11 22 21 22 23 0 8 -8 2 -26 -19z"/>
<path d="M3790 1300 c0 -5 5 -10 11 -10 5 0 7 5 4 10 -3 6 -8 10 -11 10 -2 0
-4 -4 -4 -10z"/>
<path d="M4627 1199 c7 -7 15 -10 18 -7 3 3 -2 9 -12 12 -14 6 -15 5 -6 -5z"/>
<path d="M4597 1187 c-3 -8 1 -14 8 -14 7 0 11 6 8 14 -3 7 -6 13 -8 13 -2 0
-5 -6 -8 -13z"/>
<path d="M3530 1176 c0 -8 5 -18 10 -21 6 -3 10 1 10 9 0 8 -4 18 -10 21 -5 3
-10 -1 -10 -9z"/>
<path d="M3303 1133 c-8 -3 -13 -20 -12 -41 l1 -37 8 33 c8 34 20 54 20 34 0
-7 5 -12 10 -12 14 0 12 17 -2 22 -7 3 -19 3 -25 1z"/>
<path d="M3970 1106 c0 -2 12 -12 28 -21 l27 -18 -19 21 c-17 20 -36 29 -36
18z"/>
<path d="M3900 903 c0 -28 -25 -63 -46 -63 -5 0 -16 -11 -25 -23 -14 -19 -15
-26 -4 -40 12 -16 13 -16 19 5 6 23 6 23 22 3 13 -18 13 -20 0 -23 -9 -2 -16
-10 -16 -18 0 -8 -11 -27 -25 -42 -29 -31 -34 -51 -7 -31 9 8 20 18 24 23 3 5
15 10 25 12 10 1 27 5 37 9 17 8 19 5 13 -27 -5 -33 -3 -36 29 -46 19 -5 32
-6 28 -1 -3 5 -12 9 -21 9 -12 0 -13 3 -4 13 6 8 9 16 6 19 -3 2 -7 22 -10 44
-4 35 -10 65 -31 174 -8 36 -14 38 -14 3z"/>
<path d="M270 800 c0 -56 3 -70 15 -70 12 0 15 13 15 55 0 54 0 55 30 55 20 0
30 5 30 15 0 11 -12 15 -45 15 l-45 0 0 -70z"/>
<path d="M380 865 c0 -3 9 -23 20 -45 24 -47 25 -60 5 -60 -8 0 -15 -7 -15
-16 0 -10 7 -14 22 -12 22 3 53 52 72 116 12 36 -20 27 -34 -10 l-13 -33 -10
33 c-6 21 -16 32 -28 32 -11 0 -19 -2 -19 -5z"/>
<path d="M531 851 c-42 -42 -14 -121 44 -121 52 0 84 70 53 113 -22 28 -73 32
-97 8z m74 -31 c10 -32 -4 -60 -30 -60 -26 0 -40 28 -30 60 4 13 15 20 30 20
15 0 26 -7 30 -20z"/>
<path d="M850 800 c0 -63 2 -70 20 -70 18 0 20 7 20 55 0 54 0 55 30 55 20 0
30 5 30 15 0 11 -12 15 -50 15 l-50 0 0 -70z"/>
<path d="M980 800 c0 -84 13 -91 56 -27 l29 42 3 -42 c2 -29 8 -43 18 -43 11
0 14 16 14 70 0 84 -15 92 -57 28 l-28 -42 -3 42 c-2 29 -8 42 -18 42 -11 0
-14 -16 -14 -70z"/>
<path d="M1130 800 c0 -56 3 -70 15 -70 11 0 15 13 16 53 l1 52 16 -52 c18
-62 38 -68 47 -15 11 65 25 73 25 15 0 -40 4 -53 15 -53 12 0 15 14 15 70 0
67 -1 70 -24 70 -25 0 -29 -6 -41 -69 -8 -40 -21 -27 -30 31 -6 32 -11 38 -31
38 -23 0 -24 -3 -24 -70z"/>
<path d="M1310 800 c0 -56 3 -70 15 -70 10 0 15 10 15 30 0 25 4 30 25 30 21
0 25 -5 25 -30 0 -23 4 -30 20 -30 18 0 20 7 20 70 0 63 -2 70 -20 70 -15 0
-20 -7 -20 -25 0 -20 -5 -25 -25 -25 -20 0 -25 5 -25 25 0 16 -6 25 -15 25
-12 0 -15 -14 -15 -70z"/>
<path d="M1477 804 c-28 -72 -28 -86 3 -66 24 15 70 16 70 2 0 -5 7 -10 15
-10 20 0 19 6 -9 76 -13 32 -30 60 -38 62 -9 2 -24 -21 -41 -64z m53 -10 c0
-8 -7 -14 -15 -14 -17 0 -18 2 -9 24 7 18 24 12 24 -10z"/>
<path d="M1617 859 c-24 -14 -11 -30 19 -23 14 4 24 2 24 -5 0 -6 -4 -11 -10
-11 -5 0 -10 -7 -10 -15 0 -8 7 -15 15 -15 8 0 15 -7 15 -16 0 -13 -7 -15 -35
-10 -41 8 -48 -9 -10 -26 36 -16 75 3 75 37 0 14 -5 25 -12 25 -9 0 -9 3 0 12
16 16 15 23 -4 42 -18 18 -41 20 -67 5z"/>
<path d="M1730 800 c0 -84 15 -92 57 -28 l28 42 3 -42 c2 -29 8 -42 18 -42 11
0 14 16 14 70 0 84 -13 91 -56 28 l-29 -43 -3 43 c-2 28 -8 42 -18 42 -11 0
-14 -16 -14 -70z"/>
<path d="M1903 863 c-16 -6 -17 -45 -2 -60 8 -8 7 -17 -5 -34 -20 -29 -20 -39
-1 -39 8 0 21 14 30 30 9 17 22 30 30 30 10 0 15 -10 15 -30 0 -20 5 -30 15
-30 12 0 15 14 15 70 l0 70 -42 -1 c-24 0 -49 -3 -55 -6z m67 -33 c0 -5 -11
-10 -25 -10 -14 0 -25 5 -25 10 0 6 11 10 25 10 14 0 25 -4 25 -10z"/>
<path d="M2090 800 c0 -54 3 -70 14 -70 10 0 16 14 18 43 l3 42 29 -42 c43
-64 56 -57 56 27 0 54 -3 70 -14 70 -10 0 -16 -13 -18 -42 l-3 -42 -28 42
c-42 64 -57 56 -57 -28z"/>
<path d="M2358 859 c-10 -5 -18 -17 -18 -24 0 -18 5 -19 30 -3 14 9 22 10 31
1 8 -8 3 -18 -21 -40 -18 -15 -36 -36 -41 -45 -9 -16 -4 -18 46 -18 42 0 55 3
55 15 0 10 -10 15 -31 15 l-31 0 32 30 c26 24 29 33 21 48 -16 31 -44 38 -73
21z"/>
<path d="M2246 825 c-9 -9 -16 -20 -16 -25 0 -15 32 -41 48 -38 24 5 39 35 26
56 -15 23 -38 26 -58 7z m44 -25 c0 -11 -7 -20 -15 -20 -8 0 -15 9 -15 20 0
11 7 20 15 20 8 0 15 -9 15 -20z"/>
<path d="M741 806 c-11 -19 -10 -27 0 -45 23 -36 38 -27 18 11 -8 14 -8 23 0
31 13 13 14 27 3 27 -5 0 -14 -11 -21 -24z"/>
<path d="M789 809 c-12 -23 2 -69 21 -69 13 0 13 6 -2 30 -10 15 -10 22 0 32
14 14 16 28 2 28 -5 0 -14 -10 -21 -21z"/>
<path d="M3545 779 c-4 -6 -5 -12 -2 -15 2 -3 7 2 10 11 7 17 1 20 -8 4z"/>
<path d="M3797 766 c-4 -10 -1 -13 9 -9 15 6 19 23 5 23 -5 0 -11 -7 -14 -14z"/>
<path d="M2240 740 c0 -5 16 -10 35 -10 19 0 35 5 35 10 0 6 -16 10 -35 10
-19 0 -35 -4 -35 -10z"/>
<path d="M3785 730 c-3 -5 -2 -10 4 -10 5 0 13 5 16 10 3 6 2 10 -4 10 -5 0
-13 -4 -16 -10z"/>
<path d="M3496 714 c-9 -24 -2 -26 12 -4 7 11 8 20 3 20 -5 0 -12 -7 -15 -16z"/>
<path d="M3704 716 c-20 -21 -35 -57 -31 -69 2 -7 10 1 17 16 8 16 19 26 27
23 14 -6 15 0 5 25 -5 13 -10 14 -18 5z"/>
<path d="M3757 696 c-6 -16 19 -43 30 -33 3 4 -1 9 -10 13 -9 3 -13 12 -10 20
3 8 3 14 0 14 -3 0 -7 -6 -10 -14z"/>
<path d="M3730 660 c-13 -8 -12 -11 5 -24 18 -13 20 -13 23 1 5 21 -10 34 -28
23z"/>
<path d="M3840 659 c0 -5 8 -9 18 -9 15 -1 15 -2 -2 -11 -13 -8 -20 -8 -25 0
-5 8 -15 8 -34 -2 -30 -13 -37 -33 -9 -23 14 5 14 4 -2 -9 -29 -22 -15 -18 53
14 l62 29 -31 10 c-18 7 -30 7 -30 1z"/>
<path d="M420 590 l0 -70 41 0 c53 0 79 15 79 45 0 26 -25 45 -59 45 -12 0
-21 5 -21 10 0 6 16 10 35 10 24 0 35 5 35 15 0 12 -13 15 -55 15 l-55 0 0
-70z m85 -25 c0 -5 -10 -11 -22 -13 -16 -2 -23 2 -23 13 0 11 7 15 23 13 12
-2 22 -7 22 -13z"/>
<path d="M3640 640 c0 -5 5 -10 10 -10 6 0 10 5 10 10 0 6 -4 10 -10 10 -5 0
-10 -4 -10 -10z"/>
<path d="M260 575 c0 -42 3 -55 15 -55 11 0 15 11 15 40 0 36 3 40 25 40 16 0
25 6 25 15 0 11 -11 15 -40 15 l-40 0 0 -55z"/>
<path d="M576 614 c-23 -23 -20 -26 20 -18 24 4 35 3 31 -3 -4 -6 -20 -13 -37
-16 -21 -5 -30 -12 -30 -26 0 -24 25 -34 51 -21 13 7 19 7 19 0 0 -5 7 -10 15
-10 24 0 21 86 -4 100 -27 14 -47 13 -65 -6z m54 -54 c0 -5 -9 -10 -20 -10
-11 0 -20 5 -20 10 0 6 9 10 20 10 11 0 20 -4 20 -10z"/>
<path d="M690 555 c0 -60 3 -75 15 -75 10 0 15 10 15 31 0 26 3 29 14 20 30
-25 66 21 52 67 -8 25 -34 36 -52 21 -10 -8 -14 -8 -14 0 0 6 -7 11 -15 11
-12 0 -15 -15 -15 -75z m65 20 c0 -11 -8 -21 -17 -23 -14 -3 -18 3 -18 23 0
20 4 26 18 23 9 -2 17 -12 17 -23z"/>
<path d="M828 619 c-29 -16 -21 -31 12 -24 17 4 30 2 30 -3 0 -5 -13 -12 -30
-15 -22 -5 -30 -12 -30 -27 0 -26 22 -35 49 -20 14 7 21 7 21 0 0 -5 7 -10 15
-10 11 0 15 11 15 39 0 60 -37 87 -82 60z m47 -59 c-3 -5 -13 -10 -21 -10 -8
0 -14 5 -14 10 0 6 9 10 21 10 11 0 17 -4 14 -10z"/>
<path d="M930 575 c0 -42 3 -55 15 -55 8 0 15 9 15 20 0 15 7 20 25 20 18 0
25 -5 25 -20 0 -11 7 -20 15 -20 12 0 15 13 15 55 0 42 -3 55 -15 55 -8 0 -15
-9 -15 -20 0 -15 -7 -20 -25 -20 -18 0 -25 5 -25 20 0 11 -7 20 -15 20 -12 0
-15 -13 -15 -55z"/>
<path d="M1082 614 c-50 -34 -2 -111 53 -86 46 21 28 102 -22 102 -5 0 -19 -7
-31 -16z m51 -26 c6 -19 -3 -38 -18 -38 -18 0 -28 17 -21 35 7 18 33 20 39 3z"/>
<path d="M1190 576 l0 -56 34 0 c39 0 62 21 51 47 -4 10 -8 27 -9 38 -1 16 -9
21 -38 23 l-38 3 0 -55z m50 24 c0 -5 -4 -10 -10 -10 -5 0 -10 5 -10 10 0 6 5
10 10 10 6 0 10 -4 10 -10z m10 -45 c0 -8 -7 -15 -15 -15 -8 0 -15 7 -15 15 0
8 7 15 15 15 8 0 15 -7 15 -15z"/>
<path d="M1300 575 c0 -62 17 -74 46 -30 9 14 20 25 25 25 5 0 9 -11 9 -25 0
-14 5 -25 10 -25 6 0 10 25 10 55 0 30 -3 55 -7 55 -5 0 -20 -14 -35 -32 l-27
-33 -1 33 c0 22 -5 32 -15 32 -12 0 -15 -13 -15 -55z"/>
<path d="M1430 609 c0 -38 19 -61 46 -55 19 5 24 3 24 -14 0 -11 7 -20 15 -20
12 0 15 13 15 55 0 42 -3 55 -15 55 -9 0 -15 -9 -15 -25 0 -18 -5 -25 -20 -25
-15 0 -20 7 -20 25 0 16 -6 25 -15 25 -8 0 -15 -9 -15 -21z"/>
<path d="M1560 575 c0 -61 9 -68 38 -30 11 14 23 25 26 25 3 0 6 -11 6 -25 0
-16 6 -25 15 -25 12 0 15 13 15 55 0 65 -11 69 -51 23 l-28 -33 -1 33 c0 17
-4 32 -10 32 -5 0 -10 -25 -10 -55z"/>
<path d="M1698 608 c7 -7 12 -21 12 -33 0 -12 -5 -26 -12 -33 -8 -8 -8 -12 -1
-12 6 0 18 12 28 26 16 24 16 27 -1 45 -9 10 -22 19 -28 19 -6 0 -5 -5 2 -12z"/>
<path d="M1752 601 c9 -15 9 -25 0 -45 -14 -32 0 -34 21 -3 13 20 13 25 -1 45
-18 27 -37 30 -20 3z"/>
<path d="M360 540 c0 -11 7 -20 15 -20 8 0 15 9 15 20 0 11 -7 20 -15 20 -8 0
-15 -9 -15 -20z"/>
<path d="M3424 464 l-29 -24 25 4 c14 3 31 5 38 5 7 1 11 5 7 10 -3 5 3 11 12
13 15 3 15 5 -3 10 -15 4 -31 -2 -50 -18z"/>
</g>
</svg>
