<?xml version="1.0" encoding="utf-8"?>
<!-- Generator: Adobe Illustrator 26.5.0, SVG Export Plug-In . SVG Version: 6.00 Build 0)  -->
<svg version="1.1" id="Слой_1" xmlns="http://www.w3.org/2000/svg" xmlns:xlink="http://www.w3.org/1999/xlink" x="0px" y="0px"
	 viewBox="0 0 1200 1200" style="enable-background:new 0 0 1200 1200;" xml:space="preserve">
<style type="text/css">
	.st0{fill:#FFFFFF;}
	.st1{fill:#808080;}
</style>
<g>
	<polygon class="st0" points="599.9,970.4 229.6,1161.2 300.4,757.2 0.8,471.1 414.8,412.1 599.9,44.5 785,412.1 1198.9,471.1 
		899.4,757.2 970.1,1161.2 	"/>
	<path class="st1" d="M599.9,45.6l184.6,366.5l0.2,0.5l0.5,0.1l412.6,58.8L899.2,756.6l-0.4,0.4l0.1,0.5l70.5,402.8L600.3,970.1
		l-0.5-0.2l-0.5,0.2l-369.1,190.2l70.5-402.8l0.1-0.5l-0.4-0.4L1.9,471.4l412.6-58.8l0.5-0.1l0.2-0.5L599.9,45.6 M599.9,43.4
		L414.4,411.7L-0.2,470.7l300.1,286.6L229,1162.1L599.9,971l370.9,191.1l-70.8-404.7L1200,470.7l-414.7-59.1L599.9,43.4L599.9,43.4z
		"/>
</g>
</svg>
